<svg width="137" height="143" viewBox="0 0 137 143" fill="none" xmlns="http://www.w3.org/2000/svg">
<rect x="1.90972" y="8.72173" width="133.014" height="133.014" rx="6.54167" fill="white" stroke="black" stroke-width="2.18056"/>
<mask id="path-2-inside-1_336_459" fill="white">
<path d="M3 15.2634C3 12.2527 5.44067 9.81201 8.45139 9.81201H128.382C131.393 9.81201 133.833 12.2527 133.833 15.2634V26.1662H3V15.2634Z"/>
</mask>
<path d="M3 15.2634C3 12.2527 5.44067 9.81201 8.45139 9.81201H128.382C131.393 9.81201 133.833 12.2527 133.833 15.2634V26.1662H3V15.2634Z" fill="#0F70BD"/>
<path d="M3 9.81201H133.833H3ZM133.833 28.3467H3V23.9856H133.833V28.3467ZM3 26.1662V9.81201V26.1662ZM133.833 9.81201V26.1662V9.81201Z" fill="black" mask="url(#path-2-inside-1_336_459)"/>
<mask id="path-4-inside-2_336_459" fill="white">
<path d="M3 131.923H133.833V135.194C133.833 138.205 131.393 140.645 128.382 140.645H8.45139C5.44067 140.645 3 138.205 3 135.194V131.923Z"/>
</mask>
<path d="M3 131.923H133.833V135.194C133.833 138.205 131.393 140.645 128.382 140.645H8.45139C5.44067 140.645 3 138.205 3 135.194V131.923Z" fill="#37AFEB"/>
<path d="M3 129.743H133.833V134.104H3V129.743ZM133.833 140.645H3H133.833ZM3 140.645V131.923V140.645ZM133.833 131.923V140.645V131.923Z" fill="black" mask="url(#path-4-inside-2_336_459)"/>
<line x1="114.208" y1="3.27034" x2="114.208" y2="13.0828" stroke="black" stroke-width="6.54167" stroke-linecap="round"/>
<line x1="22.625" y1="3.27034" x2="22.625" y2="13.0828" stroke="black" stroke-width="6.54167" stroke-linecap="round"/>
<rect x="9" y="52.9995" width="18" height="18" rx="2" stroke="black" stroke-width="2"/>
<rect x="9" y="79.9995" width="18" height="18" rx="2" stroke="black" stroke-width="2"/>
<rect x="9" y="107" width="18" height="18" rx="2" stroke="black" stroke-width="2"/>
<rect x="34" y="52.9995" width="18" height="18" rx="2" stroke="black" stroke-width="2"/>
<rect x="34" y="79.9995" width="18" height="18" rx="2" stroke="black" stroke-width="2"/>
<rect x="34" y="107" width="18" height="18" rx="2" stroke="black" stroke-width="2"/>
<rect x="59" y="52.9995" width="18" height="18" rx="2" stroke="black" stroke-width="2"/>
<rect x="59" y="79.9995" width="18" height="18" rx="2" stroke="black" stroke-width="2"/>
<rect x="59" y="107" width="18" height="18" rx="2" stroke="black" stroke-width="2"/>
<rect x="84" y="52.9995" width="18" height="18" rx="2" stroke="black" stroke-width="2"/>
<rect x="84" y="79.9995" width="18" height="18" rx="2" stroke="black" stroke-width="2"/>
<rect x="84" y="107" width="18" height="18" rx="2" stroke="black" stroke-width="2"/>
<rect x="109" y="52.9995" width="18" height="18" rx="2" stroke="black" stroke-width="2"/>
<rect x="109" y="79.9995" width="18" height="18" rx="2" stroke="black" stroke-width="2"/>
<rect x="109" y="107" width="18" height="18" rx="2" stroke="black" stroke-width="2"/>
<path d="M99 82.9995L87 94.9995M87 82.9995L99 94.9995" stroke="#0F70BD" stroke-width="2" stroke-linecap="round" stroke-linejoin="round"/>
<path d="M46.4336 29.4075H49.1458L53.6812 41.8971L58.2053 29.4075H60.9288L54.7638 45.9995H52.5873L46.4336 29.4075ZM45.0661 29.4075H47.7213L48.1999 40.8829V45.9995H45.0661V29.4075ZM59.6297 29.4075H62.2963V45.9995H59.1625V40.8829L59.6297 29.4075ZM72.2903 31.9259L67.5611 45.9995H64.245L70.4442 29.4075H72.5638L72.2903 31.9259ZM76.2445 45.9995L71.4926 31.9259L71.2077 29.4075H73.3387L79.5721 45.9995H76.2445ZM76.028 39.8345V42.3073H67.1281V39.8345H76.028ZM81.8056 29.4075L85.4522 37.1451L89.1216 29.4075H92.5631L87.0476 39.9257V45.9995H83.8682V39.9257L78.3413 29.4075H81.8056Z" fill="#0F70BD"/>
</svg>
