<svg width="175" height="105" viewBox="0 0 175 105" fill="none" xmlns="http://www.w3.org/2000/svg">
<rect width="174.619" height="104.772" rx="4.36548" fill="#37AFEB"/>
<circle cx="140.05" cy="84.1718" r="13.4511" fill="#EA001B"/>
<circle opacity="0.8" cx="156.803" cy="84.172" r="13.4511" fill="#F79F1A"/>
<path d="M7.74437 71.5107V66.7069L6.31424 67.4403L5.77641 66.4991L8.00106 65.1179H9.19895V71.8896L10.4702 71.9508V72.9897H6.21645V71.9874L7.3899 71.9141C7.51213 71.9059 7.60177 71.8733 7.65881 71.8163C7.71585 71.7593 7.74437 71.6574 7.74437 71.5107ZM11.391 72.9897V72.0485L13.8235 68.9805C14.0761 68.6545 14.2432 68.4386 14.3246 68.3326C14.4061 68.2186 14.4835 68.0637 14.5569 67.8682C14.6384 67.6644 14.6791 67.424 14.6791 67.147C14.6791 66.8618 14.5813 66.6295 14.3858 66.4503C14.1983 66.271 13.9539 66.1813 13.6524 66.1813C13.359 66.1813 13.1349 66.2058 12.9801 66.2547C12.8334 66.3036 12.7438 66.3606 12.7112 66.4258C12.6867 66.4828 12.6745 66.5766 12.6745 66.7069V67.5748L11.4277 67.4892V65.5335C12.1937 65.1505 12.9801 64.959 13.7868 64.959C14.5936 64.959 15.2007 65.1587 15.6081 65.5579C16.0155 65.9491 16.2193 66.4869 16.2193 67.1714C16.2193 67.8559 15.8729 68.6179 15.1803 69.4572L13.2123 71.7796H16.2682V72.9897H11.391ZM18.978 68.4304H20.237C20.726 68.1208 20.9704 67.6848 20.9704 67.1225C20.9704 66.4951 20.6159 66.1813 19.907 66.1813C19.6462 66.1813 19.4262 66.2099 19.2469 66.2669C19.0758 66.3239 18.9739 66.3851 18.9413 66.4503C18.9169 66.5073 18.9047 66.601 18.9047 66.7314V67.6115L17.6579 67.5259V65.5702C18.4728 65.1627 19.2795 64.959 20.0781 64.959C20.8767 64.959 21.4716 65.1424 21.8627 65.5091C22.262 65.8676 22.4617 66.3362 22.4617 66.9147C22.4617 67.3385 22.3598 67.7256 22.1561 68.076C21.9524 68.4182 21.6835 68.6953 21.3493 68.9071C22.1724 69.1679 22.5839 69.7465 22.5839 70.6429C22.5839 71.3926 22.3517 71.9997 21.8872 72.4641C21.4227 72.9205 20.7341 73.1486 19.8214 73.1486C19.3732 73.1486 18.9251 73.0875 18.4769 72.9653C18.0368 72.8431 17.6864 72.7005 17.4257 72.5375L17.8535 71.3763C18.4972 71.7348 19.1369 71.9141 19.7725 71.9141C20.6608 71.9141 21.1049 71.5189 21.1049 70.7284C21.1049 70.321 20.9704 70.0235 20.7015 69.8361C20.4326 69.6405 19.9763 69.5428 19.3325 69.5428H18.868L18.978 68.4304ZM27.3257 67.3426H28.1813V69.6283H29.2692V70.7895H28.1691V71.8896L29.1837 71.9508V72.9897H25.59V71.9874L26.3478 71.9263C26.5842 71.91 26.7023 71.7959 26.7023 71.5841V70.7773H23.5731V69.7628L25.8711 64.9346L27.0323 65.5091L25.0644 69.6283H26.8123V68.9683L27.3257 67.3426ZM37.4873 66.2791H34.6882L34.4437 68.1493C35.3564 68.2145 36.0979 68.4549 36.6684 68.8705C37.2469 69.2779 37.5362 69.885 37.5362 70.6918C37.5362 71.3518 37.3162 71.9222 36.8762 72.403C36.4361 72.8838 35.7516 73.1242 34.8226 73.1242C34.3663 73.1242 33.9181 73.0631 33.4781 72.9409C33.0462 72.8186 32.6998 72.676 32.4391 72.513L32.928 71.3885C33.5636 71.7389 34.1748 71.9141 34.7615 71.9141C35.5927 71.9141 36.0083 71.5148 36.0083 70.7162C36.0083 69.722 35.0345 69.225 33.0869 69.225L33.6125 65.1179H36.045C36.2324 65.1179 36.3261 65.0038 36.3261 64.7757V64.25L37.4873 64.3356V66.2791ZM43.1081 64.7879L43.3892 65.888C41.6453 66.108 40.6715 66.9718 40.4678 68.4793C40.9812 68.1452 41.5516 67.9782 42.1791 67.9782C42.8147 67.9782 43.3199 68.19 43.6948 68.6138C44.0696 69.0375 44.2571 69.6405 44.2571 70.4228C44.2571 71.197 44.0248 71.8408 43.5603 72.3541C43.104 72.8675 42.4317 73.1242 41.5435 73.1242C40.6634 73.1242 40.0074 72.8064 39.5755 72.1708C39.1518 71.5352 38.9399 70.6836 38.9399 69.6161C38.9399 66.7069 40.3293 65.0975 43.1081 64.7879ZM42.8269 70.4106C42.8269 69.4816 42.4643 69.0172 41.739 69.0172C41.5272 69.0172 41.2827 69.066 41.0056 69.1638C40.7367 69.2616 40.5289 69.3716 40.3823 69.4939C40.3823 69.5754 40.3823 69.6568 40.3823 69.7383C40.3823 70.3821 40.476 70.9199 40.6634 71.3518C40.8508 71.7837 41.1768 71.9997 41.6413 71.9997C41.9917 71.9997 42.2769 71.8611 42.4969 71.5841C42.7169 71.2988 42.8269 70.9077 42.8269 70.4106ZM44.9711 65.1179H50.2516V66.1324L47.4524 72.9897H45.9245L48.797 66.328H46.4868C46.3075 66.328 46.2179 66.4543 46.2179 66.7069V67.1959L44.9711 67.1103V65.1179ZM50.9464 71.0462C50.9464 70.1417 51.4435 69.4002 52.4376 68.8216C51.6146 68.3164 51.2031 67.7093 51.2031 67.0003C51.2031 66.4136 51.4312 65.9287 51.8876 65.5457C52.3439 65.1546 52.9551 64.959 53.7211 64.959C54.4871 64.959 55.0616 65.1383 55.4446 65.4968C55.8357 65.8472 56.0313 66.2791 56.0313 66.7925C56.0313 67.4444 55.6442 68.0963 54.8701 68.7482C55.8642 69.3268 56.3613 70.0358 56.3613 70.8751C56.3613 71.5189 56.1291 72.0567 55.6646 72.4886C55.2001 72.9123 54.5034 73.1242 53.5744 73.1242C52.6536 73.1242 51.9854 72.9205 51.5698 72.513C51.1542 72.0974 50.9464 71.6085 50.9464 71.0462ZM53.5744 72.0119C53.9574 72.0119 54.2548 71.9141 54.4667 71.7185C54.6867 71.5229 54.7967 71.2581 54.7967 70.924C54.7967 70.5899 54.6827 70.3128 54.4545 70.0928C54.2263 69.8646 53.8881 69.6365 53.4399 69.4083C53.0977 69.6365 52.8329 69.8687 52.6454 70.105C52.4662 70.3332 52.3765 70.6062 52.3765 70.924C52.3765 71.2337 52.4784 71.4944 52.6821 71.7063C52.894 71.91 53.1914 72.0119 53.5744 72.0119ZM54.6745 66.8536C54.6745 66.5929 54.5767 66.3851 54.3811 66.2302C54.1937 66.0754 53.9493 65.998 53.6477 65.998C53.3544 65.998 53.1099 66.0876 52.9143 66.2669C52.7188 66.438 52.621 66.654 52.621 66.9147C52.621 67.4037 53.0081 67.8437 53.7822 68.2349C54.0267 68.0719 54.2345 67.8682 54.4056 67.6237C54.5849 67.3711 54.6745 67.1144 54.6745 66.8536ZM62.6851 64.959C64.5349 64.959 65.4598 66.2995 65.4598 68.9805C65.4598 70.4065 65.2194 71.4537 64.7386 72.1219C64.2578 72.7819 63.5448 73.112 62.5995 73.112C61.6543 73.112 60.9494 72.786 60.4849 72.1341C60.0204 71.4741 59.7882 70.4514 59.7882 69.066C59.7882 67.6807 60.0449 66.6499 60.5582 65.9735C61.0716 65.2972 61.7806 64.959 62.6851 64.959ZM61.6094 71.3151C61.8458 71.7307 62.1839 71.9385 62.624 71.9385C63.064 71.9385 63.4022 71.7226 63.6385 71.2907C63.883 70.8588 64.0052 70.1091 64.0052 69.0416C64.0052 67.9659 63.8871 67.2162 63.6507 66.7925C63.4226 66.3688 63.0844 66.1569 62.6362 66.1569C62.188 66.1569 61.8458 66.3851 61.6094 66.8414C61.3813 67.2896 61.2672 68.0434 61.2672 69.1027C61.2672 70.1539 61.3813 70.8914 61.6094 71.3151ZM69.2265 64.959C71.0763 64.959 72.0012 66.2995 72.0012 68.9805C72.0012 70.4065 71.7608 71.4537 71.28 72.1219C70.7992 72.7819 70.0862 73.112 69.1409 73.112C68.1957 73.112 67.4908 72.786 67.0263 72.1341C66.5618 71.4741 66.3296 70.4514 66.3296 69.066C66.3296 67.6807 66.5863 66.6499 67.0996 65.9735C67.613 65.2972 68.322 64.959 69.2265 64.959ZM68.1508 71.3151C68.3872 71.7307 68.7253 71.9385 69.1654 71.9385C69.6054 71.9385 69.9436 71.7226 70.1799 71.2907C70.4244 70.8588 70.5466 70.1091 70.5466 69.0416C70.5466 67.9659 70.4285 67.2162 70.1921 66.7925C69.964 66.3688 69.6258 66.1569 69.1776 66.1569C68.7294 66.1569 68.3872 66.3851 68.1508 66.8414C67.9227 67.2896 67.8086 68.0434 67.8086 69.1027C67.8086 70.1539 67.9227 70.8914 68.1508 71.3151ZM75.7679 64.959C77.6177 64.959 78.5426 66.2995 78.5426 68.9805C78.5426 70.4065 78.3022 71.4537 77.8214 72.1219C77.3406 72.7819 76.6276 73.112 75.6823 73.112C74.7371 73.112 74.0322 72.786 73.5677 72.1341C73.1032 71.4741 72.871 70.4514 72.871 69.066C72.871 67.6807 73.1277 66.6499 73.641 65.9735C74.1544 65.2972 74.8634 64.959 75.7679 64.959ZM74.6923 71.3151C74.9286 71.7307 75.2667 71.9385 75.7068 71.9385C76.1468 71.9385 76.485 71.7226 76.7213 71.2907C76.9658 70.8588 77.088 70.1091 77.088 69.0416C77.088 67.9659 76.9699 67.2162 76.7336 66.7925C76.5054 66.3688 76.1672 66.1569 75.719 66.1569C75.2708 66.1569 74.9286 66.3851 74.6923 66.8414C74.4641 67.2896 74.35 68.0434 74.35 69.1027C74.35 70.1539 74.4641 70.8914 74.6923 71.3151ZM82.3093 64.959C84.1591 64.959 85.084 66.2995 85.084 68.9805C85.084 70.4065 84.8436 71.4537 84.3628 72.1219C83.882 72.7819 83.169 73.112 82.2237 73.112C81.2785 73.112 80.5736 72.786 80.1091 72.1341C79.6446 71.4741 79.4124 70.4514 79.4124 69.066C79.4124 67.6807 79.6691 66.6499 80.1824 65.9735C80.6958 65.2972 81.4048 64.959 82.3093 64.959ZM81.2337 71.3151C81.47 71.7307 81.8082 71.9385 82.2482 71.9385C82.6882 71.9385 83.0264 71.7226 83.2627 71.2907C83.5072 70.8588 83.6294 70.1091 83.6294 69.0416C83.6294 67.9659 83.5113 67.2162 83.275 66.7925C83.0468 66.3688 82.7086 66.1569 82.2604 66.1569C81.8122 66.1569 81.47 66.3851 81.2337 66.8414C81.0055 67.2896 80.8914 68.0434 80.8914 69.1027C80.8914 70.1539 81.0055 70.8914 81.2337 71.3151ZM91.2978 64.959C93.1476 64.959 94.0725 66.2995 94.0725 68.9805C94.0725 70.4065 93.8321 71.4537 93.3513 72.1219C92.8705 72.7819 92.1575 73.112 91.2122 73.112C90.2669 73.112 89.5621 72.786 89.0976 72.1341C88.6331 71.4741 88.4008 70.4514 88.4008 69.066C88.4008 67.6807 88.6575 66.6499 89.1709 65.9735C89.6843 65.2972 90.3932 64.959 91.2978 64.959ZM90.2221 71.3151C90.4584 71.7307 90.7966 71.9385 91.2367 71.9385C91.6767 71.9385 92.0149 71.7226 92.2512 71.2907C92.4957 70.8588 92.6179 70.1091 92.6179 69.0416C92.6179 67.9659 92.4997 67.2162 92.2634 66.7925C92.0353 66.3688 91.6971 66.1569 91.2489 66.1569C90.8007 66.1569 90.4584 66.3851 90.2221 66.8414C89.994 67.2896 89.8799 68.0434 89.8799 69.1027C89.8799 70.1539 89.994 70.8914 90.2221 71.3151ZM97.8392 64.959C99.689 64.959 100.614 66.2995 100.614 68.9805C100.614 70.4065 100.373 71.4537 99.8927 72.1219C99.4119 72.7819 98.6989 73.112 97.7536 73.112C96.8083 73.112 96.1035 72.786 95.639 72.1341C95.1745 71.4741 94.9422 70.4514 94.9422 69.066C94.9422 67.6807 95.1989 66.6499 95.7123 65.9735C96.2257 65.2972 96.9347 64.959 97.8392 64.959ZM96.7635 71.3151C96.9998 71.7307 97.338 71.9385 97.7781 71.9385C98.2181 71.9385 98.5563 71.7226 98.7926 71.2907C99.0371 70.8588 99.1593 70.1091 99.1593 69.0416C99.1593 67.9659 99.0411 67.2162 98.8048 66.7925C98.5767 66.3688 98.2385 66.1569 97.7903 66.1569C97.3421 66.1569 96.9998 66.3851 96.7635 66.8414C96.5354 67.2896 96.4213 68.0434 96.4213 69.1027C96.4213 70.1539 96.5354 70.8914 96.7635 71.3151ZM104.381 64.959C106.23 64.959 107.155 66.2995 107.155 68.9805C107.155 70.4065 106.915 71.4537 106.434 72.1219C105.953 72.7819 105.24 73.112 104.295 73.112C103.35 73.112 102.645 72.786 102.18 72.1341C101.716 71.4741 101.484 70.4514 101.484 69.066C101.484 67.6807 101.74 66.6499 102.254 65.9735C102.767 65.2972 103.476 64.959 104.381 64.959ZM103.305 71.3151C103.541 71.7307 103.879 71.9385 104.319 71.9385C104.76 71.9385 105.098 71.7226 105.334 71.2907C105.578 70.8588 105.701 70.1091 105.701 69.0416C105.701 67.9659 105.583 67.2162 105.346 66.7925C105.118 66.3688 104.78 66.1569 104.332 66.1569C103.884 66.1569 103.541 66.3851 103.305 66.8414C103.077 67.2896 102.963 68.0434 102.963 69.1027C102.963 70.1539 103.077 70.8914 103.305 71.3151ZM110.922 64.959C112.772 64.959 113.697 66.2995 113.697 68.9805C113.697 70.4065 113.456 71.4537 112.976 72.1219C112.495 72.7819 111.782 73.112 110.836 73.112C109.891 73.112 109.186 72.786 108.722 72.1341C108.257 71.4741 108.025 70.4514 108.025 69.066C108.025 67.6807 108.282 66.6499 108.795 65.9735C109.309 65.2972 110.017 64.959 110.922 64.959ZM109.846 71.3151C110.083 71.7307 110.421 71.9385 110.861 71.9385C111.301 71.9385 111.639 71.7226 111.875 71.2907C112.12 70.8588 112.242 70.1091 112.242 69.0416C112.242 67.9659 112.124 67.2162 111.888 66.7925C111.659 66.3688 111.321 66.1569 110.873 66.1569C110.425 66.1569 110.083 66.3851 109.846 66.8414C109.618 67.2896 109.504 68.0434 109.504 69.1027C109.504 70.1539 109.618 70.8914 109.846 71.3151Z" fill="white"/>
<path d="M7.62039 87.4307L9.25308 91.7717H9.27229L10.9146 87.4307H12.8162V88.2086L12.4993 88.2374C12.3072 88.2566 12.2143 88.3687 12.2207 88.5736L12.4608 92.9722L13.0563 93.001V93.8174H10.7417V93.0395L11.0875 93.0106C11.2603 92.9978 11.3436 92.9146 11.3372 92.7609L11.1547 89.3707H11.1355L9.65646 93.2027H8.74407L7.28425 89.4091H7.26504L7.07296 92.9722L7.69723 93.001V93.8174H5.43067V93.0395L5.77641 93.0106C5.92368 92.9978 6.00371 92.9114 6.01652 92.7513L6.27583 88.2854L5.68998 88.247V87.4307H7.62039ZM14.1606 92.7417V90.0814C14.1606 89.979 14.1414 89.9085 14.103 89.8701C14.071 89.8253 14.0101 89.7997 13.9205 89.7933L13.5171 89.7645V88.9865H15.1402V89.7068C15.2555 89.4571 15.4348 89.2523 15.6781 89.0922C15.9214 88.9257 16.1999 88.8425 16.5136 88.8425C16.8337 88.8425 17.1379 88.9129 17.426 89.0538V90.4848L16.5328 90.552V90.1102C16.5328 89.9822 16.5008 89.9021 16.4368 89.8701C16.3663 89.8381 16.2799 89.8221 16.1775 89.8221C15.9214 89.8221 15.7101 89.9149 15.5436 90.1006C15.3835 90.2799 15.3035 90.5104 15.3035 90.7921V93.0202L16.139 93.0587V93.8174H13.5652V93.0875L13.8821 93.0587C13.9781 93.0459 14.0486 93.0202 14.0934 92.9818C14.1382 92.937 14.1606 92.857 14.1606 92.7417ZM21.5376 88.5736L22.8245 92.444H22.8725L24.2171 88.2854L23.6313 88.247V87.4307H25.8402V88.2086L25.5233 88.2374C25.44 88.2438 25.3792 88.2694 25.3408 88.3143C25.3024 88.3527 25.264 88.4231 25.2255 88.5255L23.4104 93.8174H22.1618L20.2026 88.2758L19.6552 88.247V87.4307H22.133V88.2086L21.8161 88.2374C21.6176 88.2502 21.5184 88.3271 21.5184 88.4679C21.5184 88.4999 21.5248 88.5351 21.5376 88.5736ZM26.7939 92.6937V88.2758L26.2464 88.247V87.4307H28.5706V88.2086L28.2537 88.2374C28.068 88.2566 27.9752 88.3591 27.9752 88.5448V92.9722L28.5226 93.001V93.8174H26.1984V93.0395L26.5153 93.0106C26.6114 92.9978 26.6818 92.9722 26.7266 92.9338C26.7714 92.889 26.7939 92.809 26.7939 92.6937ZM29.1434 93.8174V93.0395L29.4603 93.0106C29.646 92.9914 29.7389 92.9018 29.7389 92.7417V88.2758L29.1914 88.247V87.4307H31.9382C32.6553 87.4307 33.2123 87.6004 33.6093 87.9397C34.0127 88.2726 34.2143 88.7752 34.2143 89.4475C34.2143 90.1198 33.987 90.6448 33.5325 91.0226C33.0779 91.394 32.476 91.5796 31.7269 91.5796H30.9105V92.9722L31.8325 93.001V93.8174H29.1434ZM30.9105 90.648H31.602C32.5368 90.648 33.0042 90.2671 33.0042 89.5052C33.0042 89.0442 32.8826 88.74 32.6393 88.5928C32.4024 88.4391 32.0214 88.3623 31.4964 88.3623H30.9105V90.648ZM40.611 88.4487C40.5406 88.3271 40.2781 88.2662 39.8235 88.2662C39.228 88.2662 38.7767 88.4679 38.4693 88.8713C38.162 89.2747 38.0083 89.8573 38.0083 90.6192C38.0083 92.2007 38.6006 92.9914 39.7851 92.9914C39.8043 92.9914 39.8875 92.9914 40.0348 92.9914C40.1884 92.9914 40.3325 92.9722 40.467 92.9338C40.6014 92.889 40.6815 92.8442 40.7071 92.7994C40.7327 92.7545 40.7455 92.6841 40.7455 92.5881V91.8197L41.7251 91.887V93.5485C41.2257 93.811 40.5918 93.9422 39.8235 93.9422C38.8439 93.9422 38.0948 93.6669 37.5761 93.1163C37.0639 92.5657 36.8078 91.7461 36.8078 90.6576C36.8078 90.0558 36.8943 89.5308 37.0671 89.0826C37.24 88.6344 37.4737 88.2854 37.7682 88.0357C38.3445 87.5555 39.0296 87.3154 39.8235 87.3154C40.4638 87.3154 41.0656 87.4467 41.6291 87.7092V89.3419L40.6494 89.4091V88.66C40.6494 88.564 40.6366 88.4935 40.611 88.4487ZM47.3643 93.0587V93.8174H45.8085V93.1931C45.4563 93.6925 44.9377 93.9422 44.2526 93.9422C43.2602 93.9422 42.764 93.3884 42.764 92.2807V90.0622C42.764 89.8893 42.684 89.7997 42.5239 89.7933L42.2166 89.7741V88.9865H43.9069V92.031C43.9069 92.3704 43.9549 92.6265 44.0509 92.7994C44.147 92.9722 44.3455 93.0587 44.6464 93.0587C44.9473 93.0587 45.1874 92.9658 45.3667 92.7801C45.5524 92.5945 45.6452 92.3704 45.6452 92.1079V90.0814C45.6452 89.979 45.626 89.9085 45.5876 89.8701C45.5556 89.8253 45.4947 89.7997 45.4051 89.7933L45.0978 89.7741V88.9865H46.7881V92.7513C46.7881 92.8538 46.8041 92.9242 46.8361 92.9626C46.8681 92.9946 46.9321 93.017 47.0282 93.0298L47.3643 93.0587ZM50.3709 89.7164C50.2173 89.6588 50.0316 89.63 49.8139 89.63C49.5962 89.63 49.4201 89.6812 49.2857 89.7837C49.1576 89.8797 49.0936 90.0014 49.0936 90.1486C49.0936 90.2895 49.116 90.4015 49.1608 90.4848C49.212 90.5616 49.2889 90.6288 49.3913 90.6865C49.5514 90.7697 49.7435 90.8433 49.9676 90.9074C50.1917 90.965 50.3581 91.013 50.467 91.0514C50.5758 91.0834 50.7103 91.1411 50.8703 91.2243C51.0368 91.3075 51.1617 91.3972 51.2449 91.4932C51.469 91.7301 51.581 92.0342 51.581 92.4056C51.581 92.8858 51.405 93.2635 51.0528 93.5389C50.7071 93.8078 50.2653 93.9422 49.7275 93.9422C48.9463 93.9422 48.3573 93.843 47.9603 93.6445V92.3095L48.8247 92.2423V92.7033C48.8247 92.985 49.0936 93.1259 49.6314 93.1259C50.1692 93.1259 50.4382 92.9306 50.4382 92.54C50.4382 92.3992 50.3901 92.2839 50.2941 92.1943C50.2045 92.1047 50.1148 92.0438 50.0252 92.0118C49.9355 91.9798 49.8267 91.9478 49.6986 91.9158C49.577 91.8838 49.4553 91.8518 49.3337 91.8197C49.2184 91.7877 49.0904 91.7461 48.9495 91.6949C48.8151 91.6373 48.6646 91.5572 48.4981 91.4548C48.1716 91.2435 48.0083 90.8913 48.0083 90.3983C48.0083 89.8989 48.1844 89.5148 48.5366 89.2458C48.8887 88.9769 49.3305 88.8425 49.8619 88.8425C50.3997 88.8425 50.9312 88.9705 51.4562 89.2266V90.3791L50.5918 90.4464V90.043C50.5918 89.8829 50.5182 89.7741 50.3709 89.7164ZM53.16 87.9685H53.7843V88.9865H55.0616L54.9656 89.7933H53.7843V92.3191C53.7843 92.6009 53.8355 92.7994 53.9379 92.9146C54.0404 93.0234 54.1972 93.0779 54.4085 93.0779C54.6262 93.0779 54.8439 93.0106 55.0616 92.8762L55.3497 93.6157C55.0296 93.8398 54.623 93.9518 54.13 93.9518C53.8419 93.9518 53.5986 93.9134 53.4001 93.8366C53.2016 93.7662 53.0544 93.6861 52.9583 93.5965C52.8623 93.5069 52.7887 93.3756 52.7374 93.2027C52.6862 93.0298 52.6574 92.8954 52.651 92.7994C52.6446 92.6969 52.6414 92.5496 52.6414 92.3576V89.7933H51.9595L52.0555 89.0922C52.3565 89.0666 52.5838 88.9609 52.7374 88.7752C52.8911 88.5832 53.032 88.3143 53.16 87.9685ZM57.7356 93.1163C58.4335 93.1163 58.7824 92.5528 58.7824 91.426C58.7824 90.8561 58.7024 90.4239 58.5423 90.1294C58.3887 89.8349 58.1262 89.6876 57.7548 89.6876C57.3899 89.6876 57.1209 89.8285 56.9481 90.1102C56.7752 90.3919 56.6888 90.7761 56.6888 91.2627C56.6888 92.1655 56.8552 92.7321 57.1882 92.9626C57.3354 93.0651 57.5179 93.1163 57.7356 93.1163ZM55.5267 91.3972C55.5267 90.9234 55.5971 90.5136 55.738 90.1678C55.8788 89.8157 56.0677 89.5468 56.3046 89.3611C56.7592 89.0154 57.2618 88.8425 57.8124 88.8425C58.1966 88.8425 58.5199 88.9065 58.7824 89.0346C59.0514 89.1562 59.2594 89.3003 59.4067 89.4667C59.5604 89.6268 59.6884 89.8637 59.7909 90.1774C59.8997 90.4848 59.9541 90.8497 59.9541 91.2723C59.9541 92.1559 59.7396 92.825 59.3107 93.2796C58.8817 93.7341 58.331 93.9614 57.6588 93.9614C56.9929 93.9614 56.4711 93.747 56.0933 93.318C55.7155 92.8826 55.5267 92.2423 55.5267 91.3972ZM60.5431 89.7645V88.9865H62.1661V89.6108C62.5247 89.0986 63.0145 88.8425 63.6356 88.8425C64.263 88.8425 64.6856 89.0986 64.9033 89.6108C65.2619 89.0986 65.7485 88.8425 66.3631 88.8425C66.8241 88.8425 67.1795 88.9833 67.4292 89.2651C67.6789 89.5404 67.8037 89.9565 67.8037 90.5136V93.0202L68.3512 93.0491V93.8174H66.0654V93.0875L66.3823 93.0587C66.4784 93.0459 66.5456 93.0202 66.584 92.9818C66.6288 92.937 66.6544 92.8602 66.6608 92.7513V90.7633C66.6608 90.4111 66.6192 90.1518 66.536 89.9854C66.4592 89.8125 66.2735 89.7261 65.979 89.7261C65.6844 89.7261 65.4571 89.8157 65.2971 89.995C65.1434 90.1742 65.0666 90.4143 65.0666 90.7153V93.0202L65.5948 93.0491V93.8174H63.3282V93.0875L63.6452 93.0587C63.7412 93.0459 63.8116 93.0202 63.8565 92.9818C63.9013 92.937 63.9237 92.857 63.9237 92.7417V90.7633C63.9237 90.4111 63.8821 90.1518 63.7988 89.9854C63.722 89.8125 63.5331 89.7261 63.2322 89.7261C62.9377 89.7261 62.7136 89.8189 62.5599 90.0046C62.4062 90.1902 62.3294 90.4207 62.3294 90.6961V93.0202L62.848 93.0491V93.8174H60.5815V93.0875L60.8984 93.0587C60.9944 93.0459 61.0649 93.0202 61.1097 92.9818C61.1545 92.937 61.1769 92.857 61.1769 92.7417H61.1865V90.091C61.1865 89.9822 61.1673 89.9085 61.1289 89.8701C61.0969 89.8253 61.0361 89.7997 60.9464 89.7933L60.5431 89.7645ZM71.3304 88.8425C71.8107 88.8425 72.1916 88.9609 72.4733 89.1978C72.7551 89.4283 72.8959 89.7549 72.8959 90.1774C72.8959 90.4592 72.8351 90.7089 72.7134 90.9266C72.5918 91.1378 72.4413 91.3043 72.262 91.426C72.0828 91.5476 71.8651 91.6469 71.609 91.7237C71.18 91.8518 70.6966 91.9158 70.1588 91.9158C70.178 92.2551 70.2836 92.5304 70.4757 92.7417C70.6678 92.9466 70.9623 93.0491 71.3593 93.0491C71.7562 93.0491 72.1532 92.9082 72.5502 92.6265L72.9151 93.4044C72.7871 93.5197 72.5694 93.6381 72.262 93.7598C71.9611 93.8814 71.6154 93.9422 71.2248 93.9422C70.4437 93.9422 69.8706 93.7277 69.5057 93.2988C69.1407 92.8634 68.9582 92.2679 68.9582 91.5124C68.9582 90.7569 69.1663 90.123 69.5825 89.6108C69.9987 89.0986 70.5813 88.8425 71.3304 88.8425ZM70.8887 91.0418C71.1256 90.997 71.3433 90.9042 71.5417 90.7633C71.7402 90.616 71.8395 90.4432 71.8395 90.2447C71.8395 89.8541 71.6474 89.6588 71.2632 89.6588C70.9047 89.6588 70.6294 89.8029 70.4373 90.091C70.2452 90.3727 70.1395 90.7121 70.1203 91.109C70.4021 91.1026 70.6582 91.0802 70.8887 91.0418ZM74.1672 92.7417V90.0814C74.1672 89.979 74.148 89.9085 74.1096 89.8701C74.0776 89.8253 74.0168 89.7997 73.9271 89.7933L73.5238 89.7645V88.9865H75.1469V89.7068C75.2621 89.4571 75.4414 89.2523 75.6847 89.0922C75.928 88.9257 76.2065 88.8425 76.5202 88.8425C76.8404 88.8425 77.1445 88.9129 77.4326 89.0538V90.4848L76.5394 90.552V90.1102C76.5394 89.9822 76.5074 89.9021 76.4434 89.8701C76.373 89.8381 76.2865 89.8221 76.1841 89.8221C75.928 89.8221 75.7167 89.9149 75.5502 90.1006C75.3902 90.2799 75.3101 90.5104 75.3101 90.7921V93.0202L76.1457 93.0587V93.8174H73.5718V93.0875L73.8887 93.0587C73.9848 93.0459 74.0552 93.0202 74.1 92.9818C74.1448 92.937 74.1672 92.857 74.1672 92.7417Z" fill="white"/>
<path d="M5.61314 11.4712H8.32149C9.70448 11.4712 10.396 12.0058 10.396 13.0751C10.396 13.6641 10.1014 14.1123 9.51239 14.4197C9.89015 14.5157 10.1847 14.6918 10.396 14.9479C10.6137 15.204 10.7225 15.5369 10.7225 15.9467C10.7225 16.5678 10.5112 17.0416 10.0886 17.3681C9.67246 17.6946 9.06421 17.8579 8.26387 17.8579H5.56512V17.08L5.88206 17.0512C6.06774 17.032 6.16058 16.9423 6.16058 16.7823V12.3164L5.61314 12.2876V11.4712ZM7.33227 14.9479V16.9551H8.23505C9.06741 16.9551 9.48358 16.6158 9.48358 15.9371C9.48358 15.617 9.37794 15.3737 9.16665 15.2072C8.96176 15.0343 8.66724 14.9479 8.28307 14.9479H7.33227ZM7.33227 12.3548V14.0931H8.04297C8.43994 14.0931 8.73126 14.0131 8.91694 13.853C9.10902 13.6865 9.20506 13.456 9.20506 13.1615C9.20506 12.867 9.10902 12.6589 8.91694 12.5373C8.73126 12.4156 8.46235 12.3548 8.1102 12.3548H7.33227ZM15.6452 13.2191V16.7919C15.6452 16.8943 15.6612 16.9647 15.6932 17.0031C15.7316 17.0416 15.7957 17.064 15.8853 17.0704L16.1926 17.0896V17.8579H14.6656V17.3009L14.6368 17.2913C14.3166 17.7523 13.878 17.9828 13.321 17.9828C12.6679 17.9828 12.1845 17.7747 11.8708 17.3585C11.5571 16.9423 11.4002 16.3725 11.4002 15.649C11.4002 14.7782 11.6115 14.0995 12.0341 13.6129C12.4566 13.1263 13.0905 12.883 13.9357 12.883C14.4799 12.883 15.0497 12.9951 15.6452 13.2191ZM14.5311 16.3309V13.8434C14.3518 13.7602 14.1053 13.7186 13.7916 13.7186C13.3626 13.7186 13.0521 13.8914 12.86 14.2372C12.6679 14.5829 12.5719 15.0407 12.5719 15.6106C12.5719 16.6478 12.9048 17.1664 13.5707 17.1664C13.8524 17.1664 14.0829 17.0832 14.2622 16.9167C14.4415 16.7438 14.5311 16.5486 14.5311 16.3309ZM16.7245 13.7954V13.0271H18.3476V13.6513C18.5141 13.4144 18.735 13.2288 19.0103 13.0943C19.2856 12.9534 19.5833 12.883 19.9035 12.883C20.3901 12.883 20.7646 13.0239 21.0271 13.3056C21.2961 13.5809 21.4305 13.9971 21.4305 14.5541V17.0608L21.9779 17.0896V17.8579H19.6922V17.128L20.0091 17.0992C20.1052 17.0864 20.1756 17.0608 20.2204 17.0224C20.2652 16.9775 20.2876 16.8975 20.2876 16.7823V14.8038C20.2876 14.4517 20.2332 14.1924 20.1244 14.0259C20.0155 13.853 19.8074 13.7666 19.5001 13.7666C19.1992 13.7666 18.9591 13.8626 18.7798 14.0547C18.6005 14.2468 18.5109 14.4741 18.5109 14.7366V17.0608L19.0583 17.0896V17.8579H16.7725V17.128L17.0895 17.0992C17.1855 17.0864 17.2559 17.0608 17.3008 17.0224C17.3456 16.9775 17.368 16.8975 17.368 16.7823V14.1219C17.368 13.9298 17.288 13.8306 17.1279 13.8242L16.7245 13.7954ZM23.1363 16.7823V12.1051C23.1363 12.0026 23.1171 11.9322 23.0787 11.8938C23.0466 11.8554 22.9858 11.833 22.8962 11.8266L22.56 11.8073V11.0102H24.2696V15.1688C24.6217 15.1368 24.929 15.0279 25.1916 14.8422C25.4541 14.6566 25.6333 14.4133 25.7294 14.1123C25.7486 14.0483 25.7582 13.9971 25.7582 13.9587C25.7582 13.8498 25.6974 13.7954 25.5757 13.7954L25.2108 13.7762V13.0271H27.1988V13.805L26.7378 13.8242C26.6546 14.4773 26.3729 14.9927 25.8926 15.3705L26.8338 17.0608L27.4197 17.0896V17.8579H26.0175L24.9226 15.8603C24.7113 15.9179 24.4937 15.9627 24.2696 15.9947V17.0608H24.2792L24.8266 17.0896V17.8579H22.5408V17.128L22.8578 17.0992C22.9538 17.0864 23.0242 17.0608 23.0691 17.0224C23.1139 16.9775 23.1363 16.8975 23.1363 16.7823ZM32.0091 17.1568C32.707 17.1568 33.0559 16.5934 33.0559 15.4665C33.0559 14.8967 32.9759 14.4645 32.8158 14.1699C32.6622 13.8754 32.3997 13.7282 32.0283 13.7282C31.6633 13.7282 31.3944 13.869 31.2216 14.1507C31.0487 14.4325 30.9622 14.8166 30.9622 15.3032C30.9622 16.206 31.1287 16.7727 31.4617 17.0031C31.6089 17.1056 31.7914 17.1568 32.0091 17.1568ZM29.8002 15.4377C29.8002 14.9639 29.8706 14.5541 30.0114 14.2084C30.1523 13.8562 30.3412 13.5873 30.5781 13.4016C31.0327 13.0559 31.5353 12.883 32.0859 12.883C32.4701 12.883 32.7934 12.947 33.0559 13.0751C33.3248 13.1967 33.5329 13.3408 33.6802 13.5073C33.8339 13.6673 33.9619 13.9042 34.0644 14.218C34.1732 14.5253 34.2276 14.8903 34.2276 15.3128C34.2276 16.1964 34.0131 16.8655 33.5842 17.3201C33.1552 17.7747 32.6045 18.002 31.9323 18.002C31.2664 18.002 30.7446 17.7875 30.3668 17.3585C29.989 16.9231 29.8002 16.2828 29.8002 15.4377ZM35.4792 16.7823V13.8338H34.6533V13.0271H35.4792V12.6621C35.4792 12.0346 35.6233 11.5833 35.9114 11.3079C36.1803 11.0454 36.5741 10.9142 37.0927 10.9142C37.6113 10.9142 38.0723 11.0262 38.4757 11.2503L38.1972 12.0186C37.8898 11.8586 37.6017 11.7785 37.3328 11.7785C37.0639 11.7785 36.8782 11.8458 36.7758 11.9802C36.6733 12.1083 36.6221 12.3068 36.6221 12.5757V13.0271H38.0435V13.8338H36.6221V17.0512L37.4289 17.0896V17.8579H34.8838V17.128L35.2007 17.0992C35.2968 17.0864 35.3672 17.0608 35.412 17.0224C35.4568 16.9775 35.4792 16.8975 35.4792 16.7823ZM44.2219 12.4892C44.1515 12.3676 43.889 12.3068 43.4344 12.3068C42.8389 12.3068 42.3876 12.5084 42.0802 12.9118C41.7729 13.3152 41.6192 13.8978 41.6192 14.6598C41.6192 16.2412 42.2115 17.032 43.396 17.032C43.4152 17.032 43.4984 17.032 43.6457 17.032C43.7994 17.032 43.9434 17.0128 44.0779 16.9743C44.2123 16.9295 44.2924 16.8847 44.318 16.8399C44.3436 16.7951 44.3564 16.7246 44.3564 16.6286V15.8603L45.336 15.9275V17.589C44.8366 17.8515 44.2027 17.9828 43.4344 17.9828C42.4548 17.9828 41.7057 17.7074 41.187 17.1568C40.6748 16.6062 40.4187 15.7866 40.4187 14.6982C40.4187 14.0963 40.5052 13.5713 40.678 13.1231C40.8509 12.6749 41.0846 12.326 41.3791 12.0763C41.9554 11.5961 42.6405 11.356 43.4344 11.356C44.0747 11.356 44.6765 11.4872 45.24 11.7497V13.3824L44.2603 13.4496V12.7005C44.2603 12.6045 44.2475 12.5341 44.2219 12.4892ZM47.8481 11.0102V17.0608L48.3955 17.0896V17.8579H46.1097V17.128L46.4267 17.0992C46.6123 17.08 46.7052 16.9775 46.7052 16.7919V12.0571C46.7052 11.9162 46.6251 11.8394 46.4651 11.8266L46.1289 11.8073V11.0102H47.8481ZM51.4001 12.883C51.8803 12.883 52.2613 13.0015 52.543 13.2384C52.8247 13.4689 52.9656 13.7954 52.9656 14.218C52.9656 14.4997 52.9048 14.7494 52.7831 14.9671C52.6615 15.1784 52.511 15.3448 52.3317 15.4665C52.1525 15.5881 51.9348 15.6874 51.6787 15.7642C51.2497 15.8923 50.7663 15.9563 50.2284 15.9563C50.2477 16.2956 50.3533 16.571 50.5454 16.7823C50.7375 16.9871 51.032 17.0896 51.429 17.0896C51.8259 17.0896 52.2229 16.9487 52.6199 16.667L52.9848 17.4449C52.8568 17.5602 52.6391 17.6786 52.3317 17.8003C52.0308 17.9219 51.6851 17.9828 51.2945 17.9828C50.5134 17.9828 49.9403 17.7683 49.5754 17.3393C49.2104 16.9039 49.0279 16.3085 49.0279 15.5529C49.0279 14.7974 49.236 14.1635 49.6522 13.6513C50.0684 13.1391 50.651 12.883 51.4001 12.883ZM50.9584 15.0823C51.1953 15.0375 51.4129 14.9447 51.6114 14.8038C51.8099 14.6566 51.9092 14.4837 51.9092 14.2852C51.9092 13.8946 51.7171 13.6994 51.3329 13.6994C50.9744 13.6994 50.699 13.8434 50.507 14.1315C50.3149 14.4133 50.2092 14.7526 50.19 15.1496C50.4717 15.1432 50.7279 15.1208 50.9584 15.0823ZM57.9537 13.2191V16.7919C57.9537 16.8943 57.9697 16.9647 58.0017 17.0031C58.0401 17.0416 58.1042 17.064 58.1938 17.0704L58.5011 17.0896V17.8579H56.9741V17.3009L56.9453 17.2913C56.6252 17.7523 56.1866 17.9828 55.6295 17.9828C54.9765 17.9828 54.493 17.7747 54.1793 17.3585C53.8656 16.9423 53.7087 16.3725 53.7087 15.649C53.7087 14.7782 53.92 14.0995 54.3426 13.6129C54.7652 13.1263 55.399 12.883 56.2442 12.883C56.7884 12.883 57.3583 12.9951 57.9537 13.2191ZM56.8396 16.3309V13.8434C56.6604 13.7602 56.4139 13.7186 56.1001 13.7186C55.6711 13.7186 55.3606 13.8914 55.1685 14.2372C54.9765 14.5829 54.8804 15.0407 54.8804 15.6106C54.8804 16.6478 55.2134 17.1664 55.8792 17.1664C56.161 17.1664 56.3915 17.0832 56.5707 16.9167C56.75 16.7438 56.8396 16.5486 56.8396 16.3309ZM59.6861 16.7823V14.1219C59.6861 14.0195 59.6669 13.9491 59.6285 13.9106C59.5965 13.8658 59.5357 13.8402 59.446 13.8338L59.0426 13.805V13.0271H60.6657V13.7474C60.781 13.4977 60.9603 13.2928 61.2036 13.1327C61.4469 12.9662 61.7254 12.883 62.0391 12.883C62.3593 12.883 62.6634 12.9534 62.9515 13.0943V14.5253L62.0583 14.5925V14.1507C62.0583 14.0227 62.0263 13.9427 61.9623 13.9106C61.8919 13.8786 61.8054 13.8626 61.703 13.8626C61.4469 13.8626 61.2356 13.9555 61.0691 14.1411C60.909 14.3204 60.829 14.5509 60.829 14.8326V17.0608L61.6646 17.0992V17.8579H59.0907V17.128L59.4076 17.0992C59.5036 17.0864 59.5741 17.0608 59.6189 17.0224C59.6637 16.9775 59.6861 16.8975 59.6861 16.7823ZM65.4592 17.8579V17.08L65.7761 17.0512C65.9618 17.032 66.0547 16.9423 66.0547 16.7823V12.3164L65.5072 12.2876V11.4712H68.1387C69.0799 11.4712 69.8131 11.7209 70.3381 12.2203C70.8695 12.7197 71.1352 13.4592 71.1352 14.4389C71.1352 15.0471 71.0552 15.5785 70.8951 16.0331C70.735 16.4813 70.5174 16.8335 70.242 17.0896C69.6914 17.6018 69.0063 17.8579 68.1868 17.8579H65.4592ZM67.2264 12.4028V16.9359H68.206C68.7566 16.9359 69.1856 16.7374 69.4929 16.3405C69.8003 15.9435 69.9539 15.3673 69.9539 14.6117C69.9539 13.1391 69.3297 12.4028 68.0811 12.4028H67.2264ZM72.4321 16.7823V14.1219C72.4321 14.0195 72.4129 13.9491 72.3745 13.9106C72.3425 13.8658 72.2817 13.8402 72.192 13.8338L71.7887 13.805V13.0271H73.4118V13.7474C73.527 13.4977 73.7063 13.2928 73.9496 13.1327C74.1929 12.9662 74.4714 12.883 74.7851 12.883C75.1053 12.883 75.4094 12.9534 75.6975 13.0943V14.5253L74.8043 14.5925V14.1507C74.8043 14.0227 74.7723 13.9427 74.7083 13.9106C74.6379 13.8786 74.5514 13.8626 74.449 13.8626C74.1929 13.8626 73.9816 13.9555 73.8151 14.1411C73.6551 14.3204 73.575 14.5509 73.575 14.8326V17.0608L74.4106 17.0992V17.8579H71.8367V17.128L72.1536 17.0992C72.2497 17.0864 72.3201 17.0608 72.3649 17.0224C72.4097 16.9775 72.4321 16.8975 72.4321 16.7823ZM78.0113 13.0271V17.0608L78.5587 17.0896V17.8579H76.2729V17.128L76.5899 17.0992C76.7755 17.08 76.8684 16.9775 76.8684 16.7919V14.1219C76.8684 14.0131 76.8492 13.9395 76.8108 13.901C76.7787 13.8626 76.7179 13.8434 76.6283 13.8434L76.2921 13.8242V13.0271H78.0113ZM76.8012 12.2011C76.6667 12.0667 76.5995 11.897 76.5995 11.6921C76.5995 11.4872 76.6667 11.3175 76.8012 11.1831C76.9356 11.0422 77.1117 10.9718 77.3294 10.9718C77.5471 10.9718 77.7231 11.0422 77.8576 11.1831C77.9985 11.3175 78.0689 11.4872 78.0689 11.6921C78.0689 11.897 77.9985 12.0667 77.8576 12.2011C77.7231 12.3292 77.5471 12.3932 77.3294 12.3932C77.1117 12.3932 76.9356 12.3292 76.8012 12.2011ZM79.6526 18.7703V14.1219C79.6526 14.0131 79.6334 13.9395 79.595 13.901C79.563 13.8562 79.5021 13.8338 79.4125 13.8338L79.0091 13.805V13.0271H80.6322V13.6513C80.7346 13.4592 80.9203 13.2832 81.1892 13.1231C81.4582 12.963 81.7783 12.883 82.1496 12.883C83.3085 12.883 83.888 13.6961 83.888 15.3224C83.888 16.1868 83.6991 16.8495 83.3213 17.3105C82.9436 17.7715 82.4314 18.002 81.7847 18.002C81.4005 18.002 81.058 17.9091 80.7571 17.7235V19.0488L81.535 19.0872V19.846H79.0571V19.116L79.3741 19.0872C79.4701 19.0744 79.5405 19.0456 79.5854 19.0008C79.6302 18.9624 79.6526 18.8855 79.6526 18.7703ZM82.6971 15.4185C82.6971 14.3492 82.3737 13.8146 81.7271 13.8146C81.4582 13.8146 81.2277 13.8978 81.0356 14.0643C80.8499 14.2244 80.7571 14.4165 80.7571 14.6405V16.8495C81.0004 17.0096 81.2949 17.0896 81.6406 17.0896C81.9928 17.0896 82.2553 16.9295 82.4282 16.6094C82.6074 16.2892 82.6971 15.8923 82.6971 15.4185Z" fill="black"/>
<path d="M164.579 9.604C170.261 16.8394 169.518 20.3725 164.579 26.1928" stroke="black" stroke-width="1.74619" stroke-linecap="round"/>
<path d="M161.523 11.3503C165.71 16.6817 165.162 19.285 161.523 23.5737" stroke="black" stroke-width="1.52792" stroke-linecap="round"/>
<path d="M158.904 13.0964C161.894 16.9045 161.503 18.7641 158.904 21.8274" stroke="black" stroke-width="1.45516" stroke-linecap="round"/>
<path d="M157.157 14.8425C158.952 17.1274 158.717 18.2431 157.157 20.0811" stroke="black" stroke-width="1.33636" stroke-linecap="round"/>
<rect x="12.6599" y="30.1219" width="21.8274" height="21.8274" rx="1.30964" fill="#A5A5A5" stroke="black" stroke-width="0.873097"/>
<rect x="21.3909" y="30.1219" width="5.23858" height="21.8274" stroke="black" stroke-width="0.873097"/>
<rect x="12.6599" y="35.3604" width="8.73097" height="3.49239" fill="#A5A5A5" stroke="black" stroke-width="0.873097"/>
<rect x="26.6294" y="41.4722" width="7.85787" height="4.36548" fill="#A5A5A5" stroke="black" stroke-width="0.873097"/>
</svg>
