<svg width="181" height="160" viewBox="0 0 181 160" fill="none" xmlns="http://www.w3.org/2000/svg">
<rect x="27.0002" y="8.72222" width="133.014" height="133.014" rx="6.54167" fill="white" stroke="black" stroke-width="2.18056"/>
<mask id="path-2-inside-1_216_483" fill="white">
<path d="M28.0905 15.2639C28.0905 12.2532 30.5311 9.8125 33.5418 9.8125H153.472C156.483 9.8125 158.924 12.2532 158.924 15.2639V26.1667H28.0905V15.2639Z"/>
</mask>
<path d="M28.0905 15.2639C28.0905 12.2532 30.5311 9.8125 33.5418 9.8125H153.472C156.483 9.8125 158.924 12.2532 158.924 15.2639V26.1667H28.0905V15.2639Z" fill="#0F70BD"/>
<path d="M28.0905 9.8125H158.924H28.0905ZM158.924 28.3472H28.0905V23.9861H158.924V28.3472ZM28.0905 26.1667V9.8125V26.1667ZM158.924 9.8125V26.1667V9.8125Z" fill="black" mask="url(#path-2-inside-1_216_483)"/>
<mask id="path-4-inside-2_216_483" fill="white">
<path d="M28.0905 131.924H158.924V135.194C158.924 138.205 156.483 140.646 153.472 140.646H33.5418C30.5311 140.646 28.0905 138.205 28.0905 135.194V131.924Z"/>
</mask>
<path d="M28.0905 131.924H158.924V135.194C158.924 138.205 156.483 140.646 153.472 140.646H33.5418C30.5311 140.646 28.0905 138.205 28.0905 135.194V131.924Z" fill="#37AFEB"/>
<path d="M28.0905 129.743H158.924V134.104H28.0905V129.743ZM158.924 140.646H28.0905H158.924ZM28.0905 140.646V131.924V140.646ZM158.924 131.924V140.646V131.924Z" fill="black" mask="url(#path-4-inside-2_216_483)"/>
<line x1="139.299" y1="3.27083" x2="139.299" y2="13.0833" stroke="black" stroke-width="6.54167" stroke-linecap="round"/>
<line x1="47.7154" y1="3.27083" x2="47.7154" y2="13.0833" stroke="black" stroke-width="6.54167" stroke-linecap="round"/>
<path d="M48.1981 67.0122H50.9103L55.4457 79.5018L59.9698 67.0122H62.6933L56.5283 83.6042H54.3517L48.1981 67.0122ZM46.8306 67.0122H49.4858L49.9644 78.4876V83.6042H46.8306V67.0122ZM61.3942 67.0122H64.0608V83.6042H60.927V78.4876L61.3942 67.0122ZM80.687 74.8866V75.7413C80.687 76.9948 80.5199 78.123 80.1856 79.1258C79.8513 80.121 79.3765 80.9681 78.7612 81.667C78.1458 82.3659 77.4127 82.9015 76.5618 83.2738C75.7109 83.646 74.7651 83.8322 73.7243 83.8322C72.6987 83.8322 71.7566 83.646 70.8982 83.2738C70.0473 82.9015 69.3104 82.3659 68.6874 81.667C68.0645 80.9681 67.5821 80.121 67.2402 79.1258C66.8983 78.123 66.7274 76.9948 66.7274 75.7413V74.8866C66.7274 73.6255 66.8983 72.4973 67.2402 71.5021C67.5821 70.5069 68.0607 69.6598 68.676 68.9609C69.2914 68.2544 70.0245 67.715 70.8754 67.3427C71.7339 66.9705 72.6759 66.7843 73.7015 66.7843C74.7423 66.7843 75.6881 66.9705 76.539 67.3427C77.3899 67.715 78.123 68.2544 78.7384 68.9609C79.3613 69.6598 79.8399 70.5069 80.1742 71.5021C80.5161 72.4973 80.687 73.6255 80.687 74.8866ZM77.519 75.7413V74.8638C77.519 73.9598 77.4355 73.1659 77.2683 72.4821C77.1012 71.7908 76.8543 71.2096 76.5276 70.7386C76.2009 70.2676 75.7983 69.9143 75.3197 69.6788C74.8411 69.4357 74.3017 69.3141 73.7015 69.3141C73.0937 69.3141 72.5543 69.4357 72.0833 69.6788C71.6199 69.9143 71.2249 70.2676 70.8982 70.7386C70.5715 71.2096 70.3208 71.7908 70.1461 72.4821C69.9789 73.1659 69.8954 73.9598 69.8954 74.8638V75.7413C69.8954 76.6377 69.9789 77.4316 70.1461 78.123C70.3208 78.8143 70.5715 79.3993 70.8982 79.8779C71.2325 80.3489 71.6351 80.706 72.1061 80.9491C72.5771 81.1922 73.1165 81.3137 73.7243 81.3137C74.3321 81.3137 74.8714 81.1922 75.3425 80.9491C75.8135 80.706 76.2085 80.3489 76.5276 79.8779C76.8543 79.3993 77.1012 78.8143 77.2683 78.123C77.4355 77.4316 77.519 76.6377 77.519 75.7413ZM96.6751 67.0122V83.6042H93.5299L86.476 72.0947V83.6042H83.3422V67.0122H86.476L93.5527 78.5332V67.0122H96.6751ZM104.823 83.6042H101.245L101.267 81.1428H104.823C105.788 81.1428 106.597 80.9301 107.25 80.5046C107.904 80.0716 108.397 79.4524 108.732 78.6472C109.066 77.8343 109.233 76.8618 109.233 75.7299V74.8752C109.233 74.0015 109.138 73.2304 108.948 72.5619C108.758 71.8934 108.477 71.3312 108.105 70.8753C107.74 70.4195 107.288 70.0739 106.749 69.8383C106.209 69.6028 105.59 69.4851 104.891 69.4851H101.176V67.0122H104.891C106 67.0122 107.011 67.1984 107.923 67.5706C108.842 67.9429 109.636 68.4785 110.304 69.1774C110.98 69.8687 111.497 70.6968 111.854 71.6616C112.219 72.6265 112.401 73.7053 112.401 74.898V75.7299C112.401 76.915 112.219 77.9938 111.854 78.9662C111.497 79.9311 110.98 80.7591 110.304 81.4505C109.636 82.1418 108.838 82.6736 107.911 83.0459C106.984 83.4181 105.955 83.6042 104.823 83.6042ZM103 67.0122V83.6042H99.8658V67.0122H103ZM121.415 69.5307L116.686 83.6042H113.37L119.569 67.0122H121.688L121.415 69.5307ZM125.369 83.6042L120.617 69.5307L120.332 67.0122H122.463L128.697 83.6042H125.369ZM125.153 77.4392V79.9121H116.253V77.4392H125.153ZM130.93 67.0122L134.577 74.7499L138.246 67.0122H141.688L136.172 77.5304V83.6042H132.993V77.5304L127.466 67.0122H130.93Z" fill="#0F70BD"/>
<circle cx="27.5453" cy="132.469" r="25.6215" fill="white" stroke="black" stroke-width="2.18056"/>
<line x1="27.5453" y1="116.115" x2="27.5453" y2="130.288" stroke="black" stroke-width="3.27083" stroke-linecap="round"/>
<line x1="39.5383" y1="133.559" x2="27.5452" y2="133.559" stroke="black" stroke-width="3.27083" stroke-linecap="round"/>
<circle cx="27.5453" cy="132.469" r="2.45312" fill="#37AFEB" stroke="black" stroke-width="0.545139"/>
<mask id="path-13-outside-3_216_483" maskUnits="userSpaceOnUse" x="137.389" y="92.9443" width="44" height="66" fill="black">
<rect fill="white" x="137.389" y="92.9443" width="44" height="66"/>
<path fill-rule="evenodd" clip-rule="evenodd" d="M174.018 125.237C176.184 122.204 177.458 118.49 177.458 114.479C177.458 104.243 169.16 95.9443 158.924 95.9443C148.687 95.9443 140.389 104.243 140.389 114.479C140.389 118.49 141.663 122.204 143.829 125.237L158.924 152.758L174.018 125.237Z"/>
</mask>
<path fill-rule="evenodd" clip-rule="evenodd" d="M174.018 125.237C176.184 122.204 177.458 118.49 177.458 114.479C177.458 104.243 169.16 95.9443 158.924 95.9443C148.687 95.9443 140.389 104.243 140.389 114.479C140.389 118.49 141.663 122.204 143.829 125.237L158.924 152.758L174.018 125.237Z" fill="#0F70BD"/>
<path d="M174.018 125.237L171.605 123.514L171.503 123.657L171.418 123.811L174.018 125.237ZM143.829 125.237L146.429 123.811L146.345 123.657L146.243 123.514L143.829 125.237ZM158.924 152.758L156.324 154.184L158.924 158.925L161.524 154.184L158.924 152.758ZM174.493 114.479C174.493 117.852 173.424 120.967 171.605 123.514L176.432 126.961C178.945 123.441 180.424 119.128 180.424 114.479H174.493ZM158.924 98.9099C167.522 98.9099 174.493 105.88 174.493 114.479H180.424C180.424 102.605 170.798 92.9788 158.924 92.9788V98.9099ZM143.355 114.479C143.355 105.88 150.325 98.9099 158.924 98.9099V92.9788C147.049 92.9788 137.423 102.605 137.423 114.479H143.355ZM146.243 123.514C144.424 120.967 143.355 117.852 143.355 114.479H137.423C137.423 119.128 138.903 123.441 141.415 126.96L146.243 123.514ZM141.229 126.663L156.324 154.184L161.524 151.332L146.429 123.811L141.229 126.663ZM161.524 154.184L176.619 126.663L171.418 123.811L156.324 151.332L161.524 154.184Z" fill="black" mask="url(#path-13-outside-3_216_483)"/>
<circle cx="158.924" cy="112.996" r="6.6725" fill="#37AFEB" stroke="black" stroke-width="2.96556"/>
</svg>
