<svg width="95" height="194" viewBox="0 0 95 194" fill="none" xmlns="http://www.w3.org/2000/svg">
<mask id="path-1-inside-1_329_410" fill="white">
<path fill-rule="evenodd" clip-rule="evenodd" d="M94.6295 82.1597C94.6284 82.1597 94.6272 82.1592 94.6264 82.1585L50.7458 41.1979C48.2254 38.8451 44.3005 38.8897 41.8341 41.2991L0.00771889 82.1584C0.00686957 82.1592 0.00572936 82.1597 0.00454204 82.1597V82.1597C0.00203123 82.1597 -4.18009e-06 82.1617 -4.18009e-06 82.1642L-4.18009e-06 187.548C-4.18009e-06 191.111 2.88881 194 6.45233 194H88.1818C91.7453 194 94.6341 191.111 94.6341 187.548L94.6341 82.1643C94.6341 82.1617 94.6321 82.1597 94.6295 82.1597V82.1597Z"/>
</mask>
<path fill-rule="evenodd" clip-rule="evenodd" d="M94.6295 82.1597C94.6284 82.1597 94.6272 82.1592 94.6264 82.1585L50.7458 41.1979C48.2254 38.8451 44.3005 38.8897 41.8341 41.2991L0.00771889 82.1584C0.00686957 82.1592 0.00572936 82.1597 0.00454204 82.1597V82.1597C0.00203123 82.1597 -4.18009e-06 82.1617 -4.18009e-06 82.1642L-4.18009e-06 187.548C-4.18009e-06 191.111 2.88881 194 6.45233 194H88.1818C91.7453 194 94.6341 191.111 94.6341 187.548L94.6341 82.1643C94.6341 82.1617 94.6321 82.1597 94.6295 82.1597V82.1597Z" fill="#0F70BD"/>
<path d="M0.00772307 82.1583L1.21007 83.3891L0.00772307 82.1583ZM94.6264 82.1584L93.4523 83.4161L94.6264 82.1584ZM49.5717 42.4556L93.4523 83.4161L95.8005 80.9006L51.9199 39.94L49.5717 42.4556ZM1.21007 83.3891L43.0365 42.5298L40.6318 40.0681L-1.19463 80.9275L1.21007 83.3891ZM1.72062 187.548V82.1641H-1.72062V187.548H1.72062ZM88.1818 192.279H6.45233V195.721H88.1818V192.279ZM92.9135 82.1642V187.548H96.3547V82.1642H92.9135ZM96.3547 82.1642C96.3547 81.2114 95.5823 80.439 94.6295 80.439V83.8802C93.6818 83.8802 92.9135 83.1119 92.9135 82.1642H96.3547ZM88.1818 195.721C92.6956 195.721 96.3547 192.061 96.3547 187.548H92.9135C92.9135 190.161 90.795 192.279 88.1818 192.279V195.721ZM-1.72062 187.548C-1.72062 192.061 1.93854 195.721 6.45233 195.721V192.279C3.83908 192.279 1.72062 190.161 1.72062 187.548H-1.72062ZM0.00454622 80.439C-0.9483 80.439 -1.72062 81.2114 -1.72062 82.1641H1.72062C1.72062 83.1118 0.952371 83.8802 0.00454622 83.8802L0.00454622 80.439ZM-1.19463 80.9275C-0.874031 80.6143 -0.443635 80.439 0.00454622 80.439L0.00454622 83.8802C0.455102 83.8802 0.887779 83.7039 1.21007 83.3891L-1.19463 80.9275ZM93.4523 83.4161C93.7726 83.7151 94.1937 83.8802 94.6295 83.8802V80.439C95.0631 80.439 95.4819 80.6032 95.8005 80.9006L93.4523 83.4161ZM51.9199 39.94C48.7273 36.9598 43.7559 37.0163 40.6318 40.0681L43.0365 42.5298C44.8452 40.7629 47.7234 40.7302 49.5717 42.4556L51.9199 39.94Z" fill="#37AFEB" mask="url(#path-1-inside-1_329_410)"/>
<circle cx="46.0266" cy="49.0376" r="4.73171" fill="white"/>
<path d="M58.6243 111.507C57.473 110.068 55.9011 109.348 53.9084 109.348C51.2073 109.348 49.1483 110.499 47.7313 112.802C45.9822 115.636 44.8641 120.562 44.377 127.581H56.0339V130.835H44.2442L43.3143 142.691C46.1925 143.466 49.104 145.016 52.0487 147.341C53.6649 148.647 54.938 149.488 55.8679 149.865C56.8199 150.219 57.6944 150.396 58.4915 150.396C60.1077 150.396 61.3365 149.876 62.1779 148.835C63.0192 147.795 63.4399 146.057 63.4399 143.621H67.1926C67.2591 144.396 67.2923 145.193 67.2923 146.012C67.2923 146.809 67.1926 147.739 66.9934 148.802C66.8163 149.865 66.462 150.883 65.9306 151.857C65.0008 153.607 63.4288 154.979 61.2148 155.976C59.0007 156.972 56.4767 157.072 53.6428 156.274C51.8051 155.743 50.3328 155.001 49.2258 154.049C48.1188 153.075 46.9342 151.968 45.6722 150.728C44.4102 149.488 43.3586 148.57 42.5172 147.972C41.7423 150.717 40.3807 152.865 38.4324 154.415C36.5061 155.942 34.3807 156.706 32.0559 156.706C29.7533 156.706 27.8603 156.064 26.3769 154.78C24.8935 153.496 24.1518 151.935 24.1518 150.097C24.1518 146.555 26.1777 144.064 30.2294 142.625C31.7349 142.094 33.6058 141.817 35.8419 141.795L36.639 132.961C36.639 132.097 36.5283 131.533 36.3069 131.267C36.1076 130.979 35.6648 130.835 34.9785 130.835H31.2257L31.5246 127.581H35.1445C35.7644 127.581 36.2405 127.415 36.5726 127.082C36.9047 126.728 37.1039 126.086 37.1704 125.156C37.5689 118.802 39.2073 113.953 42.0855 110.61C44.9638 107.245 48.8272 105.562 53.676 105.562C57.0413 105.562 59.8863 106.547 62.2111 108.518C64.5358 110.466 65.6982 112.736 65.6982 115.326C65.6982 116.898 65.2111 118.226 64.2369 119.311C63.2849 120.396 62.0782 120.939 60.617 120.939C59.1557 120.939 57.938 120.474 56.9638 119.544C55.9896 118.614 55.5025 117.551 55.5025 116.355C55.5025 113.964 56.5431 112.348 58.6243 111.507ZM28.2699 150.795C28.2699 151.415 28.5246 151.979 29.0338 152.488C29.5652 152.976 30.4065 153.219 31.5578 153.219C33.7275 153.219 34.9785 151.47 35.3106 147.972L35.4766 145.88C32.8862 145.968 31.0375 146.477 29.9305 147.407C28.8235 148.315 28.2699 149.444 28.2699 150.795Z" fill="black"/>
<path d="M46.2416 53.7694C43.1086 51.639 41.0927 47.7896 40.8755 43.0356C40.6583 38.2816 42.0605 32.8018 44.8535 27.4896C47.6465 22.1775 51.6656 17.3463 56.2554 13.7839C60.8452 10.2215 65.7349 8.13794 70.1274 7.87303C74.5198 7.60811 78.1558 9.17745 80.4426 12.3251C82.7293 15.4728 83.5319 20.0132 82.7194 25.2059C81.9069 30.3987 79.5273 35.9374 75.9687 40.9191C72.41 45.9008 67.7765 50.0877 63.0177 52.694L59.3613 49.2528C62.8209 47.358 69.5518 42.0308 72.139 38.4092C74.7262 34.7875 76.4561 30.7608 77.0468 26.9857C77.6374 23.2106 77.054 19.9098 75.3915 17.6214C73.7291 15.3331 71.0857 14.1922 67.8924 14.3848C64.6991 14.5774 61.1443 16.0921 57.8075 18.6819C54.4708 21.2718 51.5489 24.784 49.5184 28.646C47.4879 32.5079 46.4685 36.4917 46.6264 39.9478C46.7843 43.404 48.2655 46.1985 50.5432 47.7472L46.2416 53.7694Z" fill="black"/>
</svg>
