<svg width="166" height="168" viewBox="0 0 166 168" fill="none" xmlns="http://www.w3.org/2000/svg">
<path d="M61.4509 156.265L51.7419 160.765L68.4033 121.639L82.574 127.673L65.8962 166.839L62.0315 156.503L61.8698 156.071L61.4509 156.265Z" fill="#37AFEB" stroke="black" stroke-width="0.85567"/>
<path d="M96.9835 156.265L106.692 160.765L90.0311 121.639L75.8603 127.673L92.5381 166.839L96.4028 156.503L96.5645 156.071L96.9835 156.265Z" fill="#37AFEB" stroke="black" stroke-width="0.85567"/>
<mask id="path-3-inside-1_333_450" fill="white">
<path d="M150.17 52.8376C150.17 38.8242 143.093 25.3848 130.496 15.4758C117.9 5.56681 100.815 1.05798e-06 82.9999 0C65.1853 -1.05798e-06 48.1003 5.5668 35.5035 15.4758C22.9067 25.3848 15.8298 38.8242 15.8298 52.8376L30.6383 52.8376C30.6383 41.9136 36.155 31.4371 45.9747 23.7127C55.7944 15.9882 69.1128 11.6487 82.9999 11.6487C96.8871 11.6487 110.205 15.9882 120.025 23.7127C129.845 31.4371 135.362 41.9136 135.362 52.8376H150.17Z"/>
</mask>
<path d="M150.17 52.8376C150.17 38.8242 143.093 25.3848 130.496 15.4758C117.9 5.56681 100.815 1.05798e-06 82.9999 0C65.1853 -1.05798e-06 48.1003 5.5668 35.5035 15.4758C22.9067 25.3848 15.8298 38.8242 15.8298 52.8376L30.6383 52.8376C30.6383 41.9136 36.155 31.4371 45.9747 23.7127C55.7944 15.9882 69.1128 11.6487 82.9999 11.6487C96.8871 11.6487 110.205 15.9882 120.025 23.7127C129.845 31.4371 135.362 41.9136 135.362 52.8376H150.17Z" fill="#0F70BD" stroke="black" stroke-width="4.27835" mask="url(#path-3-inside-1_333_450)"/>
<mask id="path-4-inside-2_333_450" fill="white">
<path d="M150.17 80.219C150.17 94.2324 143.093 107.672 130.496 117.581C117.9 127.49 100.815 133.057 82.9999 133.057C65.1853 133.057 48.1003 127.49 35.5035 117.581C22.9067 107.672 15.8298 94.2324 15.8298 80.219L30.6383 80.219C30.6383 91.143 36.155 101.62 45.9747 109.344C55.7944 117.068 69.1128 121.408 82.9999 121.408C96.8871 121.408 110.205 117.068 120.025 109.344C129.845 101.62 135.362 91.143 135.362 80.219H150.17Z"/>
</mask>
<path d="M150.17 80.219C150.17 94.2324 143.093 107.672 130.496 117.581C117.9 127.49 100.815 133.057 82.9999 133.057C65.1853 133.057 48.1003 127.49 35.5035 117.581C22.9067 107.672 15.8298 94.2324 15.8298 80.219L30.6383 80.219C30.6383 91.143 36.155 101.62 45.9747 109.344C55.7944 117.068 69.1128 121.408 82.9999 121.408C96.8871 121.408 110.205 117.068 120.025 109.344C129.845 101.62 135.362 91.143 135.362 80.219H150.17Z" fill="#0F70BD" stroke="black" stroke-width="4.27835" mask="url(#path-4-inside-2_333_450)"/>
<path d="M12.7603 61.2433C12.6915 60.9881 12.5902 60.7632 12.4565 60.5687C12.3228 60.3702 12.1587 60.2021 11.9642 60.0643C11.7698 59.9266 11.5469 59.8233 11.2957 59.7544C11.0446 59.6815 10.7691 59.645 10.4692 59.645C9.86557 59.645 9.34293 59.7909 8.90132 60.0826C8.46376 60.3743 8.12547 60.7997 7.88643 61.3588C7.64739 61.9138 7.52788 62.5884 7.52788 63.3825C7.52788 64.1806 7.64334 64.8613 7.87428 65.4244C8.10521 65.9876 8.43946 66.417 8.87701 66.7128C9.31457 67.0086 9.84532 67.1564 10.4692 67.1564C11.0202 67.1564 11.4862 67.0673 11.867 66.889C12.2519 66.7067 12.5436 66.4495 12.7421 66.1172C12.9406 65.785 13.0399 65.394 13.0399 64.9443L13.599 65.0112H10.5726V62.8173H15.9387V64.4642C15.9387 65.5784 15.7017 66.5325 15.2277 67.3266C14.7577 68.1207 14.1095 68.7304 13.283 69.1558C12.4605 69.5812 11.5145 69.7939 10.4449 69.7939C9.25785 69.7939 8.2146 69.5367 7.31517 69.0221C6.41575 68.5076 5.71484 67.7743 5.21246 66.8222C4.71008 65.866 4.45889 64.7316 4.45889 63.419C4.45889 62.398 4.61082 61.4925 4.91468 60.7024C5.21854 59.9084 5.64192 59.2358 6.18481 58.6848C6.73176 58.1338 7.36379 57.7165 8.0809 57.4329C8.80206 57.1493 9.57792 57.0075 10.4085 57.0075C11.1296 57.0075 11.8001 57.1108 12.42 57.3174C13.044 57.5241 13.595 57.8158 14.073 58.1926C14.5551 58.5693 14.9461 59.017 15.2459 59.5356C15.5457 60.0542 15.7321 60.6234 15.805 61.2433H12.7603ZM29.4342 57.1777H32.4363V65.2057C32.4363 66.1334 32.2155 66.9417 31.7739 67.6305C31.3323 68.3152 30.7165 68.8459 29.9264 69.2227C29.1364 69.5954 28.2187 69.7818 27.1735 69.7818C26.116 69.7818 25.1923 69.5954 24.4023 69.2227C23.6122 68.8459 22.9984 68.3152 22.5609 67.6305C22.1233 66.9417 21.9045 66.1334 21.9045 65.2057V57.1777H24.9127V64.9443C24.9127 65.3738 25.0059 65.7567 25.1923 66.0929C25.3827 66.4292 25.6481 66.6925 25.9884 66.883C26.3287 67.0734 26.7238 67.1686 27.1735 67.1686C27.6232 67.1686 28.0162 67.0734 28.3524 66.883C28.6928 66.6925 28.9581 66.4292 29.1486 66.0929C29.339 65.7567 29.4342 65.3738 29.4342 64.9443V57.1777ZM41.2068 69.6238H37.9737L42.173 57.1777H46.1779L50.3773 69.6238H47.1442L44.2211 60.3135H44.1238L41.2068 69.6238ZM40.7753 64.7256H47.5331V67.0106H40.7753V64.7256ZM55.9101 69.6238V57.1777H61.0514C61.9832 57.1777 62.7874 57.3458 63.464 57.6821C64.1447 58.0143 64.6693 58.4924 65.038 59.1163C65.4067 59.7362 65.5911 60.4715 65.5911 61.3223C65.5911 62.1853 65.4027 62.9186 65.0259 63.5223C64.6491 64.1219 64.1143 64.5797 63.4215 64.8957C62.7287 65.2077 61.9083 65.3637 60.9602 65.3637H57.7089V62.9935H60.4011C60.8549 62.9935 61.2337 62.9348 61.5376 62.8173C61.8455 62.6958 62.0784 62.5135 62.2364 62.2704C62.3944 62.0232 62.4735 61.7072 62.4735 61.3223C62.4735 60.9374 62.3944 60.6194 62.2364 60.3682C62.0784 60.113 61.8455 59.9225 61.5376 59.7969C61.2297 59.6673 60.8508 59.6025 60.4011 59.6025H58.9183V69.6238H55.9101ZM62.9171 63.9355L66.0165 69.6238H62.7348L59.6962 63.9355H62.9171ZM74.126 69.6238H70.8929L75.0923 57.1777H79.0972L83.2965 69.6238H80.0634L77.1403 60.3135H77.0431L74.126 69.6238ZM73.6945 64.7256H80.4524V67.0106H73.6945V64.7256ZM99.4219 57.1777V69.6238H96.8695L91.9165 62.4405H91.8375V69.6238H88.8293V57.1777H91.4182L96.3164 64.3488H96.4197V57.1777H99.4219ZM105.099 59.6207V57.1777H115.619V59.6207H111.845V69.6238H108.879V59.6207H105.099ZM121.281 69.6238V57.1777H129.959V59.6207H124.289V62.1731H129.515V64.6222H124.289V67.1807H129.959V69.6238H121.281ZM136.036 69.6238V57.1777H144.714V59.6207H139.044V62.1731H144.27V64.6222H139.044V67.1807H144.714V69.6238H136.036ZM155.391 69.6238H150.791V57.1777H155.385C156.653 57.1777 157.745 57.4268 158.661 57.9252C159.58 58.4194 160.289 59.1325 160.788 60.0643C161.286 60.9921 161.535 62.1022 161.535 63.3946C161.535 64.6911 161.286 65.8053 160.788 66.7371C160.293 67.6689 159.586 68.384 158.667 68.8824C157.747 69.3766 156.655 69.6238 155.391 69.6238ZM153.799 67.0592H155.276C155.972 67.0592 156.562 66.9417 157.044 66.7067C157.53 66.4677 157.897 66.0808 158.144 65.546C158.395 65.0071 158.521 64.29 158.521 63.3946C158.521 62.4993 158.395 61.7862 158.144 61.2555C157.893 60.7207 157.522 60.3358 157.032 60.1008C156.546 59.8618 155.946 59.7422 155.233 59.7422H153.799V67.0592Z" fill="black"/>
<path d="M64.7735 28.5126V40.9587H61.7714V31.3203H61.6985L58.9151 33.0219V30.4209L61.9841 28.5126H64.7735ZM73.5281 41.2626C72.4423 41.2626 71.5064 41.0053 70.7204 40.4908C69.9344 39.9722 69.3287 39.2288 68.9033 38.2605C68.4779 37.2881 68.2672 36.1193 68.2713 34.7539C68.2753 33.3886 68.488 32.2298 68.9094 31.2778C69.3348 30.3216 69.9385 29.5944 70.7204 29.096C71.5064 28.5937 72.4423 28.3425 73.5281 28.3425C74.6139 28.3425 75.5497 28.5937 76.3357 29.096C77.1258 29.5944 77.7335 30.3216 78.1589 31.2778C78.5843 32.2339 78.795 33.3926 78.7909 34.7539C78.7909 36.1233 78.5782 37.2942 78.1528 38.2665C77.7274 39.2389 77.1217 39.9823 76.3357 40.4969C75.5538 41.0074 74.6179 41.2626 73.5281 41.2626ZM73.5281 38.8013C74.1763 38.8013 74.701 38.4711 75.1021 37.8107C75.5031 37.1463 75.7017 36.1274 75.6976 34.7539C75.6976 33.8545 75.6065 33.1131 75.4241 32.5297C75.2418 31.9422 74.9886 31.5046 74.6645 31.217C74.3404 30.9293 73.9616 30.7855 73.5281 30.7855C72.8839 30.7855 72.3633 31.1116 71.9662 31.7639C71.5692 32.4122 71.3686 33.4088 71.3646 34.7539C71.3605 35.6655 71.4476 36.4211 71.6259 37.0207C71.8082 37.6203 72.0635 38.068 72.3916 38.3638C72.7198 38.6555 73.0986 38.8013 73.5281 38.8013ZM86.5169 41.2626C85.4311 41.2626 84.4952 41.0053 83.7092 40.4908C82.9232 39.9722 82.3175 39.2288 81.8921 38.2605C81.4667 37.2881 81.256 36.1193 81.2601 34.7539C81.2641 33.3886 81.4768 32.2298 81.8982 31.2778C82.3236 30.3216 82.9273 29.5944 83.7092 29.096C84.4952 28.5937 85.4311 28.3425 86.5169 28.3425C87.6027 28.3425 88.5385 28.5937 89.3245 29.096C90.1146 29.5944 90.7223 30.3216 91.1477 31.2778C91.5731 32.2339 91.7838 33.3926 91.7797 34.7539C91.7797 36.1233 91.567 37.2942 91.1416 38.2665C90.7162 39.2389 90.1105 39.9823 89.3245 40.4969C88.5426 41.0074 87.6067 41.2626 86.5169 41.2626ZM86.5169 38.8013C87.1651 38.8013 87.6898 38.4711 88.0909 37.8107C88.492 37.1463 88.6905 36.1274 88.6864 34.7539C88.6864 33.8545 88.5953 33.1131 88.413 32.5297C88.2306 31.9422 87.9774 31.5046 87.6533 31.217C87.3292 30.9293 86.9504 30.7855 86.5169 30.7855C85.8727 30.7855 85.3521 31.1116 84.955 31.7639C84.558 32.4122 84.3574 33.4088 84.3534 34.7539C84.3493 35.6655 84.4364 36.4211 84.6147 37.0207C84.797 37.6203 85.0523 38.068 85.3804 38.3638C85.7086 38.6555 86.0874 38.8013 86.5169 38.8013ZM101.329 38.6251V37.9688C101.329 37.4583 101.438 36.9863 101.657 36.5528C101.88 36.1193 102.202 35.7708 102.623 35.5075C103.045 35.2441 103.559 35.1125 104.167 35.1125C104.787 35.1125 105.307 35.2441 105.729 35.5075C106.154 35.7668 106.474 36.1132 106.689 36.5467C106.908 36.9761 107.017 37.4502 107.017 37.9688V38.6251C107.017 39.1356 106.908 39.6076 106.689 40.0411C106.47 40.4746 106.148 40.823 105.723 41.0864C105.297 41.3497 104.779 41.4814 104.167 41.4814C103.551 41.4814 103.032 41.3497 102.611 41.0864C102.19 40.823 101.87 40.4746 101.651 40.0411C101.436 39.6076 101.329 39.1356 101.329 38.6251ZM103.267 37.9688V38.6251C103.267 38.8844 103.33 39.1336 103.456 39.3726C103.586 39.6116 103.823 39.7311 104.167 39.7311C104.519 39.7311 104.756 39.6157 104.878 39.3847C104.999 39.1498 105.06 38.8965 105.06 38.6251V37.9688C105.06 37.6973 105.001 37.4421 104.884 37.203C104.771 36.9599 104.532 36.8384 104.167 36.8384C103.827 36.8384 103.592 36.9599 103.462 37.203C103.332 37.4421 103.267 37.6973 103.267 37.9688ZM94.8748 31.5026V30.8463C94.8748 30.3277 94.9863 29.8537 95.2091 29.4242C95.436 28.9907 95.7601 28.6443 96.1814 28.385C96.6028 28.1217 97.1133 27.99 97.7129 27.99C98.3328 27.99 98.8534 28.1217 99.2747 28.385C99.7001 28.6443 100.022 28.9907 100.241 29.4242C100.46 29.8537 100.569 30.3277 100.569 30.8463V31.5026C100.569 32.0212 100.458 32.4952 100.235 32.9247C100.016 33.3541 99.6941 33.6965 99.2687 33.9517C98.8433 34.207 98.3247 34.3346 97.7129 34.3346C97.1011 34.3346 96.5825 34.2049 96.1571 33.9456C95.7358 33.6864 95.4157 33.342 95.1969 32.9125C94.9822 32.4831 94.8748 32.0131 94.8748 31.5026ZM96.8317 30.8463V31.5026C96.8317 31.7741 96.8945 32.0273 97.0201 32.2623C97.1497 32.4932 97.3807 32.6087 97.7129 32.6087C98.0694 32.6087 98.3064 32.4932 98.4239 32.2623C98.5455 32.0273 98.6062 31.7741 98.6062 31.5026V30.8463C98.6062 30.5748 98.5495 30.3196 98.4361 30.0805C98.3226 29.8375 98.0816 29.7159 97.7129 29.7159C97.3726 29.7159 97.1396 29.8395 97.014 30.0866C96.8925 30.3338 96.8317 30.587 96.8317 30.8463ZM95.7925 40.9587L104.349 28.5126H106.008L97.4516 40.9587H95.7925Z" fill="black"/>
<path d="M56.1234 95.9549H58.5542L59.5874 97.2737L60.9426 98.8294L63.0271 101.4H60.3045L58.8459 99.6559L57.983 98.4162L56.1234 95.9549ZM63.1121 94.2047C63.1121 95.5741 62.8488 96.7348 62.3221 97.6869C61.7954 98.639 61.0824 99.3622 60.1829 99.8565C59.2875 100.351 58.2828 100.598 57.1686 100.598C56.0504 100.598 55.0436 100.349 54.1483 99.8504C53.2529 99.3521 52.5419 98.6289 52.0152 97.6808C51.4925 96.7287 51.2312 95.57 51.2312 94.2047C51.2312 92.8353 51.4925 91.6745 52.0152 90.7224C52.5419 89.7703 53.2529 89.0472 54.1483 88.5529C55.0436 88.0586 56.0504 87.8115 57.1686 87.8115C58.2828 87.8115 59.2875 88.0586 60.1829 88.5529C61.0824 89.0472 61.7954 89.7703 62.3221 90.7224C62.8488 91.6745 63.1121 92.8353 63.1121 94.2047ZM60.0371 94.2047C60.0371 93.3944 59.9216 92.7097 59.6907 92.1506C59.4638 91.5915 59.1356 91.1681 58.7062 90.8804C58.2808 90.5928 57.7682 90.449 57.1686 90.449C56.5731 90.449 56.0606 90.5928 55.6311 90.8804C55.2016 91.1681 54.8714 91.5915 54.6405 92.1506C54.4136 92.7097 54.3002 93.3944 54.3002 94.2047C54.3002 95.015 54.4136 95.6997 54.6405 96.2588C54.8714 96.8179 55.2016 97.2413 55.6311 97.5289C56.0606 97.8166 56.5731 97.9604 57.1686 97.9604C57.7682 97.9604 58.2808 97.8166 58.7062 97.5289C59.1356 97.2413 59.4638 96.8179 59.6907 96.2588C59.9216 95.6997 60.0371 95.015 60.0371 94.2047ZM71.7633 96.3985V91.0931H74.729V100.428H71.897V98.6897H71.7998C71.5932 99.2609 71.2407 99.7147 70.7424 100.051C70.2481 100.383 69.6505 100.549 68.9496 100.549C68.3135 100.549 67.7544 100.403 67.2723 100.112C66.7902 99.82 66.4154 99.4128 66.148 98.8902C65.8806 98.3635 65.7449 97.7477 65.7408 97.0427V91.0931H68.7126V96.4593C68.7166 96.9658 68.8503 97.3648 69.1137 97.6565C69.377 97.9482 69.7356 98.0941 70.1893 98.0941C70.4851 98.0941 70.7505 98.0293 70.9855 97.8996C71.2245 97.7659 71.4129 97.5735 71.5506 97.3223C71.6924 97.067 71.7633 96.7591 71.7633 96.3985ZM80.1076 100.586C79.5121 100.586 78.9834 100.486 78.5215 100.288C78.0637 100.085 77.7011 99.7815 77.4337 99.3764C77.1703 98.9672 77.0387 98.4547 77.0387 97.8388C77.0387 97.3203 77.1298 96.8827 77.3121 96.5262C77.4944 96.1696 77.7456 95.88 78.0657 95.6571C78.3858 95.4343 78.7545 95.2662 79.1718 95.1527C79.5891 95.0352 80.0347 94.9562 80.5087 94.9157C81.0395 94.8671 81.4669 94.8164 81.791 94.7638C82.1151 94.7071 82.3501 94.6281 82.496 94.5268C82.6459 94.4214 82.7208 94.2736 82.7208 94.0831V94.0527C82.7208 93.7408 82.6135 93.4997 82.3987 93.3296C82.184 93.1594 81.8943 93.0743 81.5297 93.0743C81.1367 93.0743 80.8207 93.1594 80.5817 93.3296C80.3426 93.4997 80.1907 93.7347 80.1259 94.0345L77.3851 93.9373C77.4661 93.3701 77.6747 92.8636 78.011 92.418C78.3513 91.9683 78.8173 91.6158 79.4088 91.3605C80.0043 91.1013 80.7194 90.9716 81.554 90.9716C82.1496 90.9716 82.6986 91.0425 83.2009 91.1843C83.7033 91.3221 84.1409 91.5246 84.5136 91.792C84.8864 92.0554 85.174 92.3795 85.3766 92.7644C85.5832 93.1493 85.6865 93.5889 85.6865 94.0831V100.428H82.891V99.1272H82.8181C82.652 99.4432 82.4393 99.7106 82.18 99.9294C81.9247 100.148 81.6229 100.312 81.2745 100.422C80.9301 100.531 80.5412 100.586 80.1076 100.586ZM81.0253 98.641C81.3454 98.641 81.633 98.5762 81.8883 98.4466C82.1476 98.3169 82.3542 98.1387 82.5081 97.9118C82.6621 97.6808 82.7391 97.4134 82.7391 97.1096V96.2223C82.654 96.2669 82.5507 96.3074 82.4291 96.3439C82.3116 96.3803 82.182 96.4148 82.0402 96.4472C81.8984 96.4796 81.7525 96.5079 81.6026 96.5322C81.4527 96.5566 81.3089 96.5788 81.1712 96.5991C80.8916 96.6437 80.6526 96.7125 80.454 96.8057C80.2596 96.8989 80.1097 97.0204 80.0043 97.1704C79.903 97.3162 79.8524 97.4904 79.8524 97.693C79.8524 98.0009 79.9618 98.2359 80.1806 98.3979C80.4034 98.56 80.685 98.641 81.0253 98.641ZM91.331 87.9816V100.428H88.3593V87.9816H91.331ZM94.0782 100.428V91.0931H97.05V100.428H94.0782ZM95.5671 90.0053C95.1498 90.0053 94.7913 89.8676 94.4915 89.5921C94.1917 89.3125 94.0418 88.9763 94.0418 88.5833C94.0418 88.1943 94.1917 87.8621 94.4915 87.5866C94.7913 87.3071 95.1498 87.1673 95.5671 87.1673C95.9885 87.1673 96.347 87.3071 96.6428 87.5866C96.9426 87.8621 97.0925 88.1943 97.0925 88.5833C97.0925 88.9763 96.9426 89.3125 96.6428 89.5921C96.347 89.8676 95.9885 90.0053 95.5671 90.0053ZM105.066 91.0931V93.2809H99.1773V91.0931H105.066ZM100.411 88.8567H103.383V97.4924C103.383 97.6748 103.411 97.8226 103.468 97.9361C103.529 98.0455 103.616 98.1245 103.729 98.1731C103.843 98.2177 103.978 98.2399 104.136 98.2399C104.25 98.2399 104.369 98.2298 104.495 98.2096C104.625 98.1852 104.722 98.165 104.787 98.1488L105.236 100.294C105.094 100.335 104.894 100.385 104.635 100.446C104.379 100.507 104.074 100.545 103.717 100.561C103.02 100.594 102.423 100.513 101.924 100.318C101.43 100.12 101.051 99.8119 100.788 99.3946C100.528 98.9773 100.403 98.4526 100.411 97.8206V88.8567ZM109.255 103.928C108.899 103.928 108.562 103.9 108.246 103.843C107.93 103.79 107.659 103.72 107.432 103.63L108.088 101.473C108.38 101.57 108.643 101.627 108.878 101.643C109.117 101.659 109.322 101.621 109.492 101.528C109.666 101.439 109.8 101.279 109.893 101.048L110.009 100.768L106.691 91.0931H109.802L111.522 97.7538H111.619L113.363 91.0931H116.493L112.974 101.321C112.804 101.832 112.563 102.281 112.251 102.67C111.943 103.063 111.544 103.371 111.054 103.594C110.568 103.817 109.968 103.928 109.255 103.928Z" fill="black"/>
<line x1="2.99487" y1="73.8014" x2="163.005" y2="73.8014" stroke="#37AFEB" stroke-width="2.99485"/>
</svg>
