<svg width="137" height="137" viewBox="0 0 137 137" fill="none" xmlns="http://www.w3.org/2000/svg">
<rect x="1.91607" y="1.90203" width="133.952" height="133.952" rx="6.58783" fill="white" stroke="black" stroke-width="2.19594"/>
<mask id="path-2-inside-1_216_470" fill="white">
<path d="M3.01404 8.48985C3.01404 5.45789 5.47193 3 8.50389 3H129.281C132.313 3 134.771 5.45789 134.771 8.48986V35.9391H3.01404V8.48985Z"/>
</mask>
<path d="M3.01404 8.48985C3.01404 5.45789 5.47193 3 8.50389 3H129.281C132.313 3 134.771 5.45789 134.771 8.48986V35.9391H3.01404V8.48985Z" fill="#37AFEB"/>
<path d="M3.01404 3H134.771H3.01404ZM134.771 38.1351H3.01404V33.7432H134.771V38.1351ZM3.01404 35.9391V3V35.9391ZM134.771 3V35.9391V3Z" fill="black" mask="url(#path-2-inside-1_216_470)"/>
<path d="M47.0156 24.9414L51.4683 28.476L49.4485 30.2318L45.0647 26.7201L47.0156 24.9414ZM51.5486 18.5148V19.3755C51.5486 20.6379 51.3803 21.774 51.0437 22.7839C50.707 23.7861 50.2251 24.6392 49.5977 25.343C48.978 26.0469 48.2397 26.5863 47.3828 26.9611C46.526 27.336 45.5773 27.5235 44.5368 27.5235C43.5039 27.5235 42.5552 27.336 41.6907 26.9611C40.8338 26.5863 40.0917 26.0469 39.4644 25.343C38.837 24.6392 38.3512 23.7861 38.0069 22.7839C37.6626 21.774 37.4905 20.6379 37.4905 19.3755V18.5148C37.4905 17.2448 37.6588 16.1086 37.9954 15.1064C38.3397 14.1042 38.8217 13.2511 39.4414 12.5473C40.0688 11.8357 40.8109 11.2925 41.6678 10.9177C42.5323 10.5428 43.481 10.3553 44.5138 10.3553C45.5543 10.3553 46.503 10.5428 47.3599 10.9177C48.2244 11.2925 48.9665 11.8357 49.5862 12.5473C50.2136 13.2511 50.6956 14.1042 51.0322 15.1064C51.3765 16.1086 51.5486 17.2448 51.5486 18.5148ZM48.3583 19.3755V18.4918C48.3583 17.5814 48.2741 16.7819 48.1058 16.0933C47.9375 15.3971 47.685 14.8119 47.3484 14.3375C47.0194 13.8632 46.6178 13.5074 46.1434 13.2702C45.6691 13.0254 45.1259 12.903 44.5138 12.903C43.9094 12.903 43.37 13.0254 42.8957 13.2702C42.4214 13.5074 42.0197 13.8632 41.6907 14.3375C41.3617 14.8119 41.1093 15.3971 40.9333 16.0933C40.765 16.7819 40.6808 17.5814 40.6808 18.4918V19.3755C40.6808 20.2783 40.765 21.0778 40.9333 21.774C41.1093 22.4702 41.3617 23.0593 41.6907 23.5413C42.0273 24.0156 42.4328 24.3752 42.9072 24.62C43.3892 24.8649 43.9324 24.9873 44.5368 24.9873C45.1488 24.9873 45.692 24.8649 46.1664 24.62C46.6407 24.3752 47.0385 24.0156 47.3599 23.5413C47.6889 23.0593 47.9375 22.4702 48.1058 21.774C48.2741 21.0778 48.3583 20.2783 48.3583 19.3755ZM61.418 24.3446V14.8769H64.4706V27.2939H61.6016L61.418 24.3446ZM61.8082 21.774L62.7492 21.751C62.7492 22.5849 62.6574 23.3538 62.4738 24.0577C62.2902 24.7616 62.0033 25.3736 61.6131 25.8939C61.2306 26.4065 60.7447 26.8081 60.1556 27.0989C59.5665 27.3819 58.8703 27.5235 58.067 27.5235C57.455 27.5235 56.8965 27.4393 56.3915 27.271C55.8866 27.095 55.4505 26.8234 55.0832 26.4562C54.7237 26.0813 54.4444 25.6031 54.2455 25.0217C54.0466 24.4326 53.9471 23.7249 53.9471 22.8986V14.8769H56.9768V22.9216C56.9768 23.3347 57.0227 23.679 57.1145 23.9544C57.214 24.2298 57.3478 24.4555 57.5162 24.6315C57.6921 24.7998 57.8949 24.9222 58.1244 24.9987C58.3616 25.0676 58.614 25.102 58.8818 25.102C59.6163 25.102 60.1939 24.9567 60.6147 24.6659C61.0431 24.3676 61.3491 23.9697 61.5328 23.4724C61.7164 22.9675 61.8082 22.4013 61.8082 21.774ZM66.6166 21.2117V20.9707C66.6166 20.0602 66.7467 19.2225 67.0068 18.4574C67.267 17.6847 67.6457 17.0153 68.143 16.4491C68.6403 15.883 69.2485 15.443 69.9676 15.1294C70.6868 14.808 71.5054 14.6474 72.4235 14.6474C73.3569 14.6474 74.1832 14.808 74.9023 15.1294C75.6291 15.443 76.2412 15.883 76.7385 16.4491C77.2358 17.0153 77.6145 17.6847 77.8746 18.4574C78.1347 19.2225 78.2648 20.0602 78.2648 20.9707V21.2117C78.2648 22.1144 78.1347 22.9522 77.8746 23.7249C77.6145 24.49 77.2358 25.1594 76.7385 25.7332C76.2412 26.2994 75.633 26.7393 74.9138 27.0529C74.1946 27.3666 73.3722 27.5235 72.4465 27.5235C71.5284 27.5235 70.7059 27.3666 69.9791 27.0529C69.2523 26.7393 68.6403 26.2994 68.143 25.7332C67.6457 25.1594 67.267 24.49 67.0068 23.7249C66.7467 22.9522 66.6166 22.1144 66.6166 21.2117ZM69.6463 20.9707V21.2117C69.6463 21.7549 69.6999 22.2636 69.807 22.738C69.9141 23.2123 70.0786 23.6293 70.3004 23.9889C70.5223 24.3484 70.8092 24.6315 71.1612 24.8381C71.5207 25.037 71.9492 25.1365 72.4465 25.1365C72.9361 25.1365 73.3569 25.037 73.7088 24.8381C74.0608 24.6315 74.3477 24.3484 74.5695 23.9889C74.7991 23.6293 74.9674 23.2123 75.0745 22.738C75.1816 22.2636 75.2351 21.7549 75.2351 21.2117V20.9707C75.2351 20.4351 75.1816 19.934 75.0745 19.4673C74.9674 18.993 74.7991 18.576 74.5695 18.2164C74.3477 17.8492 74.0569 17.5623 73.6974 17.3557C73.3454 17.1415 72.9208 17.0344 72.4235 17.0344C71.9339 17.0344 71.5131 17.1415 71.1612 17.3557C70.8092 17.5623 70.5223 17.8492 70.3004 18.2164C70.0786 18.576 69.9141 18.993 69.807 19.4673C69.6999 19.934 69.6463 20.4351 69.6463 20.9707ZM86.3439 14.8769V17.0573H79.2288V14.8769H86.3439ZM81.1338 11.8243H84.175V23.7134C84.175 24.0807 84.2247 24.3637 84.3242 24.5627C84.4236 24.7616 84.5728 24.8955 84.7717 24.9643C84.9706 25.0332 85.2078 25.0676 85.4832 25.0676C85.6821 25.0676 85.8658 25.0561 86.0341 25.0332C86.2024 25.0102 86.3439 24.9873 86.4587 24.9643L86.4702 27.2366C86.2177 27.3207 85.9308 27.3896 85.6095 27.4431C85.2958 27.4967 84.94 27.5235 84.5422 27.5235C83.8613 27.5235 83.2645 27.4087 82.7519 27.1792C82.2393 26.942 81.8415 26.5633 81.5584 26.0431C81.2754 25.5152 81.1338 24.8189 81.1338 23.9544V11.8243ZM93.9411 27.5235C93 27.5235 92.1546 27.3705 91.4049 27.0644C90.6551 26.7584 90.0163 26.3338 89.4884 25.7906C88.9681 25.2397 88.5665 24.6009 88.2834 23.8741C88.008 23.1396 87.8702 22.3516 87.8702 21.51V21.051C87.8702 20.0947 88.008 19.2263 88.2834 18.4459C88.5588 17.6579 88.949 16.9808 89.4539 16.4147C89.9589 15.8485 90.5633 15.4124 91.2671 15.1064C91.971 14.8004 92.7476 14.6474 93.5968 14.6474C94.4766 14.6474 95.2531 14.7966 95.9264 15.0949C96.5997 15.3857 97.162 15.7988 97.6134 16.3343C98.0648 16.8699 98.4052 17.5125 98.6348 18.2623C98.8643 19.0044 98.979 19.8269 98.979 20.7297V22.0035H89.2474V19.9149H95.9953V19.6853C95.98 19.2033 95.8882 18.7634 95.7198 18.3656C95.5515 17.9601 95.2914 17.6388 94.9395 17.4016C94.5875 17.1568 94.1323 17.0344 93.5738 17.0344C93.1224 17.0344 92.7284 17.1338 92.3918 17.3328C92.0628 17.524 91.7874 17.7994 91.5655 18.159C91.3513 18.511 91.1906 18.9317 91.0835 19.4214C90.9764 19.911 90.9229 20.4542 90.9229 21.051V21.51C90.9229 22.0303 90.9917 22.5123 91.1294 22.956C91.2748 23.3997 91.4852 23.7861 91.7606 24.1151C92.0437 24.4364 92.3803 24.6889 92.7705 24.8725C93.1683 25.0485 93.6197 25.1365 94.1247 25.1365C94.7597 25.1365 95.3335 25.014 95.8461 24.7692C96.3663 24.5167 96.8177 24.1457 97.2002 23.656L98.7266 25.2397C98.4664 25.6223 98.1145 25.9895 97.6708 26.3414C97.2347 26.6934 96.7068 26.9803 96.0871 27.2021C95.4674 27.4164 94.752 27.5235 93.9411 27.5235Z" fill="white"/>
<rect x="16.1897" y="53.5066" width="104.307" height="5.48986" fill="#0F70BD"/>
<rect x="16.1897" y="69.9763" width="104.307" height="5.48986" fill="#0F70BD"/>
<rect x="16.1897" y="86.4458" width="104.307" height="5.48986" fill="#0F70BD"/>
<rect x="16.1897" y="102.915" width="104.307" height="5.48986" fill="#0F70BD"/>
</svg>
