<svg width="89" height="196" viewBox="0 0 89 196" fill="none" xmlns="http://www.w3.org/2000/svg">
<rect width="89" height="196" rx="15.2338" fill="#0F70BD"/>
<rect x="5" y="4" width="79.0705" height="189.334" rx="12.519" fill="black"/>
<line x1="27.9285" y1="15.5965" x2="60.5723" y2="15.5965" stroke="white" stroke-width="3.62709" stroke-linecap="round"/>
<circle cx="44.2504" cy="181.354" r="9.43042" fill="#0F70BD"/>
<rect x="40.442" y="177.546" width="7.61688" height="7.61688" rx="1.63219" stroke="#3E3636" stroke-width="1.08813"/>
<rect x="7" y="21.5121" width="74.9721" height="147.761" rx="1.45577" fill="#3E3636"/>
<ellipse cx="67.1529" cy="15.2337" rx="1.86536" ry="2.17625" fill="#A5A5A5"/>
<path d="M7.25415 151.612H81.9721V167.571C81.9721 168.373 81.3226 169.022 80.5213 169.022H8.70498C7.90371 169.022 7.25415 168.373 7.25415 167.571V151.612Z" fill="#A1A1A1"/>
<path d="M7 30H82V23.4508C82 22.6496 81.3504 22 80.5492 22H8.45084C7.64956 22 7 22.6496 7 23.4508V30Z" fill="#A1A1A1"/>
<rect x="9.43042" y="153.063" width="14.5083" height="14.5083" rx="3.62709" fill="#5CB958"/>
<rect x="28.2913" y="153.063" width="14.5083" height="14.5083" rx="3.62709" fill="#0F70BD"/>
<rect x="46.4267" y="153.063" width="14.5083" height="14.5083" rx="3.62709" fill="#F79F1A"/>
<rect x="65.2875" y="153.063" width="14.5083" height="14.5083" rx="3.62709" fill="#37AFEB"/>
<path d="M9 68.9017C9 67.2991 10.2991 66 11.9017 66H77.0983C78.7009 66 80 67.2991 80 68.9017V77H9V68.9017Z" fill="#BDBDBD"/>
<path d="M69.7947 71.4017V73.2103H69.4015V70.9108H69.7734L69.7947 71.4017ZM69.7012 71.9734L69.5375 71.9671C69.5389 71.8098 69.5623 71.6646 69.6076 71.5314C69.653 71.3968 69.7167 71.2799 69.7989 71.1807C69.8811 71.0815 69.9789 71.005 70.0922 70.9512C70.207 70.8959 70.3338 70.8683 70.4726 70.8683C70.586 70.8683 70.688 70.8839 70.7787 70.9151C70.8693 70.9448 70.9466 70.993 71.0103 71.0596C71.0755 71.1262 71.1251 71.2126 71.1591 71.3189C71.1931 71.4237 71.2101 71.5519 71.2101 71.7035V73.2103H70.8148V71.6993C70.8148 71.5788 70.7971 71.4825 70.7617 71.4102C70.7262 71.3366 70.6745 71.2834 70.6065 71.2509C70.5385 71.2168 70.4549 71.1998 70.3557 71.1998C70.258 71.1998 70.1687 71.2204 70.088 71.2615C70.0086 71.3026 69.9399 71.3592 69.8818 71.4315C69.8251 71.5038 69.7805 71.5866 69.7479 71.6802C69.7167 71.7722 69.7012 71.87 69.7012 71.9734ZM71.7031 72.0861V72.0372C71.7031 71.8714 71.7272 71.7177 71.7754 71.576C71.8236 71.4329 71.893 71.3089 71.9837 71.2041C72.0744 71.0978 72.1842 71.0157 72.3131 70.9576C72.442 70.8981 72.5865 70.8683 72.7466 70.8683C72.9082 70.8683 73.0534 70.8981 73.1823 70.9576C73.3127 71.0157 73.4232 71.0978 73.5139 71.2041C73.6059 71.3089 73.6761 71.4329 73.7242 71.576C73.7724 71.7177 73.7965 71.8714 73.7965 72.0372V72.0861C73.7965 72.2518 73.7724 72.4056 73.7242 72.5473C73.6761 72.6889 73.6059 72.8129 73.5139 72.9192C73.4232 73.024 73.3134 73.1062 73.1844 73.1657C73.0569 73.2238 72.9124 73.2528 72.7509 73.2528C72.5894 73.2528 72.4441 73.2238 72.3152 73.1657C72.1863 73.1062 72.0758 73.024 71.9837 72.9192C71.893 72.8129 71.8236 72.6889 71.7754 72.5473C71.7272 72.4056 71.7031 72.2518 71.7031 72.0861ZM72.0963 72.0372V72.0861C72.0963 72.2008 72.1098 72.3092 72.1367 72.4112C72.1636 72.5118 72.204 72.6011 72.2578 72.679C72.3131 72.7569 72.3818 72.8186 72.464 72.8639C72.5462 72.9078 72.6418 72.9298 72.7509 72.9298C72.8586 72.9298 72.9528 72.9078 73.0335 72.8639C73.1157 72.8186 73.1837 72.7569 73.2376 72.679C73.2914 72.6011 73.3318 72.5118 73.3587 72.4112C73.387 72.3092 73.4012 72.2008 73.4012 72.0861V72.0372C73.4012 71.9238 73.387 71.8169 73.3587 71.7163C73.3318 71.6143 73.2907 71.5243 73.2354 71.4464C73.1816 71.367 73.1136 71.3047 73.0314 71.2594C72.9507 71.214 72.8557 71.1913 72.7466 71.1913C72.639 71.1913 72.544 71.214 72.4619 71.2594C72.3811 71.3047 72.3131 71.367 72.2578 71.4464C72.204 71.5243 72.1636 71.6143 72.1367 71.7163C72.1098 71.8169 72.0963 71.9238 72.0963 72.0372ZM74.8719 72.8023L75.4627 70.9108H75.722L75.671 71.287L75.0695 73.2103H74.8166L74.8719 72.8023ZM74.4745 70.9108L74.9781 72.8235L75.0143 73.2103H74.7486L74.0813 70.9108H74.4745ZM76.2873 72.8087L76.7676 70.9108H77.1586L76.4913 73.2103H76.2278L76.2873 72.8087ZM75.7794 70.9108L76.3574 72.7704L76.4233 73.2103H76.1725L75.5541 71.2827L75.5031 70.9108H75.7794Z" fill="black"/>
<rect x="9" y="66" width="71" height="37" rx="2.90967" fill="#E2E2E2"/>
<path d="M25.2466 69.6021H25.9089L27.5985 73.8066L29.2845 69.6021H29.9504L27.8535 74.7594H27.3364L25.2466 69.6021ZM25.0305 69.6021H25.6149L25.7106 72.7475V74.7594H25.0305V69.6021ZM29.5785 69.6021H30.163V74.7594H29.4829V72.7475L29.5785 69.6021ZM32.8549 74.8302C32.5881 74.8302 32.3461 74.7854 32.1288 74.6956C31.9139 74.6035 31.7286 74.4749 31.5727 74.3096C31.4192 74.1443 31.3012 73.9483 31.2185 73.7216C31.1359 73.4949 31.0945 73.2469 31.0945 72.9777V72.829C31.0945 72.5173 31.1406 72.2398 31.2327 71.9966C31.3248 71.751 31.4499 71.5432 31.6081 71.3732C31.7663 71.2032 31.9458 71.0745 32.1465 70.9871C32.3472 70.8997 32.555 70.856 32.7699 70.856C33.0439 70.856 33.28 70.9033 33.4783 70.9977C33.6791 71.0922 33.8432 71.2244 33.9707 71.3944C34.0982 71.5621 34.1927 71.7604 34.2541 71.9895C34.3155 72.2162 34.3462 72.4641 34.3462 72.7333V73.0273H31.4842V72.4925H33.6909V72.4429C33.6814 72.2729 33.646 72.1076 33.5846 71.947C33.5256 71.7864 33.4311 71.6542 33.3012 71.5503C33.1714 71.4464 32.9943 71.3944 32.7699 71.3944C32.6212 71.3944 32.4842 71.4263 32.3591 71.4901C32.2339 71.5515 32.1265 71.6436 32.0367 71.7663C31.947 71.8891 31.8773 72.0391 31.8277 72.2162C31.7781 72.3933 31.7534 72.5976 31.7534 72.829V72.9777C31.7534 73.1596 31.7781 73.3308 31.8277 73.4913C31.8797 73.6495 31.9541 73.7889 32.0509 73.9093C32.1501 74.0297 32.2693 74.1242 32.4086 74.1927C32.5503 74.2611 32.7109 74.2954 32.8904 74.2954C33.1218 74.2954 33.3178 74.2482 33.4783 74.1537C33.6389 74.0592 33.7794 73.9329 33.8999 73.7747L34.2966 74.0899C34.2139 74.2151 34.1088 74.3344 33.9813 74.4477C33.8538 74.561 33.6968 74.6531 33.5102 74.724C33.326 74.7948 33.1076 74.8302 32.8549 74.8302ZM37.3428 73.7428C37.3428 73.6484 37.3215 73.561 37.279 73.4807C37.2389 73.3981 37.155 73.3237 37.0275 73.2576C36.9024 73.1891 36.7134 73.13 36.4608 73.0805C36.2482 73.0356 36.0558 72.9825 35.8834 72.9211C35.7134 72.8597 35.5682 72.7853 35.4477 72.6979C35.3297 72.6105 35.2388 72.5078 35.175 72.3898C35.1112 72.2717 35.0794 72.1335 35.0794 71.9753C35.0794 71.8242 35.1124 71.6813 35.1785 71.5467C35.247 71.4121 35.3427 71.2929 35.4655 71.189C35.5906 71.0851 35.7406 71.0036 35.9153 70.9446C36.09 70.8855 36.2849 70.856 36.4997 70.856C36.8067 70.856 37.0688 70.9103 37.2861 71.019C37.5033 71.1276 37.6698 71.2728 37.7855 71.4546C37.9012 71.6341 37.9591 71.8336 37.9591 72.0533H37.3038C37.3038 71.947 37.2719 71.8443 37.2082 71.7451C37.1468 71.6436 37.0558 71.5597 36.9354 71.4936C36.8173 71.4275 36.6721 71.3944 36.4997 71.3944C36.3179 71.3944 36.1703 71.4228 36.057 71.4794C35.946 71.5337 35.8645 71.6034 35.8126 71.6884C35.763 71.7734 35.7382 71.8632 35.7382 71.9576C35.7382 72.0285 35.75 72.0922 35.7736 72.1489C35.7996 72.2032 35.8445 72.254 35.9082 72.3012C35.972 72.3461 36.0617 72.3886 36.1774 72.4287C36.2931 72.4689 36.4407 72.509 36.6202 72.5491C36.9342 72.62 37.1928 72.705 37.3959 72.8042C37.599 72.9034 37.7501 73.025 37.8493 73.169C37.9484 73.3131 37.998 73.4878 37.998 73.6932C37.998 73.8609 37.9626 74.0144 37.8918 74.1537C37.8233 74.293 37.7229 74.4135 37.5907 74.515C37.4608 74.6142 37.305 74.6921 37.1231 74.7488C36.9437 74.8031 36.7418 74.8302 36.5174 74.8302C36.1798 74.8302 35.894 74.77 35.6603 74.6496C35.4265 74.5292 35.2494 74.3733 35.129 74.182C35.0085 73.9908 34.9483 73.7889 34.9483 73.5763H35.6071C35.6166 73.7558 35.6685 73.8987 35.763 74.0049C35.8574 74.1088 35.9731 74.1832 36.1101 74.2281C36.2471 74.2706 36.3828 74.2918 36.5174 74.2918C36.6969 74.2918 36.8469 74.2682 36.9673 74.221C37.0901 74.1738 37.1834 74.1088 37.2471 74.0262C37.3109 73.9435 37.3428 73.8491 37.3428 73.7428ZM41.0903 73.7428C41.0903 73.6484 41.069 73.561 41.0265 73.4807C40.9864 73.3981 40.9025 73.3237 40.775 73.2576C40.6499 73.1891 40.461 73.13 40.2083 73.0805C39.9958 73.0356 39.8033 72.9825 39.6309 72.9211C39.4609 72.8597 39.3157 72.7853 39.1953 72.6979C39.0772 72.6105 38.9863 72.5078 38.9225 72.3898C38.8588 72.2717 38.8269 72.1335 38.8269 71.9753C38.8269 71.8242 38.8599 71.6813 38.9261 71.5467C38.9945 71.4121 39.0902 71.2929 39.213 71.189C39.3381 71.0851 39.4881 71.0036 39.6628 70.9446C39.8376 70.8855 40.0324 70.856 40.2473 70.856C40.5542 70.856 40.8163 70.9103 41.0336 71.019C41.2508 71.1276 41.4173 71.2728 41.533 71.4546C41.6487 71.6341 41.7066 71.8336 41.7066 72.0533H41.0513C41.0513 71.947 41.0194 71.8443 40.9557 71.7451C40.8943 71.6436 40.8034 71.5597 40.6829 71.4936C40.5649 71.4275 40.4196 71.3944 40.2473 71.3944C40.0654 71.3944 39.9178 71.4228 39.8045 71.4794C39.6935 71.5337 39.612 71.6034 39.5601 71.6884C39.5105 71.7734 39.4857 71.8632 39.4857 71.9576C39.4857 72.0285 39.4975 72.0922 39.5211 72.1489C39.5471 72.2032 39.592 72.254 39.6557 72.3012C39.7195 72.3461 39.8092 72.3886 39.9249 72.4287C40.0406 72.4689 40.1882 72.509 40.3677 72.5491C40.6817 72.62 40.9403 72.705 41.1434 72.8042C41.3465 72.9034 41.4976 73.025 41.5968 73.169C41.696 73.3131 41.7456 73.4878 41.7456 73.6932C41.7456 73.8609 41.7101 74.0144 41.6393 74.1537C41.5708 74.293 41.4705 74.4135 41.3382 74.515C41.2083 74.6142 41.0525 74.6921 40.8707 74.7488C40.6912 74.8031 40.4893 74.8302 40.265 74.8302C39.9273 74.8302 39.6416 74.77 39.4078 74.6496C39.174 74.5292 38.9969 74.3733 38.8765 74.182C38.756 73.9908 38.6958 73.7889 38.6958 73.5763H39.3547C39.3641 73.7558 39.416 73.8987 39.5105 74.0049C39.605 74.1088 39.7207 74.1832 39.8576 74.2281C39.9946 74.2706 40.1304 74.2918 40.265 74.2918C40.4444 74.2918 40.5944 74.2682 40.7148 74.221C40.8376 74.1738 40.9309 74.1088 40.9946 74.0262C41.0584 73.9435 41.0903 73.8491 41.0903 73.7428ZM44.8661 74.1041V72.1312C44.8661 71.9801 44.8354 71.849 44.774 71.738C44.715 71.6247 44.6253 71.5373 44.5048 71.4759C44.3844 71.4145 44.2356 71.3838 44.0585 71.3838C43.8932 71.3838 43.748 71.4121 43.6229 71.4688C43.5001 71.5255 43.4032 71.5999 43.3324 71.692C43.2639 71.7841 43.2297 71.8832 43.2297 71.9895H42.5744C42.5744 71.8525 42.6098 71.7168 42.6807 71.5822C42.7515 71.4476 42.853 71.3259 42.9853 71.2173C43.1199 71.1063 43.2804 71.019 43.467 70.9552C43.6559 70.8891 43.8661 70.856 44.0975 70.856C44.3761 70.856 44.6217 70.9033 44.8342 70.9977C45.0491 71.0922 45.2168 71.235 45.3372 71.4263C45.46 71.6152 45.5214 71.8525 45.5214 72.1383V73.9235C45.5214 74.051 45.532 74.1868 45.5533 74.3308C45.5769 74.4749 45.6111 74.5988 45.656 74.7027V74.7594H44.9724C44.9393 74.6838 44.9133 74.5835 44.8945 74.4583C44.8756 74.3308 44.8661 74.2127 44.8661 74.1041ZM44.9795 72.4358L44.9865 72.8963H44.3242C44.1376 72.8963 43.9712 72.9116 43.8247 72.9423C43.6783 72.9707 43.5556 73.0143 43.4564 73.0734C43.3572 73.1324 43.2816 73.2068 43.2297 73.2965C43.1777 73.3839 43.1518 73.4866 43.1518 73.6047C43.1518 73.7251 43.1789 73.8349 43.2332 73.9341C43.2875 74.0333 43.369 74.1124 43.4776 74.1714C43.5886 74.2281 43.7244 74.2564 43.885 74.2564C44.0857 74.2564 44.2628 74.2139 44.4163 74.1289C44.5698 74.0439 44.6914 73.94 44.7811 73.8172C44.8732 73.6944 44.9228 73.5752 44.9299 73.4595L45.2097 73.7747C45.1932 73.8739 45.1483 73.9837 45.0751 74.1041C45.0019 74.2245 44.9039 74.3403 44.7811 74.4512C44.6607 74.5599 44.5166 74.6508 44.349 74.724C44.1837 74.7948 43.9971 74.8302 43.7893 74.8302C43.5296 74.8302 43.3017 74.7795 43.1057 74.6779C42.9121 74.5764 42.7609 74.4406 42.6523 74.2706C42.5461 74.0982 42.4929 73.9058 42.4929 73.6932C42.4929 73.4878 42.5331 73.3071 42.6134 73.1513C42.6936 72.9931 42.8094 72.862 42.9605 72.7581C43.1116 72.6519 43.2934 72.5716 43.506 72.5173C43.7185 72.463 43.9558 72.4358 44.2179 72.4358H44.9795ZM49.0351 70.9269H49.6302V74.6779C49.6302 75.0156 49.5617 75.3037 49.4248 75.5422C49.2878 75.7807 49.0965 75.9613 48.851 76.0841C48.6077 76.2093 48.3267 76.2719 48.0079 76.2719C47.8757 76.2719 47.7199 76.2506 47.5404 76.2081C47.3633 76.168 47.1885 76.0983 47.0162 75.9991C46.8461 75.9023 46.7033 75.7713 46.5876 75.606L46.9312 75.2163C47.0917 75.41 47.2594 75.5446 47.4341 75.6201C47.6112 75.6957 47.786 75.7335 47.9584 75.7335C48.1662 75.7335 48.3456 75.6945 48.4967 75.6166C48.6479 75.5387 48.7648 75.4229 48.8474 75.2695C48.9324 75.1183 48.9749 74.9318 48.9749 74.7098V71.7699L49.0351 70.9269ZM46.3963 72.8856V72.8113C46.3963 72.5184 46.4305 72.2528 46.499 72.0143C46.5699 71.7734 46.6702 71.5668 46.8001 71.3944C46.9323 71.222 47.0917 71.0898 47.2783 70.9977C47.4648 70.9033 47.675 70.856 47.9088 70.856C48.1496 70.856 48.3598 70.8985 48.5393 70.9835C48.7211 71.0662 48.8746 71.1878 48.9997 71.3484C49.1272 71.5066 49.2276 71.6979 49.3008 71.9222C49.374 72.1465 49.4248 72.4004 49.4531 72.6837V73.0096C49.4271 73.2906 49.3764 73.5433 49.3008 73.7676C49.2276 73.9919 49.1272 74.1832 48.9997 74.3414C48.8746 74.4996 48.7211 74.6213 48.5393 74.7063C48.3574 74.7889 48.1449 74.8302 47.9017 74.8302C47.6726 74.8302 47.4648 74.7818 47.2783 74.685C47.0941 74.5882 46.9359 74.4524 46.8036 74.2777C46.6714 74.1029 46.5699 73.8975 46.499 73.6614C46.4305 73.4229 46.3963 73.1643 46.3963 72.8856ZM47.0516 72.8113V72.8856C47.0516 73.0769 47.0705 73.2564 47.1083 73.424C47.1484 73.5917 47.2086 73.7393 47.2889 73.8668C47.3715 73.9943 47.4766 74.0947 47.6041 74.1679C47.7317 74.2387 47.884 74.2741 48.0611 74.2741C48.2783 74.2741 48.4578 74.2281 48.5995 74.136C48.7412 74.0439 48.8533 73.9223 48.936 73.7712C49.021 73.62 49.0871 73.4559 49.1343 73.2788V72.4252C49.1083 72.2953 49.0682 72.1701 49.0139 72.0497C48.9619 71.9269 48.8935 71.8183 48.8085 71.7238C48.7258 71.627 48.6231 71.5503 48.5003 71.4936C48.3775 71.4369 48.2335 71.4086 48.0682 71.4086C47.8887 71.4086 47.734 71.4464 47.6041 71.5219C47.4766 71.5951 47.3715 71.6967 47.2889 71.8266C47.2086 71.9541 47.1484 72.1028 47.1083 72.2729C47.0705 72.4405 47.0516 72.62 47.0516 72.8113ZM52.2159 74.8302C51.9491 74.8302 51.707 74.7854 51.4898 74.6956C51.2749 74.6035 51.0895 74.4749 50.9337 74.3096C50.7802 74.1443 50.6621 73.9483 50.5795 73.7216C50.4968 73.4949 50.4555 73.2469 50.4555 72.9777V72.829C50.4555 72.5173 50.5016 72.2398 50.5937 71.9966C50.6858 71.751 50.8109 71.5432 50.9691 71.3732C51.1273 71.2032 51.3068 71.0745 51.5075 70.9871C51.7082 70.8997 51.916 70.856 52.1309 70.856C52.4048 70.856 52.641 70.9033 52.8393 70.9977C53.0401 71.0922 53.2042 71.2244 53.3317 71.3944C53.4592 71.5621 53.5537 71.7604 53.615 71.9895C53.6764 72.2162 53.7071 72.4641 53.7071 72.7333V73.0273H50.8451V72.4925H53.0519V72.4429C53.0424 72.2729 53.007 72.1076 52.9456 71.947C52.8866 71.7864 52.7921 71.6542 52.6622 71.5503C52.5324 71.4464 52.3552 71.3944 52.1309 71.3944C51.9822 71.3944 51.8452 71.4263 51.72 71.4901C51.5949 71.5515 51.4874 71.6436 51.3977 71.7663C51.308 71.8891 51.2383 72.0391 51.1887 72.2162C51.1391 72.3933 51.1143 72.5976 51.1143 72.829V72.9777C51.1143 73.1596 51.1391 73.3308 51.1887 73.4913C51.2407 73.6495 51.3151 73.7889 51.4119 73.9093C51.5111 74.0297 51.6303 74.1242 51.7696 74.1927C51.9113 74.2611 52.0719 74.2954 52.2513 74.2954C52.4828 74.2954 52.6788 74.2482 52.8393 74.1537C52.9999 74.0592 53.1404 73.9329 53.2608 73.7747L53.6576 74.0899C53.5749 74.2151 53.4698 74.3344 53.3423 74.4477C53.2148 74.561 53.0578 74.6531 52.8712 74.724C52.687 74.7948 52.4686 74.8302 52.2159 74.8302ZM56.7037 73.7428C56.7037 73.6484 56.6825 73.561 56.64 73.4807C56.5998 73.3981 56.516 73.3237 56.3885 73.2576C56.2633 73.1891 56.0744 73.13 55.8218 73.0805C55.6092 73.0356 55.4168 72.9825 55.2444 72.9211C55.0744 72.8597 54.9292 72.7853 54.8087 72.6979C54.6907 72.6105 54.5997 72.5078 54.536 72.3898C54.4722 72.2717 54.4404 72.1335 54.4404 71.9753C54.4404 71.8242 54.4734 71.6813 54.5395 71.5467C54.608 71.4121 54.7036 71.2929 54.8264 71.189C54.9516 71.0851 55.1015 71.0036 55.2763 70.9446C55.451 70.8855 55.6458 70.856 55.8607 70.856C56.1677 70.856 56.4298 70.9103 56.6471 71.019C56.8643 71.1276 57.0308 71.2728 57.1465 71.4546C57.2622 71.6341 57.3201 71.8336 57.3201 72.0533H56.6648C56.6648 71.947 56.6329 71.8443 56.5691 71.7451C56.5077 71.6436 56.4168 71.5597 56.2964 71.4936C56.1783 71.4275 56.0331 71.3944 55.8607 71.3944C55.6789 71.3944 55.5313 71.4228 55.418 71.4794C55.307 71.5337 55.2255 71.6034 55.1736 71.6884C55.124 71.7734 55.0992 71.8632 55.0992 71.9576C55.0992 72.0285 55.111 72.0922 55.1346 72.1489C55.1606 72.2032 55.2054 72.254 55.2692 72.3012C55.333 72.3461 55.4227 72.3886 55.5384 72.4287C55.6541 72.4689 55.8017 72.509 55.9812 72.5491C56.2952 72.62 56.5538 72.705 56.7569 72.8042C56.9599 72.9034 57.1111 73.025 57.2103 73.169C57.3094 73.3131 57.359 73.4878 57.359 73.6932C57.359 73.8609 57.3236 74.0144 57.2528 74.1537C57.1843 74.293 57.0839 74.4135 56.9517 74.515C56.8218 74.6142 56.666 74.6921 56.4841 74.7488C56.3047 74.8031 56.1028 74.8302 55.8784 74.8302C55.5408 74.8302 55.255 74.77 55.0213 74.6496C54.7875 74.5292 54.6104 74.3733 54.4899 74.182C54.3695 73.9908 54.3093 73.7889 54.3093 73.5763H54.9681C54.9776 73.7558 55.0295 73.8987 55.124 74.0049C55.2184 74.1088 55.3341 74.1832 55.4711 74.2281C55.6081 74.2706 55.7438 74.2918 55.8784 74.2918C56.0579 74.2918 56.2078 74.2682 56.3283 74.221C56.4511 74.1738 56.5443 74.1088 56.6081 74.0262C56.6719 73.9435 56.7037 73.8491 56.7037 73.7428Z" fill="black"/>
<rect x="13.0065" y="67.9408" width="9.06771" height="6.89146" fill="#FDC500" stroke="black" stroke-width="0.362709"/>
<path d="M13.289 74.8323L17.5404 70.9079L21.7918 74.8323H13.289Z" fill="#FDC500" stroke="black" stroke-width="0.362709"/>
<path d="M13.289 67.9408L17.5404 71.8651L21.7918 67.9408H13.289Z" fill="#FDC500" stroke="black" stroke-width="0.362709"/>
<path d="M16.3354 83.2186H17.3095C17.2835 83.5634 17.1879 83.8692 17.0226 84.136C16.8573 84.4005 16.627 84.6083 16.3319 84.7594C16.0367 84.9106 15.6789 84.9861 15.2586 84.9861C14.9351 84.9861 14.6435 84.9295 14.3837 84.8161C14.1263 84.7004 13.9055 84.5363 13.7213 84.3238C13.5395 84.1089 13.4002 83.8515 13.3034 83.5516C13.2066 83.2493 13.1582 82.9105 13.1582 82.535V82.1418C13.1582 81.7664 13.2077 81.4275 13.3069 81.1253C13.4061 80.823 13.5478 80.5656 13.732 80.3531C13.9185 80.1382 14.1417 79.9729 14.4014 79.8572C14.6635 79.7415 14.9563 79.6836 15.2799 79.6836C15.7002 79.6836 16.0556 79.7616 16.346 79.9174C16.6365 80.0709 16.862 80.2822 17.0226 80.5514C17.1831 80.8206 17.2799 81.13 17.313 81.4795H16.3389C16.32 81.2622 16.2728 81.078 16.1973 80.9269C16.124 80.7758 16.0131 80.6613 15.8643 80.5833C15.7179 80.503 15.5231 80.4629 15.2799 80.4629C15.0909 80.4629 14.9245 80.4983 14.7804 80.5692C14.6387 80.64 14.5207 80.7463 14.4262 80.8879C14.3318 81.0273 14.2609 81.202 14.2137 81.4122C14.1665 81.62 14.1428 81.8608 14.1428 82.1348V82.535C14.1428 82.7971 14.1641 83.0321 14.2066 83.2399C14.2491 83.4477 14.3152 83.6236 14.405 83.7677C14.4947 83.9117 14.6104 84.0215 14.7521 84.0971C14.8938 84.1726 15.0626 84.2104 15.2586 84.2104C15.4971 84.2104 15.6907 84.1726 15.8395 84.0971C15.9906 84.0215 16.1052 83.9105 16.1831 83.7641C16.2634 83.6177 16.3141 83.4359 16.3354 83.2186ZM18.9849 79.4747V84.9153H18.0462V79.4747H18.9849ZM21.5989 84.9861C21.3085 84.9861 21.0475 84.9389 20.8161 84.8444C20.5847 84.75 20.3875 84.6189 20.2246 84.4513C20.064 84.2813 19.94 84.0841 19.8527 83.8597C19.7677 83.6331 19.7252 83.3898 19.7252 83.1301V82.9884C19.7252 82.6932 19.7677 82.4252 19.8527 82.1843C19.9377 81.9411 20.0581 81.7321 20.214 81.5574C20.3698 81.3827 20.5564 81.2481 20.7736 81.1536C20.9909 81.0591 21.2305 81.0119 21.4927 81.0119C21.7642 81.0119 22.0039 81.058 22.2117 81.1501C22.4195 81.2398 22.5931 81.3673 22.7324 81.5326C22.8717 81.6979 22.9768 81.8963 23.0476 82.1277C23.1185 82.3567 23.1539 82.6106 23.1539 82.8892V83.2824H20.1502V82.6377H22.2329V82.5669C22.2282 82.4181 22.1999 82.2823 22.1479 82.1595C22.096 82.0344 22.0157 81.9352 21.9071 81.862C21.7985 81.7864 21.658 81.7487 21.4856 81.7487C21.3462 81.7487 21.2246 81.7794 21.1207 81.8408C21.0192 81.8998 20.9342 81.9848 20.8657 82.0958C20.7996 82.2044 20.75 82.3343 20.7169 82.4854C20.6839 82.6365 20.6674 82.8042 20.6674 82.9884V83.1301C20.6674 83.2907 20.6886 83.4394 20.7311 83.5764C20.776 83.7133 20.8409 83.8326 20.9259 83.9341C21.0133 84.0333 21.1172 84.1112 21.2376 84.1679C21.3604 84.2222 21.4997 84.2494 21.6556 84.2494C21.8516 84.2494 22.0287 84.2116 22.1869 84.136C22.3475 84.0581 22.4868 83.9436 22.6049 83.7924L23.076 84.2813C22.9957 84.3993 22.8871 84.5127 22.7501 84.6213C22.6155 84.7299 22.4526 84.8185 22.2613 84.8869C22.07 84.9531 21.8492 84.9861 21.5989 84.9861ZM25.8919 84.1006V82.3331C25.8919 82.2032 25.8695 82.0911 25.8246 81.9966C25.7797 81.9022 25.7113 81.829 25.6192 81.777C25.5271 81.7251 25.4102 81.6991 25.2685 81.6991C25.1434 81.6991 25.0336 81.7203 24.9391 81.7628C24.847 81.8053 24.7762 81.8656 24.7266 81.9435C24.677 82.019 24.6522 82.1064 24.6522 82.2056H23.7135C23.7135 82.0474 23.7513 81.8974 23.8269 81.7558C23.9024 81.6117 24.0099 81.4842 24.1492 81.3732C24.2909 81.2599 24.4597 81.1713 24.6557 81.1076C24.8541 81.0438 25.0761 81.0119 25.3216 81.0119C25.6121 81.0119 25.8707 81.0615 26.0974 81.1607C26.3264 81.2575 26.5059 81.4039 26.6357 81.5999C26.768 81.7959 26.8341 82.0427 26.8341 82.3402V84.0121C26.8341 84.2033 26.8459 84.3674 26.8695 84.5044C26.8955 84.639 26.9333 84.7559 26.9829 84.8551V84.9153H26.0301C25.9852 84.8185 25.9509 84.6957 25.9273 84.5469C25.9037 84.3958 25.8919 84.247 25.8919 84.1006ZM26.023 82.5811L26.0301 83.1372H25.4385C25.2921 83.1372 25.1634 83.1525 25.0524 83.1832C24.9415 83.2115 24.8505 83.254 24.7797 83.3107C24.7089 83.365 24.6557 83.4312 24.6203 83.5091C24.5849 83.5846 24.5672 83.6708 24.5672 83.7677C24.5672 83.8621 24.5884 83.9471 24.6309 84.0227C24.6758 84.0982 24.7396 84.1585 24.8222 84.2033C24.9072 84.2458 25.0064 84.2671 25.1197 84.2671C25.285 84.2671 25.4291 84.234 25.5519 84.1679C25.6747 84.0994 25.7703 84.0168 25.8388 83.92C25.9073 83.8231 25.9439 83.731 25.9486 83.6437L26.2178 84.0475C26.1847 84.1443 26.1351 84.247 26.069 84.3556C26.0029 84.4643 25.9179 84.5658 25.814 84.6603C25.7101 84.7547 25.5849 84.8326 25.4385 84.894C25.2921 84.9554 25.1221 84.9861 24.9285 84.9861C24.6805 84.9861 24.4586 84.9365 24.2626 84.8374C24.0666 84.7382 23.9119 84.6024 23.7985 84.43C23.6852 84.2576 23.6285 84.0616 23.6285 83.842C23.6285 83.639 23.6663 83.4595 23.7419 83.3036C23.8174 83.1478 23.9296 83.0167 24.0784 82.9105C24.2271 82.8018 24.4113 82.7204 24.6309 82.6661C24.8529 82.6094 25.1068 82.5811 25.3925 82.5811H26.023ZM28.6122 81.8656V84.9153H27.6771V81.0828H28.5626L28.6122 81.8656ZM29.7776 81.058L29.7634 81.9293C29.7115 81.9199 29.6524 81.9128 29.5863 81.9081C29.5225 81.9033 29.4623 81.901 29.4057 81.901C29.2616 81.901 29.1353 81.921 29.0267 81.9612C28.918 81.999 28.8271 82.0545 28.7539 82.1277C28.6831 82.2009 28.6288 82.2906 28.591 82.3969C28.5532 82.5008 28.5319 82.6188 28.5272 82.7511L28.3253 82.7263C28.3253 82.4831 28.3501 82.2575 28.3997 82.0497C28.4493 81.8419 28.5213 81.6601 28.6158 81.5043C28.7102 81.3484 28.8283 81.228 28.97 81.143C29.114 81.0556 29.2793 81.0119 29.4659 81.0119C29.5178 81.0119 29.5733 81.0166 29.6323 81.0261C29.6937 81.0332 29.7421 81.0438 29.7776 81.058ZM33.7093 84.9153H32.5971L32.6041 84.1502H33.7093C34.0092 84.1502 34.2607 84.0841 34.4637 83.9518C34.6668 83.8172 34.8203 83.6248 34.9242 83.3745C35.0281 83.1218 35.0801 82.8196 35.0801 82.4677V82.2021C35.0801 81.9305 35.0505 81.6908 34.9915 81.483C34.9325 81.2752 34.8451 81.1005 34.7294 80.9588C34.616 80.8171 34.4755 80.7097 34.3079 80.6365C34.1402 80.5633 33.9478 80.5267 33.7305 80.5267H32.5758V79.758H33.7305C34.0753 79.758 34.3894 79.8159 34.6727 79.9316C34.9584 80.0473 35.2052 80.2138 35.413 80.431C35.6232 80.6459 35.7837 80.9033 35.8947 81.2032C36.0081 81.5031 36.0648 81.8384 36.0648 82.2091V82.4677C36.0648 82.8361 36.0081 83.1714 35.8947 83.4737C35.7837 83.7736 35.6232 84.0309 35.413 84.2458C35.2052 84.4607 34.9573 84.626 34.6692 84.7417C34.3811 84.8574 34.0611 84.9153 33.7093 84.9153ZM33.1425 79.758V84.9153H32.1685V79.758H33.1425ZM37.7579 81.8656V84.9153H36.8228V81.0828H37.7083L37.7579 81.8656ZM38.9232 81.058L38.909 81.9293C38.8571 81.9199 38.7981 81.9128 38.7319 81.9081C38.6682 81.9033 38.608 81.901 38.5513 81.901C38.4072 81.901 38.2809 81.921 38.1723 81.9612C38.0637 81.999 37.9728 82.0545 37.8996 82.1277C37.8287 82.2009 37.7744 82.2906 37.7366 82.3969C37.6988 82.5008 37.6776 82.6188 37.6729 82.7511L37.471 82.7263C37.471 82.4831 37.4958 82.2575 37.5453 82.0497C37.5949 81.8419 37.667 81.6601 37.7614 81.5043C37.8559 81.3484 37.9739 81.228 38.1156 81.143C38.2597 81.0556 38.425 81.0119 38.6115 81.0119C38.6635 81.0119 38.719 81.0166 38.778 81.0261C38.8394 81.0332 38.8878 81.0438 38.9232 81.058ZM40.4286 81.0828V84.9153H39.4899V81.0828H40.4286ZM39.4262 80.0803C39.4262 79.941 39.4734 79.8253 39.5679 79.7332C39.6647 79.6411 39.7946 79.5951 39.9575 79.5951C40.1204 79.5951 40.2491 79.6411 40.3436 79.7332C40.4404 79.8253 40.4888 79.941 40.4888 80.0803C40.4888 80.2173 40.4404 80.3318 40.3436 80.4239C40.2491 80.516 40.1204 80.5621 39.9575 80.5621C39.7946 80.5621 39.6647 80.516 39.5679 80.4239C39.4734 80.3318 39.4262 80.2173 39.4262 80.0803ZM42.2563 81.8195V86.3888H41.3177V81.0828H42.1855L42.2563 81.8195ZM44.718 82.9601V83.0344C44.718 83.3131 44.685 83.5717 44.6189 83.8102C44.5551 84.0463 44.4607 84.2529 44.3355 84.43C44.2103 84.6048 44.0545 84.7417 43.8679 84.8409C43.6838 84.9377 43.4712 84.9861 43.2304 84.9861C42.9942 84.9861 42.7888 84.9413 42.6141 84.8515C42.4393 84.7594 42.2917 84.6296 42.1713 84.4619C42.0509 84.2942 41.954 84.0994 41.8808 83.8775C41.81 83.6531 41.7569 83.4087 41.7215 83.1442V82.9069C41.7569 82.6259 41.81 82.3709 41.8808 82.1418C41.954 81.9104 42.0509 81.7109 42.1713 81.5432C42.2917 81.3732 42.4381 81.2422 42.6105 81.1501C42.7853 81.058 42.9895 81.0119 43.2233 81.0119C43.4665 81.0119 43.6802 81.058 43.8644 81.1501C44.051 81.2422 44.208 81.3744 44.3355 81.5468C44.463 81.7192 44.5587 81.9246 44.6224 82.1631C44.6862 82.4016 44.718 82.6672 44.718 82.9601ZM43.7794 83.0344V82.9601C43.7794 82.79 43.764 82.633 43.7333 82.489C43.7027 82.3426 43.6554 82.215 43.5917 82.1064C43.5279 81.9954 43.4453 81.9092 43.3437 81.8478C43.2422 81.7864 43.1194 81.7558 42.9753 81.7558C42.8313 81.7558 42.7073 81.7794 42.6034 81.8266C42.4995 81.8738 42.4145 81.9411 42.3484 82.0285C42.2823 82.1159 42.2303 82.2198 42.1925 82.3402C42.1571 82.4583 42.1335 82.5893 42.1217 82.7334V83.3213C42.143 83.4961 42.1843 83.6531 42.2457 83.7924C42.3071 83.9318 42.3968 84.0428 42.5149 84.1254C42.6353 84.208 42.7912 84.2494 42.9824 84.2494C43.1265 84.2494 43.2493 84.2175 43.3508 84.1537C43.4523 84.09 43.535 84.0026 43.5988 83.8916C43.6625 83.7783 43.7086 83.6484 43.7369 83.502C43.7652 83.3556 43.7794 83.1997 43.7794 83.0344Z" fill="black"/>
<path d="M13.9696 89.4611H15.1647C15.4358 89.4611 15.6647 89.5024 15.8515 89.5851C16.04 89.6677 16.183 89.79 16.2805 89.952C16.3797 90.1124 16.4292 90.3099 16.4292 90.5446C16.4292 90.7099 16.3954 90.8611 16.3276 90.9983C16.2615 91.1339 16.1656 91.2496 16.04 91.3455C15.916 91.4397 15.7672 91.5099 15.5937 91.5562L15.4598 91.6083H14.3366L14.3316 91.219H15.1796C15.3515 91.219 15.4945 91.1893 15.6085 91.1298C15.7226 91.0686 15.8086 90.9868 15.8664 90.8843C15.9243 90.7818 15.9532 90.6686 15.9532 90.5446C15.9532 90.4058 15.9259 90.2843 15.8714 90.1801C15.8168 90.076 15.7309 89.9958 15.6135 89.9396C15.4978 89.8818 15.3482 89.8528 15.1647 89.8528H14.4482V93.0712H13.9696V89.4611ZM16.0796 93.0712L15.2019 91.4347L15.7003 91.4322L16.5904 93.0414V93.0712H16.0796ZM18.5488 93.1208C18.362 93.1208 18.1926 93.0893 18.0405 93.0265C17.8901 92.9621 17.7603 92.872 17.6512 92.7563C17.5438 92.6406 17.4611 92.5034 17.4033 92.3447C17.3454 92.186 17.3165 92.0124 17.3165 91.824V91.7199C17.3165 91.5017 17.3487 91.3074 17.4132 91.1372C17.4777 90.9653 17.5653 90.8198 17.676 90.7008C17.7868 90.5818 17.9124 90.4917 18.0529 90.4305C18.1934 90.3694 18.3389 90.3388 18.4893 90.3388C18.681 90.3388 18.8463 90.3719 18.9852 90.438C19.1257 90.5041 19.2405 90.5967 19.3298 90.7157C19.4191 90.833 19.4852 90.9719 19.5282 91.1322C19.5711 91.2909 19.5926 91.4645 19.5926 91.6529V91.8587H17.5892V91.4843H19.1339V91.4496C19.1273 91.3306 19.1025 91.2149 19.0595 91.1025C19.0182 90.9901 18.9521 90.8975 18.8612 90.8248C18.7703 90.7521 18.6463 90.7157 18.4893 90.7157C18.3851 90.7157 18.2893 90.738 18.2017 90.7826C18.114 90.8256 18.0388 90.8901 17.976 90.976C17.9132 91.062 17.8644 91.1669 17.8297 91.2909C17.795 91.4149 17.7777 91.5579 17.7777 91.7199V91.824C17.7777 91.9513 17.795 92.0711 17.8297 92.1835C17.8661 92.2943 17.9182 92.3918 17.9859 92.4761C18.0554 92.5604 18.1388 92.6265 18.2364 92.6745C18.3355 92.7224 18.4479 92.7464 18.5736 92.7464C18.7356 92.7464 18.8728 92.7133 18.9852 92.6472C19.0976 92.5811 19.1959 92.4926 19.2802 92.3819L19.5579 92.6026C19.5001 92.6902 19.4265 92.7736 19.3372 92.853C19.248 92.9323 19.1381 92.9968 19.0075 93.0464C18.8785 93.096 18.7256 93.1208 18.5488 93.1208ZM20.9906 90.9215V93.0712H20.5295V90.3884H20.9658L20.9906 90.9215ZM20.8964 91.6281L20.6832 91.6207C20.6848 91.4372 20.7088 91.2678 20.7551 91.1124C20.8014 90.9554 20.87 90.819 20.9609 90.7033C21.0518 90.5876 21.165 90.4983 21.3006 90.4355C21.4361 90.371 21.5932 90.3388 21.7717 90.3388C21.8973 90.3388 22.013 90.357 22.1188 90.3934C22.2246 90.4281 22.3163 90.4834 22.394 90.5595C22.4717 90.6355 22.532 90.733 22.575 90.8521C22.618 90.9711 22.6395 91.1149 22.6395 91.2835V93.0712H22.1808V91.3058C22.1808 91.1653 22.1568 91.0529 22.1089 90.9686C22.0626 90.8843 21.9965 90.8231 21.9105 90.7851C21.8246 90.7454 21.7237 90.7256 21.608 90.7256C21.4725 90.7256 21.3593 90.7496 21.2683 90.7975C21.1774 90.8454 21.1047 90.9116 21.0502 90.9959C20.9956 91.0802 20.9559 91.1769 20.9311 91.286C20.908 91.3934 20.8964 91.5075 20.8964 91.6281ZM22.6345 91.3752L22.3271 91.4694C22.3287 91.3223 22.3527 91.181 22.399 91.0455C22.4469 90.9099 22.5155 90.7892 22.6048 90.6835C22.6957 90.5777 22.8073 90.4942 22.9395 90.433C23.0717 90.3702 23.223 90.3388 23.3932 90.3388C23.537 90.3388 23.6643 90.3578 23.7751 90.3958C23.8875 90.4339 23.9817 90.4925 24.0577 90.5719C24.1354 90.6496 24.1941 90.7496 24.2338 90.8719C24.2734 90.9942 24.2933 91.1397 24.2933 91.3083V93.0712H23.8321V91.3033C23.8321 91.1529 23.8081 91.0364 23.7602 90.9537C23.7139 90.8694 23.6478 90.8107 23.5618 90.7777C23.4775 90.743 23.3767 90.7256 23.2593 90.7256C23.1585 90.7256 23.0693 90.743 22.9916 90.7777C22.9139 90.8124 22.8486 90.8603 22.7957 90.9215C22.7428 90.981 22.7023 91.0496 22.6742 91.1273C22.6477 91.205 22.6345 91.2876 22.6345 91.3752ZM25.8921 90.3884V93.0712H25.4309V90.3884H25.8921ZM25.3962 89.6768C25.3962 89.6024 25.4185 89.5396 25.4632 89.4884C25.5095 89.4371 25.5772 89.4115 25.6665 89.4115C25.7541 89.4115 25.821 89.4371 25.8673 89.4884C25.9153 89.5396 25.9392 89.6024 25.9392 89.6768C25.9392 89.7479 25.9153 89.809 25.8673 89.8603C25.821 89.9099 25.7541 89.9347 25.6665 89.9347C25.5772 89.9347 25.5095 89.9099 25.4632 89.8603C25.4185 89.809 25.3962 89.7479 25.3962 89.6768ZM27.4935 90.9612V93.0712H27.0348V90.3884H27.4687L27.4935 90.9612ZM27.3844 91.6281L27.1934 91.6207C27.1951 91.4372 27.2224 91.2678 27.2753 91.1124C27.3282 90.9554 27.4025 90.819 27.4984 90.7033C27.5943 90.5876 27.7083 90.4983 27.8406 90.4355C27.9745 90.371 28.1224 90.3388 28.2844 90.3388C28.4166 90.3388 28.5357 90.357 28.6414 90.3934C28.7472 90.4281 28.8373 90.4843 28.9117 90.562C28.9877 90.6396 29.0456 90.7405 29.0853 90.8645C29.1249 90.9868 29.1448 91.1364 29.1448 91.3132V93.0712H28.6836V91.3083C28.6836 91.1678 28.6629 91.0554 28.6216 90.9711C28.5803 90.8851 28.5199 90.8231 28.4406 90.7851C28.3613 90.7454 28.2637 90.7256 28.148 90.7256C28.034 90.7256 27.9298 90.7496 27.8356 90.7975C27.7431 90.8454 27.6629 90.9116 27.5951 90.9959C27.529 91.0802 27.4769 91.1769 27.4389 91.286C27.4025 91.3934 27.3844 91.5075 27.3844 91.6281ZM31.9387 92.5505V89.2627H32.3999V93.0712H31.9784L31.9387 92.5505ZM30.1337 91.7595V91.7075C30.1337 91.5025 30.1585 91.3165 30.2081 91.1496C30.2593 90.981 30.3312 90.8364 30.4238 90.7157C30.518 90.595 30.6296 90.5025 30.7585 90.438C30.8891 90.3719 31.0345 90.3388 31.1949 90.3388C31.3635 90.3388 31.5106 90.3686 31.6362 90.4281C31.7635 90.4859 31.8709 90.5711 31.9586 90.6835C32.0478 90.7942 32.1181 90.9281 32.1693 91.0851C32.2205 91.2422 32.2561 91.4199 32.2759 91.6182V91.8463C32.2577 92.043 32.2222 92.2199 32.1693 92.3769C32.1181 92.534 32.0478 92.6678 31.9586 92.7786C31.8709 92.8893 31.7635 92.9745 31.6362 93.034C31.5089 93.0918 31.3602 93.1208 31.1899 93.1208C31.0329 93.1208 30.8891 93.0869 30.7585 93.0191C30.6296 92.9513 30.518 92.8563 30.4238 92.734C30.3312 92.6116 30.2593 92.4678 30.2081 92.3025C30.1585 92.1356 30.1337 91.9546 30.1337 91.7595ZM30.5949 91.7075V91.7595C30.5949 91.8934 30.6081 92.0191 30.6345 92.1364C30.6626 92.2538 30.7056 92.3571 30.7635 92.4463C30.8213 92.5356 30.8949 92.6059 30.9841 92.6571C31.0734 92.7067 31.18 92.7315 31.304 92.7315C31.4561 92.7315 31.5809 92.6992 31.6784 92.6348C31.7776 92.5703 31.8569 92.4852 31.9164 92.3794C31.9759 92.2736 32.0222 92.1587 32.0553 92.0348V91.4372C32.0354 91.3463 32.0065 91.2587 31.9685 91.1744C31.9321 91.0884 31.8842 91.0124 31.8247 90.9463C31.7668 90.8785 31.6949 90.8248 31.609 90.7851C31.5246 90.7454 31.4246 90.7256 31.3089 90.7256C31.1833 90.7256 31.075 90.7521 30.9841 90.8049C30.8949 90.8562 30.8213 90.9273 30.7635 91.0182C30.7056 91.1074 30.6626 91.2116 30.6345 91.3306C30.6081 91.448 30.5949 91.5736 30.5949 91.7075ZM34.6335 93.1208C34.4467 93.1208 34.2773 93.0893 34.1252 93.0265C33.9748 92.9621 33.845 92.872 33.7359 92.7563C33.6285 92.6406 33.5458 92.5034 33.488 92.3447C33.4301 92.186 33.4012 92.0124 33.4012 91.824V91.7199C33.4012 91.5017 33.4334 91.3074 33.4979 91.1372C33.5624 90.9653 33.65 90.8198 33.7607 90.7008C33.8715 90.5818 33.9971 90.4917 34.1376 90.4305C34.2781 90.3694 34.4236 90.3388 34.574 90.3388C34.7657 90.3388 34.931 90.3719 35.0699 90.438C35.2104 90.5041 35.3253 90.5967 35.4145 90.7157C35.5038 90.833 35.5699 90.9719 35.6129 91.1322C35.6558 91.2909 35.6773 91.4645 35.6773 91.6529V91.8587H33.6739V91.4843H35.2186V91.4496C35.212 91.3306 35.1872 91.2149 35.1443 91.1025C35.1029 90.9901 35.0368 90.8975 34.9459 90.8248C34.855 90.7521 34.731 90.7157 34.574 90.7157C34.4698 90.7157 34.374 90.738 34.2864 90.7826C34.1988 90.8256 34.1235 90.8901 34.0607 90.976C33.9979 91.062 33.9492 91.1669 33.9144 91.2909C33.8797 91.4149 33.8624 91.5579 33.8624 91.7199V91.824C33.8624 91.9513 33.8797 92.0711 33.9144 92.1835C33.9508 92.2943 34.0029 92.3918 34.0707 92.4761C34.1401 92.5604 34.2236 92.6265 34.3211 92.6745C34.4203 92.7224 34.5327 92.7464 34.6583 92.7464C34.8203 92.7464 34.9575 92.7133 35.0699 92.6472C35.1823 92.5811 35.2806 92.4926 35.3649 92.3819L35.6426 92.6026C35.5848 92.6902 35.5112 92.7736 35.422 92.853C35.3327 92.9323 35.2228 92.9968 35.0922 93.0464C34.9633 93.096 34.8104 93.1208 34.6335 93.1208ZM37.0778 90.8099V93.0712H36.6191V90.3884H37.0654L37.0778 90.8099ZM37.9159 90.3735L37.9134 90.8C37.8754 90.7917 37.839 90.7868 37.8043 90.7851C37.7713 90.7818 37.7332 90.7802 37.6903 90.7802C37.5845 90.7802 37.4911 90.7967 37.4101 90.8297C37.3291 90.8628 37.2605 90.9091 37.2043 90.9686C37.1481 91.0281 37.1035 91.0992 37.0704 91.1818C37.039 91.2628 37.0183 91.3521 37.0084 91.4496L36.8795 91.524C36.8795 91.362 36.8952 91.2099 36.9266 91.0678C36.9596 90.9256 37.0101 90.8 37.0778 90.6909C37.1456 90.5801 37.2316 90.4942 37.3357 90.433C37.4415 90.3702 37.5671 90.3388 37.7126 90.3388C37.7456 90.3388 37.7836 90.3429 37.8266 90.3512C37.8696 90.3578 37.8994 90.3653 37.9159 90.3735ZM38.7263 92.8282C38.7263 92.7505 38.7502 92.6852 38.7982 92.6323C38.8478 92.5778 38.9188 92.5505 39.0114 92.5505C39.104 92.5505 39.1742 92.5778 39.2222 92.6323C39.2718 92.6852 39.2965 92.7505 39.2965 92.8282C39.2965 92.9042 39.2718 92.9687 39.2222 93.0216C39.1742 93.0745 39.104 93.1009 39.0114 93.1009C38.9188 93.1009 38.8478 93.0745 38.7982 93.0216C38.7502 92.9687 38.7263 92.9042 38.7263 92.8282ZM38.7288 90.6388C38.7288 90.5611 38.7527 90.4958 38.8007 90.4429C38.8502 90.3884 38.9213 90.3611 39.0139 90.3611C39.1065 90.3611 39.1767 90.3884 39.2246 90.4429C39.2742 90.4958 39.299 90.5611 39.299 90.6388C39.299 90.7149 39.2742 90.7793 39.2246 90.8322C39.1767 90.8851 39.1065 90.9116 39.0139 90.9116C38.9213 90.9116 38.8502 90.8851 38.8007 90.8322C38.7527 90.7793 38.7288 90.7149 38.7288 90.6388ZM43.4042 91.3827H42.4893L42.4843 90.9983H43.3149C43.4521 90.9983 43.572 90.9752 43.6745 90.9289C43.7769 90.8826 43.8563 90.8165 43.9125 90.7306C43.9703 90.643 43.9993 90.5388 43.9993 90.4182C43.9993 90.2859 43.9737 90.1785 43.9224 90.0958C43.8728 90.0115 43.796 89.9504 43.6918 89.9123C43.5893 89.8727 43.4588 89.8528 43.3001 89.8528H42.5959V93.0712H42.1174V89.4611H43.3001C43.4852 89.4611 43.6505 89.4801 43.796 89.5181C43.9414 89.5545 44.0646 89.6123 44.1654 89.6917C44.2679 89.7694 44.3456 89.8685 44.3985 89.9892C44.4514 90.1099 44.4778 90.2545 44.4778 90.4231C44.4778 90.5719 44.4398 90.7066 44.3638 90.8273C44.2877 90.9463 44.1819 91.0438 44.0464 91.1198C43.9125 91.1959 43.7555 91.2446 43.5753 91.2661L43.4042 91.3827ZM43.3819 93.0712H42.3008L42.5711 92.6819H43.3819C43.534 92.6819 43.6629 92.6554 43.7687 92.6026C43.8761 92.5497 43.9579 92.4753 44.0142 92.3794C44.0704 92.2819 44.0985 92.167 44.0985 92.0348C44.0985 91.9009 44.0745 91.7852 44.0265 91.6876C43.9786 91.5901 43.9034 91.5149 43.8009 91.462C43.6984 91.4091 43.5662 91.3827 43.4042 91.3827H42.7224L42.7273 90.9983H43.6596L43.7612 91.1372C43.9348 91.1521 44.0819 91.2017 44.2026 91.286C44.3233 91.3686 44.415 91.4744 44.4778 91.6033C44.5423 91.7323 44.5745 91.8744 44.5745 92.0298C44.5745 92.2546 44.5249 92.4447 44.4257 92.6001C44.3282 92.7538 44.1902 92.8712 44.0117 92.9522C43.8332 93.0315 43.6232 93.0712 43.3819 93.0712ZM45.4965 91.7595V91.7025C45.4965 91.5091 45.5246 91.3298 45.5808 91.1645C45.637 90.9975 45.718 90.8529 45.8238 90.7306C45.9295 90.6066 46.0577 90.5107 46.2081 90.4429C46.3585 90.3735 46.5271 90.3388 46.7139 90.3388C46.9023 90.3388 47.0717 90.3735 47.2222 90.4429C47.3742 90.5107 47.5032 90.6066 47.609 90.7306C47.7164 90.8529 47.7982 90.9975 47.8544 91.1645C47.9106 91.3298 47.9387 91.5091 47.9387 91.7025V91.7595C47.9387 91.9529 47.9106 92.1323 47.8544 92.2976C47.7982 92.4629 47.7164 92.6075 47.609 92.7315C47.5032 92.8538 47.3751 92.9497 47.2246 93.0191C47.0759 93.0869 46.9073 93.1208 46.7188 93.1208C46.5304 93.1208 46.361 93.0869 46.2106 93.0191C46.0601 92.9497 45.9312 92.8538 45.8238 92.7315C45.718 92.6075 45.637 92.4629 45.5808 92.2976C45.5246 92.1323 45.4965 91.9529 45.4965 91.7595ZM45.9552 91.7025V91.7595C45.9552 91.8934 45.9709 92.0199 46.0023 92.1389C46.0337 92.2563 46.0808 92.3604 46.1436 92.4513C46.2081 92.5422 46.2882 92.6141 46.3841 92.667C46.48 92.7183 46.5916 92.7439 46.7188 92.7439C46.8445 92.7439 46.9544 92.7183 47.0486 92.667C47.1445 92.6141 47.2238 92.5422 47.2866 92.4513C47.3494 92.3604 47.3966 92.2563 47.428 92.1389C47.461 92.0199 47.4776 91.8934 47.4776 91.7595V91.7025C47.4776 91.5703 47.461 91.4455 47.428 91.3281C47.3966 91.2091 47.3486 91.1041 47.2842 91.0132C47.2213 90.9207 47.142 90.8479 47.0461 90.795C46.9519 90.7421 46.8412 90.7157 46.7139 90.7157C46.5883 90.7157 46.4775 90.7421 46.3816 90.795C46.2874 90.8479 46.2081 90.9207 46.1436 91.0132C46.0808 91.1041 46.0337 91.2091 46.0023 91.3281C45.9709 91.4455 45.9552 91.5703 45.9552 91.7025ZM48.7987 91.7595V91.7025C48.7987 91.5091 48.8268 91.3298 48.883 91.1645C48.9392 90.9975 49.0202 90.8529 49.126 90.7306C49.2318 90.6066 49.3599 90.5107 49.5103 90.4429C49.6607 90.3735 49.8293 90.3388 50.0161 90.3388C50.2046 90.3388 50.374 90.3735 50.5244 90.4429C50.6765 90.5107 50.8054 90.6066 50.9112 90.7306C51.0186 90.8529 51.1005 90.9975 51.1567 91.1645C51.2129 91.3298 51.241 91.5091 51.241 91.7025V91.7595C51.241 91.9529 51.2129 92.1323 51.1567 92.2976C51.1005 92.4629 51.0186 92.6075 50.9112 92.7315C50.8054 92.8538 50.6773 92.9497 50.5269 93.0191C50.3781 93.0869 50.2095 93.1208 50.0211 93.1208C49.8326 93.1208 49.6632 93.0869 49.5128 93.0191C49.3624 92.9497 49.2334 92.8538 49.126 92.7315C49.0202 92.6075 48.9392 92.4629 48.883 92.2976C48.8268 92.1323 48.7987 91.9529 48.7987 91.7595ZM49.2574 91.7025V91.7595C49.2574 91.8934 49.2731 92.0199 49.3045 92.1389C49.3359 92.2563 49.383 92.3604 49.4458 92.4513C49.5103 92.5422 49.5905 92.6141 49.6863 92.667C49.7822 92.7183 49.8938 92.7439 50.0211 92.7439C50.1467 92.7439 50.2566 92.7183 50.3508 92.667C50.4467 92.6141 50.5261 92.5422 50.5889 92.4513C50.6517 92.3604 50.6988 92.2563 50.7302 92.1389C50.7633 92.0199 50.7798 91.8934 50.7798 91.7595V91.7025C50.7798 91.5703 50.7633 91.4455 50.7302 91.3281C50.6988 91.2091 50.6509 91.1041 50.5864 91.0132C50.5236 90.9207 50.4442 90.8479 50.3484 90.795C50.2541 90.7421 50.1434 90.7157 50.0161 90.7157C49.8905 90.7157 49.7797 90.7421 49.6839 90.795C49.5896 90.8479 49.5103 90.9207 49.4458 91.0132C49.383 91.1041 49.3359 91.2091 49.3045 91.3281C49.2731 91.4455 49.2574 91.5703 49.2574 91.7025ZM52.6836 89.2627V93.0712H52.2224V89.2627H52.6836ZM54.3225 90.3884L53.1522 91.6405L52.4976 92.3199L52.4605 91.8314L52.9291 91.2711L53.7622 90.3884H54.3225ZM53.9035 93.0712L52.9464 91.7918L53.1845 91.3827L54.444 93.0712H53.9035ZM55.7007 90.3884V93.0712H55.2395V90.3884H55.7007ZM55.2048 89.6768C55.2048 89.6024 55.2271 89.5396 55.2718 89.4884C55.318 89.4371 55.3858 89.4115 55.4751 89.4115C55.5627 89.4115 55.6296 89.4371 55.6759 89.4884C55.7238 89.5396 55.7478 89.6024 55.7478 89.6768C55.7478 89.7479 55.7238 89.809 55.6759 89.8603C55.6296 89.9099 55.5627 89.9347 55.4751 89.9347C55.3858 89.9347 55.318 89.9099 55.2718 89.8603C55.2271 89.809 55.2048 89.7479 55.2048 89.6768ZM57.302 90.9612V93.0712H56.8433V90.3884H57.2772L57.302 90.9612ZM57.1929 91.6281L57.002 91.6207C57.0037 91.4372 57.031 91.2678 57.0838 91.1124C57.1367 90.9554 57.2111 90.819 57.307 90.7033C57.4029 90.5876 57.5169 90.4983 57.6492 90.4355C57.7831 90.371 57.931 90.3388 58.093 90.3388C58.2252 90.3388 58.3442 90.357 58.45 90.3934C58.5558 90.4281 58.6459 90.4843 58.7203 90.562C58.7963 90.6396 58.8542 90.7405 58.8938 90.8645C58.9335 90.9868 58.9534 91.1364 58.9534 91.3132V93.0712H58.4922V91.3083C58.4922 91.1678 58.4715 91.0554 58.4302 90.9711C58.3889 90.8851 58.3285 90.8231 58.2492 90.7851C58.1698 90.7454 58.0723 90.7256 57.9566 90.7256C57.8426 90.7256 57.7384 90.7496 57.6442 90.7975C57.5516 90.8454 57.4715 90.9116 57.4037 90.9959C57.3376 91.0802 57.2855 91.1769 57.2475 91.286C57.2111 91.3934 57.1929 91.5075 57.1929 91.6281ZM61.7944 90.3884H62.211V93.0141C62.211 93.2505 62.163 93.4522 62.0672 93.6191C61.9713 93.7861 61.8374 93.9125 61.6655 93.9985C61.4952 94.0861 61.2985 94.1299 61.0754 94.1299C60.9828 94.1299 60.8737 94.115 60.7481 94.0853C60.6241 94.0572 60.5018 94.0084 60.3811 93.939C60.2621 93.8712 60.1621 93.7795 60.0811 93.6638L60.3216 93.391C60.434 93.5266 60.5514 93.6208 60.6737 93.6737C60.7977 93.7266 60.92 93.753 61.0407 93.753C61.1861 93.753 61.3117 93.7257 61.4175 93.6712C61.5233 93.6166 61.6051 93.5357 61.663 93.4282C61.7225 93.3224 61.7523 93.1918 61.7523 93.0365V90.9785L61.7944 90.3884ZM59.9472 91.7595V91.7075C59.9472 91.5025 59.9712 91.3165 60.0191 91.1496C60.0687 90.981 60.139 90.8364 60.2299 90.7157C60.3224 90.595 60.434 90.5025 60.5646 90.438C60.6952 90.3719 60.8423 90.3388 61.0059 90.3388C61.1745 90.3388 61.3217 90.3686 61.4473 90.4281C61.5746 90.4859 61.682 90.5711 61.7696 90.6835C61.8589 90.7942 61.9291 90.9281 61.9804 91.0851C62.0316 91.2422 62.0672 91.4199 62.087 91.6182V91.8463C62.0688 92.043 62.0333 92.2199 61.9804 92.3769C61.9291 92.534 61.8589 92.6678 61.7696 92.7786C61.682 92.8893 61.5746 92.9745 61.4473 93.034C61.32 93.0918 61.1712 93.1208 61.001 93.1208C60.8406 93.1208 60.6952 93.0869 60.5646 93.0191C60.4357 92.9513 60.3249 92.8563 60.2324 92.734C60.1398 92.6116 60.0687 92.4678 60.0191 92.3025C59.9712 92.1356 59.9472 91.9546 59.9472 91.7595ZM60.4059 91.7075V91.7595C60.4059 91.8934 60.4191 92.0191 60.4456 92.1364C60.4737 92.2538 60.5158 92.3571 60.572 92.4463C60.6299 92.5356 60.7035 92.6059 60.7927 92.6571C60.882 92.7067 60.9886 92.7315 61.1126 92.7315C61.2646 92.7315 61.3903 92.6992 61.4894 92.6348C61.5886 92.5703 61.6671 92.4852 61.725 92.3794C61.7845 92.2736 61.8308 92.1587 61.8638 92.0348V91.4372C61.8457 91.3463 61.8176 91.2587 61.7795 91.1744C61.7432 91.0884 61.6952 91.0124 61.6357 90.9463C61.5779 90.8785 61.506 90.8248 61.42 90.7851C61.3341 90.7454 61.2332 90.7256 61.1175 90.7256C60.9919 90.7256 60.8836 90.7521 60.7927 90.8049C60.7035 90.8562 60.6299 90.9273 60.572 91.0182C60.5158 91.1074 60.4737 91.2116 60.4456 91.3306C60.4191 91.448 60.4059 91.5736 60.4059 91.7075ZM15.0234 96.3884V96.7405H13.5729V96.3884H15.0234ZM14.0638 95.7363H14.5225V98.4067C14.5225 98.4976 14.5366 98.5662 14.5647 98.6125C14.5928 98.6588 14.6292 98.6893 14.6738 98.7042C14.7184 98.7191 14.7664 98.7265 14.8176 98.7265C14.8556 98.7265 14.8953 98.7232 14.9366 98.7166C14.9796 98.7083 15.0118 98.7017 15.0333 98.6968L15.0358 99.0712C14.9994 99.0827 14.9515 99.0935 14.892 99.1034C14.8341 99.115 14.7639 99.1208 14.6812 99.1208C14.5688 99.1208 14.4655 99.0984 14.3713 99.0538C14.2771 99.0092 14.2019 98.9348 14.1457 98.8307C14.0911 98.7249 14.0638 98.5827 14.0638 98.4042V95.7363ZM15.7966 97.7595V97.7025C15.7966 97.5091 15.8247 97.3298 15.8809 97.1645C15.9371 96.9975 16.0181 96.8529 16.1239 96.7306C16.2297 96.6066 16.3578 96.5107 16.5082 96.4429C16.6586 96.3735 16.8272 96.3388 17.014 96.3388C17.2024 96.3388 17.3719 96.3735 17.5223 96.4429C17.6744 96.5107 17.8033 96.6066 17.9091 96.7306C18.0165 96.8529 18.0983 96.9975 18.1545 97.1645C18.2107 97.3298 18.2388 97.5091 18.2388 97.7025V97.7595C18.2388 97.9529 18.2107 98.1323 18.1545 98.2976C18.0983 98.4629 18.0165 98.6075 17.9091 98.7315C17.8033 98.8538 17.6752 98.9497 17.5248 99.0191C17.376 99.0869 17.2074 99.1208 17.019 99.1208C16.8305 99.1208 16.6611 99.0869 16.5107 99.0191C16.3602 98.9497 16.2313 98.8538 16.1239 98.7315C16.0181 98.6075 15.9371 98.4629 15.8809 98.2976C15.8247 98.1323 15.7966 97.9529 15.7966 97.7595ZM16.2553 97.7025V97.7595C16.2553 97.8934 16.271 98.0199 16.3024 98.1389C16.3338 98.2563 16.3809 98.3604 16.4437 98.4513C16.5082 98.5422 16.5884 98.6141 16.6842 98.667C16.7801 98.7183 16.8917 98.7439 17.019 98.7439C17.1446 98.7439 17.2545 98.7183 17.3487 98.667C17.4446 98.6141 17.5239 98.5422 17.5868 98.4513C17.6496 98.3604 17.6967 98.2563 17.7281 98.1389C17.7611 98.0199 17.7777 97.8934 17.7777 97.7595V97.7025C17.7777 97.5703 17.7611 97.4455 17.7281 97.3281C17.6967 97.2091 17.6487 97.1041 17.5843 97.0132C17.5215 96.9207 17.4421 96.8479 17.3462 96.795C17.252 96.7421 17.1413 96.7157 17.014 96.7157C16.8884 96.7157 16.7776 96.7421 16.6818 96.795C16.5875 96.8479 16.5082 96.9207 16.4437 97.0132C16.3809 97.1041 16.3338 97.2091 16.3024 97.3281C16.271 97.4455 16.2553 97.5703 16.2553 97.7025ZM19.6765 96.9215V99.0712H19.2154V96.3884H19.6517L19.6765 96.9215ZM19.5823 97.6281L19.3691 97.6207C19.3707 97.4372 19.3947 97.2678 19.441 97.1124C19.4873 96.9554 19.5559 96.819 19.6468 96.7033C19.7377 96.5876 19.8509 96.4983 19.9865 96.4355C20.122 96.371 20.279 96.3388 20.4576 96.3388C20.5832 96.3388 20.6989 96.357 20.8047 96.3934C20.9105 96.4281 21.0022 96.4834 21.0799 96.5595C21.1576 96.6355 21.2179 96.733 21.2609 96.8521C21.3039 96.9711 21.3254 97.1149 21.3254 97.2835V99.0712H20.8667V97.3058C20.8667 97.1653 20.8427 97.0529 20.7948 96.9686C20.7485 96.8843 20.6824 96.8231 20.5964 96.7851C20.5105 96.7454 20.4096 96.7256 20.2939 96.7256C20.1584 96.7256 20.0451 96.7496 19.9542 96.7975C19.8633 96.8454 19.7906 96.9116 19.736 96.9959C19.6815 97.0802 19.6418 97.1769 19.617 97.286C19.5939 97.3934 19.5823 97.5075 19.5823 97.6281ZM21.3204 97.3752L21.013 97.4694C21.0146 97.3223 21.0386 97.181 21.0849 97.0455C21.1328 96.9099 21.2014 96.7892 21.2907 96.6835C21.3816 96.5777 21.4931 96.4942 21.6254 96.433C21.7576 96.3702 21.9089 96.3388 22.0791 96.3388C22.2229 96.3388 22.3502 96.3578 22.461 96.3958C22.5734 96.4339 22.6676 96.4925 22.7436 96.5719C22.8213 96.6496 22.88 96.7496 22.9197 96.8719C22.9593 96.9942 22.9792 97.1397 22.9792 97.3083V99.0712H22.518V97.3033C22.518 97.1529 22.494 97.0364 22.4461 96.9537C22.3998 96.8694 22.3337 96.8107 22.2477 96.7777C22.1634 96.743 22.0626 96.7256 21.9452 96.7256C21.8444 96.7256 21.7551 96.743 21.6775 96.7777C21.5998 96.8124 21.5345 96.8603 21.4816 96.9215C21.4287 96.981 21.3882 97.0496 21.3601 97.1273C21.3336 97.205 21.3204 97.2876 21.3204 97.3752ZM23.9582 97.7595V97.7025C23.9582 97.5091 23.9863 97.3298 24.0425 97.1645C24.0987 96.9975 24.1796 96.8529 24.2854 96.7306C24.3912 96.6066 24.5193 96.5107 24.6698 96.4429C24.8202 96.3735 24.9888 96.3388 25.1756 96.3388C25.364 96.3388 25.5334 96.3735 25.6839 96.4429C25.8359 96.5107 25.9649 96.6066 26.0706 96.7306C26.1781 96.8529 26.2599 96.9975 26.3161 97.1645C26.3723 97.3298 26.4004 97.5091 26.4004 97.7025V97.7595C26.4004 97.9529 26.3723 98.1323 26.3161 98.2976C26.2599 98.4629 26.1781 98.6075 26.0706 98.7315C25.9649 98.8538 25.8368 98.9497 25.6863 99.0191C25.5376 99.0869 25.369 99.1208 25.1805 99.1208C24.9921 99.1208 24.8227 99.0869 24.6722 99.0191C24.5218 98.9497 24.3929 98.8538 24.2854 98.7315C24.1796 98.6075 24.0987 98.4629 24.0425 98.2976C23.9863 98.1323 23.9582 97.9529 23.9582 97.7595ZM24.4169 97.7025V97.7595C24.4169 97.8934 24.4326 98.0199 24.464 98.1389C24.4954 98.2563 24.5425 98.3604 24.6053 98.4513C24.6698 98.5422 24.7499 98.6141 24.8458 98.667C24.9417 98.7183 25.0532 98.7439 25.1805 98.7439C25.3061 98.7439 25.4161 98.7183 25.5103 98.667C25.6062 98.6141 25.6855 98.5422 25.7483 98.4513C25.8111 98.3604 25.8582 98.2563 25.8896 98.1389C25.9227 98.0199 25.9392 97.8934 25.9392 97.7595V97.7025C25.9392 97.5703 25.9227 97.4455 25.8896 97.3281C25.8582 97.2091 25.8103 97.1041 25.7458 97.0132C25.683 96.9207 25.6037 96.8479 25.5078 96.795C25.4136 96.7421 25.3028 96.7157 25.1756 96.7157C25.0499 96.7157 24.9392 96.7421 24.8433 96.795C24.7491 96.8479 24.6698 96.9207 24.6053 97.0132C24.5425 97.1041 24.4954 97.2091 24.464 97.3281C24.4326 97.4455 24.4169 97.5703 24.4169 97.7025ZM27.8406 96.8099V99.0712H27.3819V96.3884H27.8282L27.8406 96.8099ZM28.6786 96.3735L28.6762 96.8C28.6381 96.7917 28.6018 96.7868 28.5671 96.7851C28.534 96.7818 28.496 96.7802 28.453 96.7802C28.3472 96.7802 28.2538 96.7967 28.1728 96.8297C28.0918 96.8628 28.0232 96.9091 27.967 96.9686C27.9108 97.0281 27.8662 97.0992 27.8331 97.1818C27.8017 97.2628 27.7811 97.3521 27.7712 97.4496L27.6422 97.524C27.6422 97.362 27.6579 97.2099 27.6893 97.0678C27.7224 96.9256 27.7728 96.8 27.8406 96.6909C27.9084 96.5801 27.9943 96.4942 28.0984 96.433C28.2042 96.3702 28.3299 96.3388 28.4753 96.3388C28.5084 96.3388 28.5464 96.3429 28.5894 96.3512C28.6324 96.3578 28.6621 96.3653 28.6786 96.3735ZM29.9676 96.8099V99.0712H29.5089V96.3884H29.9552L29.9676 96.8099ZM30.8056 96.3735L30.8031 96.8C30.7651 96.7917 30.7287 96.7868 30.694 96.7851C30.661 96.7818 30.623 96.7802 30.58 96.7802C30.4742 96.7802 30.3808 96.7967 30.2998 96.8297C30.2188 96.8628 30.1502 96.9091 30.094 96.9686C30.0378 97.0281 29.9932 97.0992 29.9601 97.1818C29.9287 97.2628 29.908 97.3521 29.8981 97.4496L29.7692 97.524C29.7692 97.362 29.7849 97.2099 29.8163 97.0678C29.8494 96.9256 29.8998 96.8 29.9676 96.6909C30.0353 96.5801 30.1213 96.4942 30.2254 96.433C30.3312 96.3702 30.4568 96.3388 30.6023 96.3388C30.6354 96.3388 30.6734 96.3429 30.7163 96.3512C30.7593 96.3578 30.7891 96.3653 30.8056 96.3735ZM31.4647 97.7595V97.7025C31.4647 97.5091 31.4928 97.3298 31.549 97.1645C31.6052 96.9975 31.6862 96.8529 31.792 96.7306C31.8978 96.6066 32.0259 96.5107 32.1763 96.4429C32.3268 96.3735 32.4954 96.3388 32.6822 96.3388C32.8706 96.3388 33.04 96.3735 33.1904 96.4429C33.3425 96.5107 33.4715 96.6066 33.5772 96.7306C33.6847 96.8529 33.7665 96.9975 33.8227 97.1645C33.8789 97.3298 33.907 97.5091 33.907 97.7025V97.7595C33.907 97.9529 33.8789 98.1323 33.8227 98.2976C33.7665 98.4629 33.6847 98.6075 33.5772 98.7315C33.4715 98.8538 33.3433 98.9497 33.1929 99.0191C33.0442 99.0869 32.8756 99.1208 32.6871 99.1208C32.4987 99.1208 32.3292 99.0869 32.1788 99.0191C32.0284 98.9497 31.8995 98.8538 31.792 98.7315C31.6862 98.6075 31.6052 98.4629 31.549 98.2976C31.4928 98.1323 31.4647 97.9529 31.4647 97.7595ZM31.9234 97.7025V97.7595C31.9234 97.8934 31.9391 98.0199 31.9706 98.1389C32.002 98.2563 32.0491 98.3604 32.1119 98.4513C32.1763 98.5422 32.2565 98.6141 32.3524 98.667C32.4483 98.7183 32.5598 98.7439 32.6871 98.7439C32.8127 98.7439 32.9227 98.7183 33.0169 98.667C33.1128 98.6141 33.1921 98.5422 33.2549 98.4513C33.3177 98.3604 33.3648 98.2563 33.3962 98.1389C33.4293 98.0199 33.4458 97.8934 33.4458 97.7595V97.7025C33.4458 97.5703 33.4293 97.4455 33.3962 97.3281C33.3648 97.2091 33.3169 97.1041 33.2524 97.0132C33.1896 96.9207 33.1103 96.8479 33.0144 96.795C32.9202 96.7421 32.8094 96.7157 32.6822 96.7157C32.5565 96.7157 32.4458 96.7421 32.3499 96.795C32.2557 96.8479 32.1763 96.9207 32.1119 97.0132C32.0491 97.1041 32.002 97.2091 31.9706 97.3281C31.9391 97.4455 31.9234 97.5703 31.9234 97.7025ZM35.5678 98.5951L36.2571 96.3884H36.5596L36.5001 96.8273L35.7984 99.0712H35.5034L35.5678 98.5951ZM35.1042 96.3884L35.6918 98.6199L35.734 99.0712H35.424L34.6455 96.3884H35.1042ZM37.2192 98.6026L37.7795 96.3884H38.2357L37.4572 99.0712H37.1497L37.2192 98.6026ZM36.6266 96.3884L37.301 98.5579L37.3778 99.0712H37.0853L36.3637 96.8223L36.3042 96.3884H36.6266ZM42.3608 98.6125V97.2314C42.3608 97.1256 42.3393 97.0339 42.2963 96.9562C42.255 96.8769 42.1921 96.8157 42.1078 96.7727C42.0235 96.7297 41.9194 96.7082 41.7954 96.7082C41.6797 96.7082 41.5781 96.7281 41.4905 96.7678C41.4045 96.8074 41.3367 96.8595 41.2871 96.924C41.2392 96.9884 41.2152 97.0579 41.2152 97.1322H40.7565C40.7565 97.0364 40.7813 96.9413 40.8309 96.8471C40.8805 96.7529 40.9516 96.6678 41.0442 96.5917C41.1384 96.514 41.2508 96.4529 41.3814 96.4082C41.5136 96.362 41.6607 96.3388 41.8227 96.3388C42.0178 96.3388 42.1897 96.3719 42.3384 96.438C42.4889 96.5041 42.6062 96.6041 42.6905 96.738C42.7765 96.8702 42.8195 97.0364 42.8195 97.2364V98.486C42.8195 98.5753 42.8269 98.6703 42.8418 98.7712C42.8583 98.872 42.8823 98.9588 42.9137 99.0315V99.0712H42.4351C42.412 99.0183 42.3938 98.948 42.3806 98.8604C42.3674 98.7712 42.3608 98.6885 42.3608 98.6125ZM42.4401 97.4446L42.4451 97.767H41.9814C41.8508 97.767 41.7343 97.7777 41.6318 97.7992C41.5293 97.819 41.4434 97.8496 41.3739 97.8909C41.3045 97.9323 41.2516 97.9843 41.2152 98.0472C41.1789 98.1083 41.1607 98.1802 41.1607 98.2629C41.1607 98.3472 41.1797 98.424 41.2177 98.4935C41.2557 98.5629 41.3128 98.6183 41.3888 98.6596C41.4665 98.6992 41.5615 98.7191 41.6739 98.7191C41.8144 98.7191 41.9384 98.6893 42.0459 98.6298C42.1533 98.5703 42.2384 98.4976 42.3012 98.4116C42.3657 98.3257 42.4004 98.2422 42.4054 98.1612L42.6013 98.3819C42.5897 98.4513 42.5583 98.5282 42.507 98.6125C42.4558 98.6968 42.3872 98.7778 42.3012 98.8555C42.2169 98.9315 42.1161 98.9951 41.9988 99.0464C41.883 99.096 41.7525 99.1208 41.607 99.1208C41.4252 99.1208 41.2657 99.0852 41.1285 99.0141C40.9929 98.9431 40.8871 98.848 40.8111 98.729C40.7367 98.6083 40.6995 98.4736 40.6995 98.3249C40.6995 98.181 40.7276 98.0546 40.7838 97.9455C40.84 97.8347 40.921 97.743 41.0268 97.6703C41.1326 97.5959 41.2599 97.5397 41.4086 97.5017C41.5574 97.4637 41.7235 97.4446 41.907 97.4446H42.4401ZM45.0704 96.3884V96.7405H43.6199V96.3884H45.0704ZM44.1108 95.7363H44.5695V98.4067C44.5695 98.4976 44.5836 98.5662 44.6117 98.6125C44.6398 98.6588 44.6762 98.6893 44.7208 98.7042C44.7654 98.7191 44.8134 98.7265 44.8646 98.7265C44.9026 98.7265 44.9423 98.7232 44.9836 98.7166C45.0266 98.7083 45.0588 98.7017 45.0803 98.6968L45.0828 99.0712C45.0464 99.0827 44.9985 99.0935 44.939 99.1034C44.8811 99.115 44.8109 99.1208 44.7282 99.1208C44.6158 99.1208 44.5125 99.0984 44.4183 99.0538C44.3241 99.0092 44.2489 98.9348 44.1927 98.8307C44.1381 98.7249 44.1108 98.5827 44.1108 98.4042V95.7363ZM49.1384 95.4412V99.0712H48.6797V96.014L47.7549 96.3512V95.9371L49.0665 95.4412H49.1384ZM51.4017 96.9041V100.103H50.9406V96.3884H51.3621L51.4017 96.9041ZM53.2093 97.7075V97.7595C53.2093 97.9546 53.1861 98.1356 53.1398 98.3025C53.0935 98.4678 53.0258 98.6116 52.9365 98.734C52.8489 98.8563 52.7406 98.9513 52.6117 99.0191C52.4828 99.0869 52.3348 99.1208 52.1679 99.1208C51.9976 99.1208 51.8472 99.0927 51.7166 99.0365C51.586 98.9803 51.4753 98.8984 51.3844 98.791C51.2935 98.6835 51.2207 98.5546 51.1662 98.4042C51.1133 98.2538 51.0769 98.0843 51.0571 97.8959V97.6182C51.0769 97.4199 51.1141 97.2422 51.1687 97.0851C51.2232 96.9281 51.2951 96.7942 51.3844 96.6835C51.4753 96.5711 51.5852 96.4859 51.7141 96.4281C51.8431 96.3686 51.9918 96.3388 52.1604 96.3388C52.329 96.3388 52.4786 96.3719 52.6092 96.438C52.7398 96.5025 52.8497 96.595 52.939 96.7157C53.0283 96.8364 53.0952 96.981 53.1398 97.1496C53.1861 97.3165 53.2093 97.5025 53.2093 97.7075ZM52.7481 97.7595V97.7075C52.7481 97.5736 52.734 97.448 52.7059 97.3306C52.6778 97.2116 52.634 97.1074 52.5745 97.0182C52.5167 96.9273 52.4423 96.8562 52.3514 96.8049C52.2604 96.7521 52.1522 96.7256 52.0266 96.7256C51.9108 96.7256 51.81 96.7454 51.7241 96.7851C51.6398 96.8248 51.5679 96.8785 51.5083 96.9463C51.4488 97.0124 51.4001 97.0884 51.3621 97.1744C51.3257 97.2587 51.2984 97.3463 51.2802 97.4372V98.0794C51.3133 98.1951 51.3596 98.3042 51.4191 98.4067C51.4786 98.5075 51.5579 98.5893 51.6571 98.6521C51.7563 98.7133 51.8811 98.7439 52.0315 98.7439C52.1555 98.7439 52.2621 98.7183 52.3514 98.667C52.4423 98.6141 52.5167 98.5422 52.5745 98.4513C52.634 98.3604 52.6778 98.2563 52.7059 98.1389C52.734 98.0199 52.7481 97.8934 52.7481 97.7595ZM54.6569 96.9215V99.0712H54.1957V96.3884H54.6321L54.6569 96.9215ZM54.5626 97.6281L54.3494 97.6207C54.3511 97.4372 54.375 97.2678 54.4213 97.1124C54.4676 96.9554 54.5362 96.819 54.6271 96.7033C54.718 96.5876 54.8312 96.4983 54.9668 96.4355C55.1023 96.371 55.2594 96.3388 55.4379 96.3388C55.5635 96.3388 55.6792 96.357 55.785 96.3934C55.8908 96.4281 55.9825 96.4834 56.0602 96.5595C56.1379 96.6355 56.1982 96.733 56.2412 96.8521C56.2842 96.9711 56.3057 97.1149 56.3057 97.2835V99.0712H55.847V97.3058C55.847 97.1653 55.823 97.0529 55.7751 96.9686C55.7288 96.8843 55.6627 96.8231 55.5767 96.7851C55.4908 96.7454 55.3899 96.7256 55.2742 96.7256C55.1387 96.7256 55.0255 96.7496 54.9346 96.7975C54.8436 96.8454 54.7709 96.9116 54.7164 96.9959C54.6618 97.0802 54.6221 97.1769 54.5973 97.286C54.5742 97.3934 54.5626 97.5075 54.5626 97.6281ZM56.3007 97.3752L55.9933 97.4694C55.9949 97.3223 56.0189 97.181 56.0652 97.0455C56.1131 96.9099 56.1817 96.7892 56.271 96.6835C56.3619 96.5777 56.4735 96.4942 56.6057 96.433C56.7379 96.3702 56.8892 96.3388 57.0594 96.3388C57.2033 96.3388 57.3305 96.3578 57.4413 96.3958C57.5537 96.4339 57.6479 96.4925 57.7239 96.5719C57.8016 96.6496 57.8603 96.7496 57.9 96.8719C57.9397 96.9942 57.9595 97.1397 57.9595 97.3083V99.0712H57.4983V97.3033C57.4983 97.1529 57.4743 97.0364 57.4264 96.9537C57.3801 96.8694 57.314 96.8107 57.228 96.7777C57.1437 96.743 57.0429 96.7256 56.9256 96.7256C56.8247 96.7256 56.7355 96.743 56.6578 96.7777C56.5801 96.8124 56.5148 96.8603 56.4619 96.9215C56.409 96.981 56.3685 97.0496 56.3404 97.1273C56.314 97.205 56.3007 97.2876 56.3007 97.3752ZM59.0674 98.8282C59.0674 98.7505 59.0914 98.6852 59.1393 98.6323C59.1889 98.5778 59.26 98.5505 59.3525 98.5505C59.4451 98.5505 59.5154 98.5778 59.5633 98.6323C59.6129 98.6852 59.6377 98.7505 59.6377 98.8282C59.6377 98.9042 59.6129 98.9687 59.5633 99.0216C59.5154 99.0745 59.4451 99.1009 59.3525 99.1009C59.26 99.1009 59.1889 99.0745 59.1393 99.0216C59.0914 98.9687 59.0674 98.9042 59.0674 98.8282ZM60.8125 98.8282C60.8125 98.7505 60.8365 98.6852 60.8845 98.6323C60.934 98.5778 61.0051 98.5505 61.0977 98.5505C61.1902 98.5505 61.2605 98.5778 61.3084 98.6323C61.358 98.6852 61.3828 98.7505 61.3828 98.8282C61.3828 98.9042 61.358 98.9687 61.3084 99.0216C61.2605 99.0745 61.1902 99.1009 61.0977 99.1009C61.0051 99.1009 60.934 99.0745 60.8845 99.0216C60.8365 98.9687 60.8125 98.9042 60.8125 98.8282ZM62.5577 98.8282C62.5577 98.7505 62.5817 98.6852 62.6296 98.6323C62.6792 98.5778 62.7503 98.5505 62.8428 98.5505C62.9354 98.5505 63.0056 98.5778 63.0536 98.6323C63.1032 98.6852 63.128 98.7505 63.128 98.8282C63.128 98.9042 63.1032 98.9687 63.0536 99.0216C63.0056 99.0745 62.9354 99.1009 62.8428 99.1009C62.7503 99.1009 62.6792 99.0745 62.6296 99.0216C62.5817 98.9687 62.5577 98.9042 62.5577 98.8282Z" fill="black"/>
<path d="M38.8057 24.3737V28H38.3475V24.9459L37.4236 25.2828V24.8691L38.7339 24.3737H38.8057ZM41.2278 25.9714H41.5548C41.7149 25.9714 41.8471 25.9449 41.9511 25.8921C42.0568 25.8376 42.1352 25.7641 42.1864 25.6716C42.2392 25.5775 42.2657 25.4718 42.2657 25.3546C42.2657 25.2159 42.2425 25.0995 42.1963 25.0053C42.1501 24.9112 42.0807 24.8402 41.9882 24.7923C41.8958 24.7444 41.7785 24.7205 41.6365 24.7205C41.5077 24.7205 41.3938 24.7461 41.2947 24.7973C41.1973 24.8468 41.1205 24.9178 41.0643 25.0103C41.0098 25.1028 40.9826 25.2117 40.9826 25.3372H40.5243C40.5243 25.154 40.5706 24.9872 40.6631 24.8369C40.7555 24.6866 40.8852 24.5669 41.0519 24.4777C41.2204 24.3886 41.4152 24.344 41.6365 24.344C41.8545 24.344 42.0452 24.3828 42.2087 24.4604C42.3722 24.5364 42.4993 24.6503 42.5901 24.8022C42.681 24.9525 42.7264 25.1399 42.7264 25.3645C42.7264 25.4553 42.7049 25.5527 42.662 25.6568C42.6207 25.7592 42.5555 25.8549 42.4663 25.9441C42.3788 26.0333 42.2648 26.1068 42.1245 26.1646C41.9841 26.2207 41.8157 26.2488 41.6192 26.2488H41.2278V25.9714ZM41.2278 26.3479V26.0729H41.6192C41.8487 26.0729 42.0386 26.1002 42.1889 26.1547C42.3391 26.2091 42.4572 26.2818 42.5431 26.3726C42.6306 26.4634 42.6917 26.5634 42.7264 26.6723C42.7627 26.7797 42.7809 26.887 42.7809 26.9943C42.7809 27.1628 42.752 27.3122 42.6942 27.4427C42.638 27.5731 42.5579 27.6838 42.4539 27.7746C42.3515 27.8654 42.231 27.9339 42.0923 27.9802C41.9536 28.0264 41.8025 28.0495 41.639 28.0495C41.4821 28.0495 41.3343 28.0272 41.1956 27.9827C41.0585 27.9381 40.9372 27.8737 40.8315 27.7895C40.7258 27.7036 40.6432 27.5987 40.5838 27.4749C40.5243 27.3494 40.4946 27.2065 40.4946 27.0464H40.9529C40.9529 27.1719 40.9801 27.2817 41.0346 27.3758C41.0907 27.4699 41.17 27.5434 41.2724 27.5963C41.3764 27.6474 41.4986 27.673 41.639 27.673C41.7793 27.673 41.8999 27.6491 42.0006 27.6012C42.103 27.5517 42.1814 27.4774 42.2359 27.3783C42.2921 27.2792 42.3202 27.1545 42.3202 27.0043C42.3202 26.854 42.2888 26.731 42.226 26.6352C42.1633 26.5378 42.0741 26.4659 41.9585 26.4197C41.8446 26.3718 41.71 26.3479 41.5548 26.3479H41.2278ZM43.8481 27.7573C43.8481 27.6796 43.872 27.6144 43.9199 27.5616C43.9694 27.5071 44.0404 27.4798 44.1329 27.4798C44.2254 27.4798 44.2956 27.5071 44.3435 27.5616C44.393 27.6144 44.4178 27.6796 44.4178 27.7573C44.4178 27.8332 44.393 27.8976 44.3435 27.9505C44.2956 28.0033 44.2254 28.0297 44.1329 28.0297C44.0404 28.0297 43.9694 28.0033 43.9199 27.9505C43.872 27.8976 43.8481 27.8332 43.8481 27.7573ZM43.8505 25.5701C43.8505 25.4925 43.8745 25.4272 43.9224 25.3744C43.9719 25.3199 44.0429 25.2927 44.1354 25.2927C44.2279 25.2927 44.298 25.3199 44.3459 25.3744C44.3955 25.4272 44.4202 25.4925 44.4202 25.5701C44.4202 25.646 44.3955 25.7104 44.3459 25.7633C44.298 25.8161 44.2279 25.8426 44.1354 25.8426C44.0429 25.8426 43.9719 25.8161 43.9224 25.7633C43.8745 25.7104 43.8505 25.646 43.8505 25.5701ZM46.1215 25.9714H46.4485C46.6087 25.9714 46.7408 25.9449 46.8448 25.8921C46.9505 25.8376 47.0289 25.7641 47.0801 25.6716C47.133 25.5775 47.1594 25.4718 47.1594 25.3546C47.1594 25.2159 47.1363 25.0995 47.09 25.0053C47.0438 24.9112 46.9744 24.8402 46.882 24.7923C46.7895 24.7444 46.6722 24.7205 46.5302 24.7205C46.4014 24.7205 46.2875 24.7461 46.1884 24.7973C46.091 24.8468 46.0142 24.9178 45.958 25.0103C45.9036 25.1028 45.8763 25.2117 45.8763 25.3372H45.4181C45.4181 25.154 45.4643 24.9872 45.5568 24.8369C45.6493 24.6866 45.7789 24.5669 45.9457 24.4777C46.1141 24.3886 46.309 24.344 46.5302 24.344C46.7482 24.344 46.9389 24.3828 47.1024 24.4604C47.2659 24.5364 47.393 24.6503 47.4839 24.8022C47.5747 24.9525 47.6201 25.1399 47.6201 25.3645C47.6201 25.4553 47.5986 25.5527 47.5557 25.6568C47.5144 25.7592 47.4492 25.8549 47.36 25.9441C47.2725 26.0333 47.1586 26.1068 47.0182 26.1646C46.8778 26.2207 46.7094 26.2488 46.5129 26.2488H46.1215V25.9714ZM46.1215 26.3479V26.0729H46.5129C46.7424 26.0729 46.9323 26.1002 47.0826 26.1547C47.2329 26.2091 47.3509 26.2818 47.4368 26.3726C47.5243 26.4634 47.5854 26.5634 47.6201 26.6723C47.6564 26.7797 47.6746 26.887 47.6746 26.9943C47.6746 27.1628 47.6457 27.3122 47.5879 27.4427C47.5318 27.5731 47.4517 27.6838 47.3476 27.7746C47.2453 27.8654 47.1247 27.9339 46.986 27.9802C46.8473 28.0264 46.6962 28.0495 46.5327 28.0495C46.3758 28.0495 46.228 28.0272 46.0893 27.9827C45.9523 27.9381 45.8309 27.8737 45.7252 27.7895C45.6195 27.7036 45.537 27.5987 45.4775 27.4749C45.4181 27.3494 45.3883 27.2065 45.3883 27.0464H45.8466C45.8466 27.1719 45.8738 27.2817 45.9283 27.3758C45.9845 27.4699 46.0637 27.5434 46.1661 27.5963C46.2701 27.6474 46.3923 27.673 46.5327 27.673C46.6731 27.673 46.7936 27.6491 46.8943 27.6012C46.9967 27.5517 47.0752 27.4774 47.1297 27.3783C47.1858 27.2792 47.2139 27.1545 47.2139 27.0043C47.2139 26.854 47.1825 26.731 47.1198 26.6352C47.057 26.5378 46.9678 26.4659 46.8522 26.4197C46.7383 26.3718 46.6037 26.3479 46.4485 26.3479H46.1215ZM50.976 25.9094V26.4593C50.976 26.7549 50.9496 27.0043 50.8967 27.2074C50.8439 27.4105 50.7679 27.574 50.6689 27.6978C50.5698 27.8217 50.4501 27.9117 50.3097 27.9678C50.171 28.0223 50.0141 28.0495 49.8391 28.0495C49.7004 28.0495 49.5724 28.0322 49.4551 27.9975C49.3379 27.9628 49.2322 27.9075 49.1381 27.8316C49.0456 27.754 48.9664 27.6532 48.9003 27.5294C48.8342 27.4055 48.7839 27.2553 48.7492 27.0786C48.7145 26.9019 48.6972 26.6955 48.6972 26.4593V25.9094C48.6972 25.6138 48.7236 25.3661 48.7765 25.1663C48.8309 24.9665 48.9077 24.8063 49.0068 24.6858C49.1059 24.5636 49.2248 24.4761 49.3635 24.4232C49.5039 24.3704 49.6607 24.344 49.8341 24.344C49.9745 24.344 50.1033 24.3613 50.2205 24.396C50.3394 24.429 50.4451 24.4827 50.5376 24.557C50.6301 24.6297 50.7085 24.7271 50.7729 24.8493C50.839 24.9698 50.8893 25.1176 50.924 25.2927C50.9587 25.4677 50.976 25.6733 50.976 25.9094ZM50.5153 26.5336V25.8326C50.5153 25.6708 50.5054 25.5288 50.4856 25.4066C50.4674 25.2828 50.4402 25.1771 50.4038 25.0895C50.3675 25.002 50.3213 24.931 50.2651 24.8765C50.2106 24.822 50.147 24.7824 50.0744 24.7576C50.0034 24.7312 49.9233 24.718 49.8341 24.718C49.7251 24.718 49.6285 24.7386 49.5443 24.7799C49.4601 24.8196 49.3891 24.8831 49.3313 24.9707C49.2752 25.0582 49.2322 25.1729 49.2025 25.315C49.1728 25.457 49.1579 25.6295 49.1579 25.8326V26.5336C49.1579 26.6955 49.167 26.8383 49.1852 26.9621C49.205 27.086 49.2339 27.1933 49.2718 27.2842C49.3098 27.3733 49.3561 27.4468 49.4106 27.5046C49.4651 27.5624 49.5278 27.6053 49.5988 27.6334C49.6715 27.6598 49.7516 27.673 49.8391 27.673C49.9514 27.673 50.0496 27.6516 50.1338 27.6086C50.2181 27.5657 50.2882 27.4988 50.3444 27.408C50.4022 27.3155 50.4451 27.1975 50.4732 27.0538C50.5013 26.9085 50.5153 26.7351 50.5153 26.5336Z" fill="white"/>
<rect x="77.75" y="24.25" width="3.5" height="7.5" rx="0.75" transform="rotate(90 77.75 24.25)" stroke="black" stroke-width="0.5"/>
<path d="M72.75 24.25V27.75H70.5C70.3619 27.75 70.25 27.6381 70.25 27.5V24.5C70.25 24.3619 70.3619 24.25 70.5 24.25H72.75Z" fill="#EA001B" stroke="black" stroke-width="0.5"/>
<path d="M78 25V27" stroke="black"/>
<path d="M15.65 24.8134L15.2763 24.7231L15.4197 23.4214H16.8383V23.8092H15.8076L15.7403 24.4114C15.7769 24.3889 15.83 24.3665 15.8997 24.3441C15.9705 24.3205 16.0502 24.3087 16.1388 24.3087C16.2616 24.3087 16.3714 24.3287 16.4682 24.3689C16.565 24.4078 16.6471 24.4645 16.7144 24.5389C16.7828 24.6133 16.8342 24.7042 16.8684 24.8116C16.9039 24.9179 16.9216 25.0383 16.9216 25.1729C16.9216 25.291 16.9039 25.402 16.8684 25.5059C16.8342 25.6086 16.7817 25.7001 16.7108 25.7804C16.64 25.8595 16.5508 25.9221 16.4434 25.9681C16.336 26.013 16.2096 26.0354 16.0644 26.0354C15.9546 26.0354 15.8489 26.0195 15.7474 25.9876C15.647 25.9545 15.5567 25.9067 15.4764 25.8441C15.3961 25.7804 15.3318 25.7025 15.2834 25.6104C15.2361 25.5183 15.2102 25.4126 15.2054 25.2934H15.6677C15.6759 25.3725 15.6972 25.4398 15.7314 25.4953C15.7657 25.5507 15.8105 25.5933 15.866 25.6228C15.9227 25.6523 15.9882 25.667 16.0626 25.667C16.1299 25.667 16.1878 25.6546 16.2362 25.6299C16.2858 25.6039 16.3265 25.5679 16.3584 25.5218C16.3903 25.4758 16.4139 25.4215 16.4292 25.3589C16.4446 25.2963 16.4523 25.2278 16.4523 25.1534C16.4523 25.0814 16.4434 25.0159 16.4257 24.9569C16.408 24.8966 16.3808 24.8447 16.3442 24.801C16.3076 24.7573 16.2616 24.7237 16.2061 24.7001C16.1518 24.6764 16.088 24.6646 16.0148 24.6646C15.9168 24.6646 15.8412 24.6794 15.7881 24.7089C15.7362 24.7384 15.6901 24.7733 15.65 24.8134ZM18.7915 24.0837H19.2166V25.9416C19.2166 26.1151 19.1788 26.2621 19.1032 26.3825C19.0288 26.5042 18.9243 26.5962 18.7897 26.6588C18.6551 26.7226 18.4987 26.7545 18.3204 26.7545C18.2437 26.7545 18.1604 26.7438 18.0707 26.7226C17.9821 26.7013 17.8965 26.6677 17.8139 26.6216C17.7324 26.5768 17.6645 26.5183 17.6102 26.4463L17.821 26.17C17.8847 26.2444 17.9568 26.3005 18.037 26.3383C18.1173 26.3772 18.2041 26.3967 18.2974 26.3967C18.3918 26.3967 18.4721 26.379 18.5383 26.3436C18.6055 26.3093 18.6569 26.2586 18.6923 26.1913C18.7289 26.1252 18.7472 26.0437 18.7472 25.9469V24.5212L18.7915 24.0837ZM17.4969 25.0649V25.0277C17.4969 24.8813 17.5146 24.7485 17.55 24.6292C17.5854 24.5088 17.6362 24.4055 17.7023 24.3193C17.7696 24.2331 17.8505 24.1664 17.945 24.1192C18.0406 24.0719 18.148 24.0483 18.2673 24.0483C18.3936 24.0483 18.4999 24.0713 18.5861 24.1174C18.6734 24.1634 18.7455 24.229 18.8021 24.314C18.86 24.399 18.9049 24.4999 18.9367 24.6168C18.9698 24.7325 18.9952 24.86 19.0129 24.9994V25.1003C18.9964 25.2361 18.9698 25.3607 18.9332 25.474C18.8978 25.5873 18.8505 25.6865 18.7915 25.7715C18.7325 25.8554 18.6593 25.9203 18.5719 25.9664C18.4845 26.0124 18.3818 26.0354 18.2637 26.0354C18.1457 26.0354 18.0394 26.0112 17.945 25.9628C17.8505 25.9144 17.7696 25.8465 17.7023 25.7591C17.6362 25.6718 17.5854 25.569 17.55 25.451C17.5146 25.3329 17.4969 25.2042 17.4969 25.0649ZM17.9644 25.0277V25.0649C17.9644 25.1475 17.9727 25.2249 17.9892 25.2969C18.0058 25.3689 18.0311 25.4327 18.0654 25.4882C18.0996 25.5425 18.1427 25.585 18.1947 25.6157C18.2466 25.6464 18.3086 25.6617 18.3806 25.6617C18.4774 25.6617 18.5566 25.6417 18.6179 25.6015C18.6805 25.5602 18.7278 25.5041 18.7596 25.4333C18.7927 25.3612 18.8139 25.2804 18.8234 25.1906V24.9126C18.8175 24.8417 18.8045 24.7762 18.7844 24.716C18.7655 24.6558 18.739 24.6038 18.7047 24.5601C18.6705 24.5165 18.6268 24.4822 18.5737 24.4574C18.5205 24.4326 18.4574 24.4202 18.3842 24.4202C18.3133 24.4202 18.2513 24.4362 18.1982 24.4681C18.1451 24.4988 18.1014 24.5418 18.0672 24.5973C18.0329 24.6528 18.0069 24.7172 17.9892 24.7904C17.9727 24.8636 17.9644 24.9427 17.9644 25.0277Z" fill="black"/>
<path d="M9 27.25C9 27.1119 9.11193 27 9.25 27C9.38807 27 9.5 27.1119 9.5 27.25V27.75C9.5 27.8881 9.38807 28 9.25 28C9.11193 28 9 27.8881 9 27.75V27.25Z" fill="#D9D9D9"/>
<path d="M10 26.25C10 26.1119 10.1119 26 10.25 26C10.3881 26 10.5 26.1119 10.5 26.25V27.75C10.5 27.8881 10.3881 28 10.25 28C10.1119 28 10 27.8881 10 27.75V26.25Z" fill="#D9D9D9"/>
<path d="M11 25.25C11 25.1119 11.1119 25 11.25 25C11.3881 25 11.5 25.1119 11.5 25.25V27.75C11.5 27.8881 11.3881 28 11.25 28C11.1119 28 11 27.8881 11 27.75V25.25Z" fill="#D9D9D9"/>
<path d="M12 24.25C12 24.1119 12.1119 24 12.25 24C12.3881 24 12.5 24.1119 12.5 24.25V27.75C12.5 27.8881 12.3881 28 12.25 28C12.1119 28 12 27.8881 12 27.75V24.25Z" fill="#D9D9D9"/>
<path d="M13 23.25C13 23.1119 13.1119 23 13.25 23C13.3881 23 13.5 23.1119 13.5 23.25V27.75C13.5 27.8881 13.3881 28 13.25 28C13.1119 28 13 27.8881 13 27.75V23.25Z" fill="#D9D9D9"/>
<path d="M26.2016 48.5458V61H24.6278V50.5109L21.4547 51.6679V50.2472L25.9549 48.5458H26.2016ZM34.52 54.0328H35.6429C36.193 54.0328 36.6467 53.9421 37.004 53.7606C37.367 53.5734 37.6364 53.3211 37.8122 53.0035C37.9937 52.6802 38.0844 52.3172 38.0844 51.9146C38.0844 51.4382 38.005 51.0384 37.8462 50.7151C37.6874 50.3918 37.4492 50.148 37.1316 49.9835C36.814 49.819 36.4114 49.7368 35.9236 49.7368C35.4813 49.7368 35.09 49.8247 34.7497 50.0005C34.4151 50.1707 34.1514 50.4145 33.9585 50.7321C33.7714 51.0497 33.6778 51.424 33.6778 51.855H32.104C32.104 51.2255 32.2628 50.6527 32.5804 50.1366C32.898 49.6205 33.3432 49.2094 33.916 48.9031C34.4945 48.5969 35.1637 48.4438 35.9236 48.4438C36.6723 48.4438 37.3273 48.577 37.8887 48.8436C38.4502 49.1045 38.8869 49.4958 39.1988 50.0175C39.5107 50.5336 39.6667 51.1773 39.6667 51.9486C39.6667 52.2605 39.593 52.5951 39.4455 52.9524C39.3037 53.3041 39.0797 53.633 38.7735 53.9392C38.4729 54.2455 38.0816 54.4979 37.5995 54.6964C37.1174 54.8892 36.539 54.9856 35.8641 54.9856H34.52V54.0328ZM34.52 55.3259V54.3816H35.8641C36.6524 54.3816 37.3046 54.4752 37.8207 54.6623C38.3368 54.8495 38.7423 55.099 39.0372 55.4109C39.3378 55.7229 39.5476 56.066 39.6667 56.4403C39.7915 56.8089 39.8538 57.1775 39.8538 57.5462C39.8538 58.1247 39.7546 58.6379 39.5561 59.0859C39.3633 59.534 39.0882 59.9139 38.7309 60.2259C38.3793 60.5378 37.9653 60.7731 37.4889 60.9319C37.0125 61.0907 36.4936 61.1701 35.9321 61.1701C35.3934 61.1701 34.8858 61.0936 34.4094 60.9405C33.9387 60.7873 33.5218 60.5661 33.1589 60.2769C32.7959 59.982 32.5124 59.6219 32.3082 59.1965C32.104 58.7655 32.0019 58.2749 32.0019 57.7248H33.5757C33.5757 58.1558 33.6693 58.533 33.8565 58.8563C34.0493 59.1795 34.3215 59.4319 34.6731 59.6134C35.0304 59.7892 35.4501 59.8771 35.9321 59.8771C36.4142 59.8771 36.8282 59.7948 37.1742 59.6304C37.5258 59.4602 37.7952 59.205 37.9823 58.8648C38.1751 58.5245 38.2716 58.0963 38.2716 57.5802C38.2716 57.0641 38.1638 56.6416 37.9483 56.3127C37.7328 55.9781 37.4265 55.7314 37.0295 55.5726C36.6382 55.4081 36.176 55.3259 35.6429 55.3259H34.52ZM43.519 60.1663C43.519 59.8998 43.6012 59.6758 43.7657 59.4943C43.9358 59.3071 44.1797 59.2135 44.4973 59.2135C44.8149 59.2135 45.0559 59.3071 45.2204 59.4943C45.3905 59.6758 45.4756 59.8998 45.4756 60.1663C45.4756 60.4272 45.3905 60.6484 45.2204 60.8299C45.0559 61.0113 44.8149 61.1021 44.4973 61.1021C44.1797 61.1021 43.9358 61.0113 43.7657 60.8299C43.6012 60.6484 43.519 60.4272 43.519 60.1663ZM43.5275 52.6547C43.5275 52.3881 43.6097 52.1641 43.7742 51.9826C43.9443 51.7955 44.1882 51.7019 44.5058 51.7019C44.8234 51.7019 45.0644 51.7955 45.2289 51.9826C45.399 52.1641 45.4841 52.3881 45.4841 52.6547C45.4841 52.9156 45.399 53.1367 45.2289 53.3182C45.0644 53.4997 44.8234 53.5905 44.5058 53.5905C44.1882 53.5905 43.9443 53.4997 43.7742 53.3182C43.6097 53.1367 43.5275 52.9156 43.5275 52.6547ZM51.327 54.0328H52.4499C53 54.0328 53.4537 53.9421 53.811 53.7606C54.174 53.5734 54.4434 53.3211 54.6192 53.0035C54.8007 52.6802 54.8914 52.3172 54.8914 51.9146C54.8914 51.4382 54.812 51.0384 54.6532 50.7151C54.4944 50.3918 54.2562 50.148 53.9386 49.9835C53.621 49.819 53.2184 49.7368 52.7306 49.7368C52.2883 49.7368 51.897 49.8247 51.5567 50.0005C51.2221 50.1707 50.9584 50.4145 50.7655 50.7321C50.5784 51.0497 50.4848 51.424 50.4848 51.855H48.911C48.911 51.2255 49.0698 50.6527 49.3874 50.1366C49.705 49.6205 50.1502 49.2094 50.723 48.9031C51.3015 48.5969 51.9707 48.4438 52.7306 48.4438C53.4793 48.4438 54.1343 48.577 54.6957 48.8436C55.2572 49.1045 55.6939 49.4958 56.0058 50.0175C56.3177 50.5336 56.4737 51.1773 56.4737 51.9486C56.4737 52.2605 56.4 52.5951 56.2525 52.9524C56.1107 53.3041 55.8867 53.633 55.5805 53.9392C55.2799 54.2455 54.8886 54.4979 54.4065 54.6964C53.9244 54.8892 53.346 54.9856 52.6711 54.9856H51.327V54.0328ZM51.327 55.3259V54.3816H52.6711C53.4594 54.3816 54.1116 54.4752 54.6277 54.6623C55.1438 54.8495 55.5493 55.099 55.8442 55.4109C56.1448 55.7229 56.3546 56.066 56.4737 56.4403C56.5985 56.8089 56.6608 57.1775 56.6608 57.5462C56.6608 58.1247 56.5616 58.6379 56.3631 59.0859C56.1703 59.534 55.8952 59.9139 55.5379 60.2259C55.1863 60.5378 54.7723 60.7731 54.2959 60.9319C53.8195 61.0907 53.3006 61.1701 52.7391 61.1701C52.2004 61.1701 51.6928 61.0936 51.2164 60.9405C50.7457 60.7873 50.3288 60.5661 49.9659 60.2769C49.6029 59.982 49.3194 59.6219 49.1152 59.1965C48.911 58.7655 48.8089 58.2749 48.8089 57.7248H50.3827C50.3827 58.1558 50.4763 58.533 50.6635 58.8563C50.8563 59.1795 51.1285 59.4319 51.4801 59.6134C51.8374 59.7892 52.2571 59.8771 52.7391 59.8771C53.2212 59.8771 53.6352 59.7948 53.9812 59.6304C54.3328 59.4602 54.6022 59.205 54.7893 58.8648C54.9821 58.5245 55.0786 58.0963 55.0786 57.5802C55.0786 57.0641 54.9708 56.6416 54.7553 56.3127C54.5398 55.9781 54.2335 55.7314 53.8365 55.5726C53.4452 55.4081 52.983 55.3259 52.4499 55.3259H51.327ZM67.9992 53.8201V55.7087C67.9992 56.7238 67.9085 57.5802 67.727 58.2778C67.5455 58.9753 67.2847 59.5368 66.9444 59.9622C66.6041 60.3875 66.1929 60.6966 65.7109 60.8894C65.2345 61.0766 64.6957 61.1701 64.0946 61.1701C63.6182 61.1701 63.1786 61.1106 62.776 60.9915C62.3733 60.8724 62.0104 60.6824 61.6871 60.4215C61.3695 60.155 61.0973 59.809 60.8704 59.3837C60.6436 58.9583 60.4706 58.4422 60.3515 57.8354C60.2324 57.2286 60.1729 56.5197 60.1729 55.7087V53.8201C60.1729 52.805 60.2636 51.9543 60.4451 51.2681C60.6322 50.5818 60.8959 50.0317 61.2362 49.6177C61.5765 49.198 61.9848 48.8975 62.4612 48.716C62.9433 48.5345 63.4821 48.4438 64.0775 48.4438C64.5596 48.4438 65.002 48.5033 65.4046 48.6224C65.813 48.7358 66.1759 48.9201 66.4935 49.1753C66.8111 49.4249 67.0805 49.7595 67.3017 50.1792C67.5285 50.5932 67.7015 51.1008 67.8206 51.7019C67.9397 52.3031 67.9992 53.0091 67.9992 53.8201ZM66.417 55.9639V53.5564C66.417 53.0006 66.3829 52.5129 66.3149 52.0932C66.2525 51.6679 66.1589 51.3049 66.0341 51.0043C65.9094 50.7038 65.7506 50.4599 65.5578 50.2727C65.3706 50.0856 65.1523 49.9495 64.9027 49.8644C64.6589 49.7737 64.3838 49.7283 64.0775 49.7283C63.7032 49.7283 63.3715 49.7992 63.0822 49.941C62.793 50.0771 62.5491 50.2954 62.3506 50.596C62.1578 50.8966 62.0104 51.2907 61.9083 51.7785C61.8062 52.2662 61.7551 52.8589 61.7551 53.5564V55.9639C61.7551 56.5197 61.7863 57.0102 61.8487 57.4356C61.9168 57.8609 62.016 58.2296 62.1465 58.5415C62.2769 58.8477 62.4357 59.1001 62.6229 59.2986C62.81 59.4971 63.0255 59.6446 63.2694 59.741C63.5189 59.8317 63.794 59.8771 64.0946 59.8771C64.4802 59.8771 64.8176 59.8034 65.1069 59.6559C65.3961 59.5084 65.6371 59.2788 65.83 58.9668C66.0285 58.6492 66.1759 58.2438 66.2723 57.7503C66.3687 57.2513 66.417 56.6558 66.417 55.9639Z" fill="white"/>
<rect x="41" y="38.3158" width="6.63158" height="5.68421" rx="1.42105" fill="white"/>
<path d="M41.4737 38.3158C41.4737 36.7461 42.7461 35.4737 44.3158 35.4737C45.8854 35.4737 47.1579 36.7461 47.1579 38.3158V42.1053H41.4737V38.3158Z" stroke="white" stroke-width="0.947369"/>
</svg>
