<svg width="89" height="196" viewBox="0 0 89 196" fill="none" xmlns="http://www.w3.org/2000/svg">
<rect width="89" height="196" rx="15.2338" fill="#0F70BD"/>
<rect x="5" y="4" width="79.0705" height="189.334" rx="12.519" fill="black"/>
<line x1="27.9285" y1="15.5965" x2="60.5723" y2="15.5965" stroke="white" stroke-width="3.62709" stroke-linecap="round"/>
<circle cx="44.2505" cy="181.354" r="9.43042" fill="#0F70BD"/>
<rect x="40.442" y="177.546" width="7.61688" height="7.61688" rx="1.63219" stroke="#3E3636" stroke-width="1.08813"/>
<rect x="7" y="21.5121" width="74.9721" height="147.761" rx="1.45577" fill="#3E3636"/>
<ellipse cx="67.153" cy="15.2338" rx="1.86536" ry="2.17625" fill="#A5A5A5"/>
<path d="M7.25415 151.612H81.9721V167.571C81.9721 168.373 81.3226 169.022 80.5213 169.022H8.70498C7.90371 169.022 7.25415 168.373 7.25415 167.571V151.612Z" fill="#A1A1A1"/>
<path d="M7 30H82V23.4508C82 22.6496 81.3504 22 80.5492 22H8.45084C7.64956 22 7 22.6496 7 23.4508V30Z" fill="#A1A1A1"/>
<rect x="9.43042" y="153.063" width="14.5083" height="14.5083" rx="3.62709" fill="#5CB958"/>
<rect x="28.2913" y="153.063" width="14.5083" height="14.5083" rx="3.62709" fill="#0F70BD"/>
<rect x="46.4268" y="153.063" width="14.5083" height="14.5083" rx="3.62709" fill="#F79F1A"/>
<rect x="65.2876" y="153.063" width="14.5083" height="14.5083" rx="3.62709" fill="#37AFEB"/>
<path d="M27.6867 63H26.4992L26.507 62.3867H27.6867C28.093 62.3867 28.4315 62.3021 28.7023 62.1328C28.9732 61.9609 29.1763 61.7213 29.3117 61.4141C29.4497 61.1042 29.5187 60.7422 29.5187 60.3281V59.9805C29.5187 59.6549 29.4797 59.3659 29.4016 59.1133C29.3234 58.8581 29.2089 58.6432 29.0578 58.4687C28.9068 58.2917 28.7219 58.1575 28.5031 58.0664C28.287 57.9753 28.0383 57.9297 27.757 57.9297H26.4758V57.3125H27.757C28.1294 57.3125 28.4693 57.375 28.7766 57.5C29.0839 57.6224 29.3482 57.8008 29.5695 58.0351C29.7935 58.2669 29.9654 58.5482 30.0852 58.8789C30.2049 59.207 30.2648 59.5768 30.2648 59.9883V60.3281C30.2648 60.7396 30.2049 61.1107 30.0852 61.4414C29.9654 61.7695 29.7922 62.0495 29.5656 62.2812C29.3417 62.513 29.0708 62.6914 28.7531 62.8164C28.438 62.9388 28.0826 63 27.6867 63ZM26.9016 57.3125V63H26.1477V57.3125H26.9016ZM32.7134 58.7734V63H31.9869V58.7734H32.7134ZM31.9322 57.6523C31.9322 57.5351 31.9673 57.4362 32.0377 57.3555C32.1106 57.2747 32.2173 57.2344 32.358 57.2344C32.496 57.2344 32.6015 57.2747 32.6744 57.3555C32.7499 57.4362 32.7877 57.5351 32.7877 57.6523C32.7877 57.7643 32.7499 57.8607 32.6744 57.9414C32.6015 58.0195 32.496 58.0586 32.358 58.0586C32.2173 58.0586 32.1106 58.0195 32.0377 57.9414C31.9673 57.8607 31.9322 57.7643 31.9322 57.6523ZM37.0058 62.2773V60.1016C37.0058 59.9349 36.9719 59.7904 36.9042 59.668C36.8391 59.543 36.7402 59.4466 36.6073 59.3789C36.4745 59.3112 36.3105 59.2773 36.1152 59.2773C35.9329 59.2773 35.7727 59.3086 35.6347 59.3711C35.4993 59.4336 35.3925 59.5156 35.3144 59.6172C35.2389 59.7187 35.2011 59.8281 35.2011 59.9453H34.4784C34.4784 59.7943 34.5175 59.6445 34.5956 59.4961C34.6737 59.3476 34.7857 59.2135 34.9316 59.0937C35.08 58.9713 35.2571 58.875 35.4628 58.8047C35.6711 58.7318 35.9029 58.6953 36.1581 58.6953C36.4654 58.6953 36.7362 58.7474 36.9706 58.8516C37.2076 58.9557 37.3925 59.1133 37.5253 59.3242C37.6607 59.5325 37.7284 59.7943 37.7284 60.1094V62.0781C37.7284 62.2187 37.7402 62.3685 37.7636 62.5273C37.7896 62.6862 37.8274 62.8229 37.8769 62.9375V63H37.123C37.0865 62.9167 37.0579 62.806 37.037 62.668C37.0162 62.5273 37.0058 62.3971 37.0058 62.2773ZM37.1308 60.4375L37.1386 60.9453H36.4081C36.2024 60.9453 36.0188 60.9622 35.8573 60.9961C35.6959 61.0273 35.5605 61.0755 35.4511 61.1406C35.3417 61.2057 35.2584 61.2878 35.2011 61.3867C35.1438 61.4831 35.1152 61.5963 35.1152 61.7266C35.1152 61.8594 35.1451 61.9805 35.205 62.0898C35.2649 62.1992 35.3547 62.2865 35.4745 62.3516C35.5969 62.4141 35.7467 62.4453 35.9237 62.4453C36.1451 62.4453 36.3404 62.3984 36.5097 62.3047C36.679 62.2109 36.8131 62.0963 36.912 61.9609C37.0136 61.8255 37.0683 61.694 37.0761 61.5664L37.3847 61.9141C37.3665 62.0234 37.317 62.1445 37.2362 62.2773C37.1555 62.4101 37.0474 62.5378 36.912 62.6601C36.7792 62.7799 36.6204 62.8802 36.4355 62.9609C36.2532 63.0391 36.0474 63.0781 35.8183 63.0781C35.5318 63.0781 35.2805 63.0221 35.0644 62.9101C34.8508 62.7982 34.6842 62.6484 34.5644 62.4609C34.4472 62.2708 34.3886 62.0586 34.3886 61.8242C34.3886 61.5976 34.4329 61.3984 34.5214 61.2266C34.6099 61.0521 34.7376 60.9075 34.9042 60.793C35.0709 60.6758 35.2714 60.5872 35.5058 60.5273C35.7402 60.4674 36.0019 60.4375 36.2909 60.4375H37.1308ZM40.2903 57V63H39.5637V57H40.2903ZM42.8756 57V63H42.1491V57H42.8756ZM45.4609 58.7734V63H44.7344V58.7734H45.4609ZM44.6797 57.6523C44.6797 57.5351 44.7148 57.4362 44.7852 57.3555C44.8581 57.2747 44.9648 57.2344 45.1055 57.2344C45.2435 57.2344 45.349 57.2747 45.4219 57.3555C45.4974 57.4362 45.5352 57.5351 45.5352 57.6523C45.5352 57.7643 45.4974 57.8607 45.4219 57.9414C45.349 58.0195 45.2435 58.0586 45.1055 58.0586C44.9648 58.0586 44.8581 58.0195 44.7852 57.9414C44.7148 57.8607 44.6797 57.7643 44.6797 57.6523ZM47.9837 59.6758V63H47.2611V58.7734H47.9447L47.9837 59.6758ZM47.8119 60.7266L47.5111 60.7148C47.5137 60.4258 47.5567 60.1588 47.64 59.9141C47.7233 59.6667 47.8405 59.4518 47.9916 59.2695C48.1426 59.0872 48.3223 58.9466 48.5306 58.8476C48.7416 58.7461 48.9746 58.6953 49.2298 58.6953C49.4382 58.6953 49.6257 58.724 49.7923 58.7812C49.959 58.8359 50.1009 58.9245 50.2181 59.0469C50.3379 59.1693 50.4291 59.3281 50.4916 59.5234C50.5541 59.7161 50.5853 59.9518 50.5853 60.2305V63H49.8587V60.2226C49.8587 60.0013 49.8262 59.8242 49.7611 59.6914C49.696 59.556 49.6009 59.4583 49.4759 59.3984C49.3509 59.3359 49.1973 59.3047 49.015 59.3047C48.8353 59.3047 48.6712 59.3424 48.5228 59.418C48.377 59.4935 48.2507 59.5976 48.1439 59.7305C48.0397 59.8633 47.9577 60.0156 47.8978 60.1875C47.8405 60.3568 47.8119 60.5365 47.8119 60.7266ZM55.0612 58.7734H55.7175V62.9101C55.7175 63.2825 55.642 63.6003 55.4909 63.8633C55.3399 64.1263 55.129 64.3255 54.8581 64.4609C54.5899 64.599 54.28 64.668 53.9284 64.668C53.7826 64.668 53.6107 64.6445 53.4128 64.5976C53.2175 64.5534 53.0248 64.4766 52.8347 64.3672C52.6472 64.2604 52.4896 64.1159 52.362 63.9336L52.7409 63.5039C52.918 63.7174 53.1029 63.8659 53.2956 63.9492C53.4909 64.0325 53.6836 64.0742 53.8737 64.0742C54.1029 64.0742 54.3008 64.0312 54.4675 63.9453C54.6342 63.8594 54.7631 63.7318 54.8542 63.5625C54.948 63.3958 54.9948 63.1901 54.9948 62.9453V59.7031L55.0612 58.7734ZM52.1511 60.9336V60.8516C52.1511 60.5286 52.1889 60.2357 52.2644 59.9726C52.3425 59.707 52.4532 59.4792 52.5964 59.2891C52.7422 59.099 52.918 58.9531 53.1237 58.8516C53.3295 58.7474 53.5612 58.6953 53.8191 58.6953C54.0847 58.6953 54.3165 58.7422 54.5144 58.8359C54.7149 58.9271 54.8842 59.0612 55.0222 59.2383C55.1628 59.4128 55.2735 59.6237 55.3542 59.8711C55.4349 60.1185 55.4909 60.3984 55.5222 60.7109V61.0703C55.4935 61.3802 55.4376 61.6588 55.3542 61.9062C55.2735 62.1536 55.1628 62.3646 55.0222 62.5391C54.8842 62.7135 54.7149 62.8476 54.5144 62.9414C54.3139 63.0325 54.0795 63.0781 53.8112 63.0781C53.5586 63.0781 53.3295 63.0247 53.1237 62.918C52.9206 62.8112 52.7461 62.6615 52.6003 62.4687C52.4545 62.276 52.3425 62.0495 52.2644 61.7891C52.1889 61.526 52.1511 61.2409 52.1511 60.9336ZM52.8737 60.8516V60.9336C52.8737 61.1445 52.8946 61.3424 52.9362 61.5273C52.9805 61.7122 53.0469 61.875 53.1355 62.0156C53.2266 62.1562 53.3425 62.2669 53.4831 62.3476C53.6237 62.4258 53.7917 62.4648 53.987 62.4648C54.2266 62.4648 54.4245 62.4141 54.5808 62.3125C54.737 62.2109 54.8607 62.0768 54.9519 61.9101C55.0456 61.7435 55.1185 61.5625 55.1706 61.3672V60.4258C55.142 60.2825 55.0977 60.1445 55.0378 60.0117C54.9805 59.8763 54.905 59.7565 54.8112 59.6523C54.7201 59.5456 54.6068 59.4609 54.4714 59.3984C54.336 59.3359 54.1771 59.3047 53.9948 59.3047C53.7969 59.3047 53.6264 59.3463 53.4831 59.4297C53.3425 59.5104 53.2266 59.6224 53.1355 59.7656C53.0469 59.9062 52.9805 60.0703 52.9362 60.2578C52.8946 60.4427 52.8737 60.6406 52.8737 60.8516ZM57.4669 62.6172C57.4669 62.4948 57.5046 62.3919 57.5802 62.3086C57.6583 62.2226 57.7703 62.1797 57.9161 62.1797C58.0619 62.1797 58.1726 62.2226 58.2481 62.3086C58.3262 62.3919 58.3653 62.4948 58.3653 62.6172C58.3653 62.737 58.3262 62.8385 58.2481 62.9219C58.1726 63.0052 58.0619 63.0469 57.9161 63.0469C57.7703 63.0469 57.6583 63.0052 57.5802 62.9219C57.5046 62.8385 57.4669 62.737 57.4669 62.6172ZM60.2162 62.6172C60.2162 62.4948 60.254 62.3919 60.3295 62.3086C60.4077 62.2226 60.5196 62.1797 60.6655 62.1797C60.8113 62.1797 60.922 62.2226 60.9975 62.3086C61.0756 62.3919 61.1147 62.4948 61.1147 62.6172C61.1147 62.737 61.0756 62.8385 60.9975 62.9219C60.922 63.0052 60.8113 63.0469 60.6655 63.0469C60.5196 63.0469 60.4077 63.0052 60.3295 62.9219C60.254 62.8385 60.2162 62.737 60.2162 62.6172ZM62.9656 62.6172C62.9656 62.4948 63.0034 62.3919 63.0789 62.3086C63.157 62.2226 63.269 62.1797 63.4148 62.1797C63.5607 62.1797 63.6714 62.2226 63.7469 62.3086C63.825 62.3919 63.8641 62.4948 63.8641 62.6172C63.8641 62.737 63.825 62.8385 63.7469 62.9219C63.6714 63.0052 63.5607 63.0469 63.4148 63.0469C63.269 63.0469 63.157 63.0052 63.0789 62.9219C63.0034 62.8385 62.9656 62.737 62.9656 62.6172Z" fill="#BDBDBD"/>
<path d="M38.8057 24.3737V28H38.3475V24.9459L37.4236 25.2828V24.8691L38.7339 24.3737H38.8057ZM41.2278 25.9714H41.5548C41.7149 25.9714 41.8471 25.9449 41.9511 25.8921C42.0568 25.8376 42.1352 25.7641 42.1864 25.6716C42.2392 25.5775 42.2657 25.4718 42.2657 25.3546C42.2657 25.2159 42.2425 25.0995 42.1963 25.0053C42.1501 24.9112 42.0807 24.8402 41.9882 24.7923C41.8958 24.7444 41.7785 24.7205 41.6365 24.7205C41.5077 24.7205 41.3938 24.7461 41.2947 24.7973C41.1973 24.8468 41.1205 24.9178 41.0643 25.0103C41.0098 25.1028 40.9826 25.2117 40.9826 25.3372H40.5243C40.5243 25.154 40.5706 24.9872 40.6631 24.8369C40.7555 24.6866 40.8852 24.5669 41.0519 24.4777C41.2204 24.3886 41.4152 24.344 41.6365 24.344C41.8545 24.344 42.0452 24.3828 42.2087 24.4604C42.3722 24.5364 42.4993 24.6503 42.5901 24.8022C42.681 24.9525 42.7264 25.1399 42.7264 25.3645C42.7264 25.4553 42.7049 25.5527 42.662 25.6568C42.6207 25.7592 42.5555 25.8549 42.4663 25.9441C42.3788 26.0333 42.2648 26.1068 42.1245 26.1646C41.9841 26.2207 41.8157 26.2488 41.6192 26.2488H41.2278V25.9714ZM41.2278 26.3479V26.0729H41.6192C41.8487 26.0729 42.0386 26.1002 42.1889 26.1547C42.3391 26.2091 42.4572 26.2818 42.5431 26.3726C42.6306 26.4634 42.6917 26.5634 42.7264 26.6723C42.7627 26.7797 42.7809 26.887 42.7809 26.9943C42.7809 27.1628 42.752 27.3122 42.6942 27.4427C42.638 27.5731 42.5579 27.6838 42.4539 27.7746C42.3515 27.8654 42.231 27.9339 42.0923 27.9802C41.9536 28.0264 41.8025 28.0495 41.639 28.0495C41.4821 28.0495 41.3343 28.0272 41.1956 27.9827C41.0585 27.9381 40.9372 27.8737 40.8315 27.7895C40.7258 27.7036 40.6432 27.5987 40.5838 27.4749C40.5243 27.3494 40.4946 27.2065 40.4946 27.0464H40.9529C40.9529 27.1719 40.9801 27.2817 41.0346 27.3758C41.0907 27.4699 41.17 27.5434 41.2724 27.5963C41.3764 27.6474 41.4986 27.673 41.639 27.673C41.7793 27.673 41.8999 27.6491 42.0006 27.6012C42.103 27.5517 42.1814 27.4774 42.2359 27.3783C42.2921 27.2792 42.3202 27.1545 42.3202 27.0043C42.3202 26.854 42.2888 26.731 42.226 26.6352C42.1633 26.5378 42.0741 26.4659 41.9585 26.4197C41.8446 26.3718 41.71 26.3479 41.5548 26.3479H41.2278ZM43.8481 27.7573C43.8481 27.6796 43.872 27.6144 43.9199 27.5616C43.9694 27.5071 44.0404 27.4798 44.1329 27.4798C44.2254 27.4798 44.2956 27.5071 44.3435 27.5616C44.393 27.6144 44.4178 27.6796 44.4178 27.7573C44.4178 27.8332 44.393 27.8976 44.3435 27.9505C44.2956 28.0033 44.2254 28.0297 44.1329 28.0297C44.0404 28.0297 43.9694 28.0033 43.9199 27.9505C43.872 27.8976 43.8481 27.8332 43.8481 27.7573ZM43.8505 25.5701C43.8505 25.4925 43.8745 25.4272 43.9224 25.3744C43.9719 25.3199 44.0429 25.2927 44.1354 25.2927C44.2279 25.2927 44.298 25.3199 44.3459 25.3744C44.3955 25.4272 44.4202 25.4925 44.4202 25.5701C44.4202 25.646 44.3955 25.7104 44.3459 25.7633C44.298 25.8161 44.2279 25.8426 44.1354 25.8426C44.0429 25.8426 43.9719 25.8161 43.9224 25.7633C43.8745 25.7104 43.8505 25.646 43.8505 25.5701ZM46.1215 25.9714H46.4485C46.6087 25.9714 46.7408 25.9449 46.8448 25.8921C46.9505 25.8376 47.0289 25.7641 47.0801 25.6716C47.133 25.5775 47.1594 25.4718 47.1594 25.3546C47.1594 25.2159 47.1363 25.0995 47.09 25.0053C47.0438 24.9112 46.9744 24.8402 46.882 24.7923C46.7895 24.7444 46.6722 24.7205 46.5302 24.7205C46.4014 24.7205 46.2875 24.7461 46.1884 24.7973C46.091 24.8468 46.0142 24.9178 45.958 25.0103C45.9036 25.1028 45.8763 25.2117 45.8763 25.3372H45.4181C45.4181 25.154 45.4643 24.9872 45.5568 24.8369C45.6493 24.6866 45.7789 24.5669 45.9457 24.4777C46.1141 24.3886 46.309 24.344 46.5302 24.344C46.7482 24.344 46.9389 24.3828 47.1024 24.4604C47.2659 24.5364 47.393 24.6503 47.4839 24.8022C47.5747 24.9525 47.6201 25.1399 47.6201 25.3645C47.6201 25.4553 47.5986 25.5527 47.5557 25.6568C47.5144 25.7592 47.4492 25.8549 47.36 25.9441C47.2725 26.0333 47.1586 26.1068 47.0182 26.1646C46.8778 26.2207 46.7094 26.2488 46.5129 26.2488H46.1215V25.9714ZM46.1215 26.3479V26.0729H46.5129C46.7424 26.0729 46.9323 26.1002 47.0826 26.1547C47.2329 26.2091 47.3509 26.2818 47.4368 26.3726C47.5243 26.4634 47.5854 26.5634 47.6201 26.6723C47.6564 26.7797 47.6746 26.887 47.6746 26.9943C47.6746 27.1628 47.6457 27.3122 47.5879 27.4427C47.5318 27.5731 47.4517 27.6838 47.3476 27.7746C47.2453 27.8654 47.1247 27.9339 46.986 27.9802C46.8473 28.0264 46.6962 28.0495 46.5327 28.0495C46.3758 28.0495 46.228 28.0272 46.0893 27.9827C45.9523 27.9381 45.8309 27.8737 45.7252 27.7895C45.6195 27.7036 45.537 27.5987 45.4775 27.4749C45.4181 27.3494 45.3883 27.2065 45.3883 27.0464H45.8466C45.8466 27.1719 45.8738 27.2817 45.9283 27.3758C45.9845 27.4699 46.0637 27.5434 46.1661 27.5963C46.2701 27.6474 46.3923 27.673 46.5327 27.673C46.6731 27.673 46.7936 27.6491 46.8943 27.6012C46.9967 27.5517 47.0752 27.4774 47.1297 27.3783C47.1858 27.2792 47.2139 27.1545 47.2139 27.0043C47.2139 26.854 47.1825 26.731 47.1198 26.6352C47.057 26.5378 46.9678 26.4659 46.8522 26.4197C46.7383 26.3718 46.6037 26.3479 46.4485 26.3479H46.1215ZM50.976 25.9094V26.4593C50.976 26.7549 50.9496 27.0043 50.8967 27.2074C50.8439 27.4105 50.7679 27.574 50.6689 27.6978C50.5698 27.8217 50.4501 27.9117 50.3097 27.9678C50.171 28.0223 50.0141 28.0495 49.8391 28.0495C49.7004 28.0495 49.5724 28.0322 49.4551 27.9975C49.3379 27.9628 49.2322 27.9075 49.1381 27.8316C49.0456 27.754 48.9664 27.6532 48.9003 27.5294C48.8342 27.4055 48.7839 27.2553 48.7492 27.0786C48.7145 26.9019 48.6972 26.6955 48.6972 26.4593V25.9094C48.6972 25.6138 48.7236 25.3661 48.7765 25.1663C48.8309 24.9665 48.9077 24.8063 49.0068 24.6858C49.1059 24.5636 49.2248 24.4761 49.3635 24.4232C49.5039 24.3704 49.6607 24.344 49.8341 24.344C49.9745 24.344 50.1033 24.3613 50.2205 24.396C50.3394 24.429 50.4451 24.4827 50.5376 24.557C50.6301 24.6297 50.7085 24.7271 50.7729 24.8493C50.839 24.9698 50.8893 25.1176 50.924 25.2927C50.9587 25.4677 50.976 25.6733 50.976 25.9094ZM50.5153 26.5336V25.8326C50.5153 25.6708 50.5054 25.5288 50.4856 25.4066C50.4674 25.2828 50.4402 25.1771 50.4038 25.0895C50.3675 25.002 50.3213 24.931 50.2651 24.8765C50.2106 24.822 50.147 24.7824 50.0744 24.7576C50.0034 24.7312 49.9233 24.718 49.8341 24.718C49.7251 24.718 49.6285 24.7386 49.5443 24.7799C49.4601 24.8196 49.3891 24.8831 49.3313 24.9707C49.2752 25.0582 49.2322 25.1729 49.2025 25.315C49.1728 25.457 49.1579 25.6295 49.1579 25.8326V26.5336C49.1579 26.6955 49.167 26.8383 49.1852 26.9621C49.205 27.086 49.2339 27.1933 49.2718 27.2842C49.3098 27.3733 49.3561 27.4468 49.4106 27.5046C49.4651 27.5624 49.5278 27.6053 49.5988 27.6334C49.6715 27.6598 49.7516 27.673 49.8391 27.673C49.9514 27.673 50.0496 27.6516 50.1338 27.6086C50.2181 27.5657 50.2882 27.4988 50.3444 27.408C50.4022 27.3155 50.4451 27.1975 50.4732 27.0538C50.5013 26.9085 50.5153 26.7351 50.5153 26.5336Z" fill="white"/>
<rect x="77.75" y="24.25" width="3.5" height="7.5" rx="0.75" transform="rotate(90 77.75 24.25)" stroke="black" stroke-width="0.5"/>
<path d="M72.75 24.25V27.75H70.5C70.3619 27.75 70.25 27.6381 70.25 27.5V24.5C70.25 24.3619 70.3619 24.25 70.5 24.25H72.75Z" fill="#EA001B" stroke="black" stroke-width="0.5"/>
<path d="M78 25V27" stroke="black"/>
<path d="M15.65 24.8134L15.2763 24.7231L15.4197 23.4214H16.8383V23.8092H15.8076L15.7403 24.4114C15.7769 24.3889 15.83 24.3665 15.8997 24.3441C15.9705 24.3205 16.0502 24.3087 16.1388 24.3087C16.2616 24.3087 16.3714 24.3287 16.4682 24.3689C16.565 24.4078 16.6471 24.4645 16.7144 24.5389C16.7828 24.6133 16.8342 24.7042 16.8684 24.8116C16.9039 24.9179 16.9216 25.0383 16.9216 25.1729C16.9216 25.291 16.9039 25.402 16.8684 25.5059C16.8342 25.6086 16.7817 25.7001 16.7108 25.7804C16.64 25.8595 16.5508 25.9221 16.4434 25.9681C16.336 26.013 16.2096 26.0354 16.0644 26.0354C15.9546 26.0354 15.8489 26.0195 15.7474 25.9876C15.647 25.9545 15.5567 25.9067 15.4764 25.8441C15.3961 25.7804 15.3318 25.7025 15.2834 25.6104C15.2361 25.5183 15.2102 25.4126 15.2054 25.2934H15.6677C15.6759 25.3725 15.6972 25.4398 15.7314 25.4953C15.7657 25.5507 15.8105 25.5933 15.866 25.6228C15.9227 25.6523 15.9882 25.667 16.0626 25.667C16.1299 25.667 16.1878 25.6546 16.2362 25.6299C16.2858 25.6039 16.3265 25.5679 16.3584 25.5218C16.3903 25.4758 16.4139 25.4215 16.4292 25.3589C16.4446 25.2963 16.4523 25.2278 16.4523 25.1534C16.4523 25.0814 16.4434 25.0159 16.4257 24.9569C16.408 24.8966 16.3808 24.8447 16.3442 24.801C16.3076 24.7573 16.2616 24.7237 16.2061 24.7001C16.1518 24.6764 16.088 24.6646 16.0148 24.6646C15.9168 24.6646 15.8412 24.6794 15.7881 24.7089C15.7362 24.7384 15.6901 24.7733 15.65 24.8134ZM18.7915 24.0837H19.2166V25.9416C19.2166 26.1151 19.1788 26.2621 19.1032 26.3825C19.0288 26.5042 18.9243 26.5962 18.7897 26.6588C18.6551 26.7226 18.4987 26.7545 18.3204 26.7545C18.2437 26.7545 18.1604 26.7438 18.0707 26.7226C17.9821 26.7013 17.8965 26.6677 17.8139 26.6216C17.7324 26.5768 17.6645 26.5183 17.6102 26.4463L17.821 26.17C17.8847 26.2444 17.9568 26.3005 18.037 26.3383C18.1173 26.3772 18.2041 26.3967 18.2974 26.3967C18.3918 26.3967 18.4721 26.379 18.5383 26.3436C18.6055 26.3093 18.6569 26.2586 18.6923 26.1913C18.7289 26.1252 18.7472 26.0437 18.7472 25.9469V24.5212L18.7915 24.0837ZM17.4969 25.0649V25.0277C17.4969 24.8813 17.5146 24.7485 17.55 24.6292C17.5854 24.5088 17.6362 24.4055 17.7023 24.3193C17.7696 24.2331 17.8505 24.1664 17.945 24.1192C18.0406 24.0719 18.148 24.0483 18.2673 24.0483C18.3936 24.0483 18.4999 24.0713 18.5861 24.1174C18.6734 24.1634 18.7455 24.229 18.8021 24.314C18.86 24.399 18.9049 24.4999 18.9367 24.6168C18.9698 24.7325 18.9952 24.86 19.0129 24.9994V25.1003C18.9964 25.2361 18.9698 25.3607 18.9332 25.474C18.8978 25.5873 18.8505 25.6865 18.7915 25.7715C18.7325 25.8554 18.6593 25.9203 18.5719 25.9664C18.4845 26.0124 18.3818 26.0354 18.2637 26.0354C18.1457 26.0354 18.0394 26.0112 17.945 25.9628C17.8505 25.9144 17.7696 25.8465 17.7023 25.7591C17.6362 25.6718 17.5854 25.569 17.55 25.451C17.5146 25.3329 17.4969 25.2042 17.4969 25.0649ZM17.9644 25.0277V25.0649C17.9644 25.1475 17.9727 25.2249 17.9892 25.2969C18.0058 25.3689 18.0311 25.4327 18.0654 25.4882C18.0996 25.5425 18.1427 25.585 18.1947 25.6157C18.2466 25.6464 18.3086 25.6617 18.3806 25.6617C18.4774 25.6617 18.5566 25.6417 18.6179 25.6015C18.6805 25.5602 18.7278 25.5041 18.7596 25.4333C18.7927 25.3612 18.8139 25.2804 18.8234 25.1906V24.9126C18.8175 24.8417 18.8045 24.7762 18.7844 24.716C18.7655 24.6558 18.739 24.6038 18.7047 24.5601C18.6705 24.5165 18.6268 24.4822 18.5737 24.4574C18.5205 24.4326 18.4574 24.4202 18.3842 24.4202C18.3133 24.4202 18.2513 24.4362 18.1982 24.4681C18.1451 24.4988 18.1014 24.5418 18.0672 24.5973C18.0329 24.6528 18.0069 24.7172 17.9892 24.7904C17.9727 24.8636 17.9644 24.9427 17.9644 25.0277Z" fill="black"/>
<path d="M9 27.25C9 27.1119 9.11193 27 9.25 27C9.38807 27 9.5 27.1119 9.5 27.25V27.75C9.5 27.8881 9.38807 28 9.25 28C9.11193 28 9 27.8881 9 27.75V27.25Z" fill="#D9D9D9"/>
<path d="M10 26.25C10 26.1119 10.1119 26 10.25 26C10.3881 26 10.5 26.1119 10.5 26.25V27.75C10.5 27.8881 10.3881 28 10.25 28C10.1119 28 10 27.8881 10 27.75V26.25Z" fill="#D9D9D9"/>
<path d="M11 25.25C11 25.1119 11.1119 25 11.25 25C11.3881 25 11.5 25.1119 11.5 25.25V27.75C11.5 27.8881 11.3881 28 11.25 28C11.1119 28 11 27.8881 11 27.75V25.25Z" fill="#D9D9D9"/>
<path d="M12 24.25C12 24.1119 12.1119 24 12.25 24C12.3881 24 12.5 24.1119 12.5 24.25V27.75C12.5 27.8881 12.3881 28 12.25 28C12.1119 28 12 27.8881 12 27.75V24.25Z" fill="#D9D9D9"/>
<path d="M13 23.25C13 23.1119 13.1119 23 13.25 23C13.3881 23 13.5 23.1119 13.5 23.25V27.75C13.5 27.8881 13.3881 28 13.25 28C13.1119 28 13 27.8881 13 27.75V23.25Z" fill="#D9D9D9"/>
<path d="M24.0258 47.7796H24.9466C24.8986 48.2208 24.7723 48.6157 24.5677 48.9641C24.3631 49.3126 24.0738 49.5892 23.6997 49.7938C23.3256 49.9952 22.8589 50.0959 22.2994 50.0959C21.8902 50.0959 21.5177 50.0192 21.182 49.8657C20.8495 49.7123 20.5634 49.4949 20.3236 49.2135C20.0838 48.929 19.8984 48.5885 19.7673 48.1921C19.6394 47.7924 19.5755 47.348 19.5755 46.8589V46.1635C19.5755 45.6744 19.6394 45.2316 19.7673 44.8351C19.8984 44.4355 20.0854 44.0934 20.3284 43.8089C20.5746 43.5243 20.8703 43.3053 21.2156 43.1519C21.5609 42.9984 21.9493 42.9217 22.3809 42.9217C22.9084 42.9217 23.3544 43.0208 23.7189 43.219C24.0834 43.4172 24.3663 43.6922 24.5677 44.0438C24.7723 44.3923 24.8986 44.7968 24.9466 45.2571H24.0258C23.981 44.931 23.8979 44.6513 23.7764 44.4179C23.6549 44.1813 23.4823 43.9991 23.2585 43.8712C23.0347 43.7433 22.7422 43.6794 22.3809 43.6794C22.0708 43.6794 21.7974 43.7385 21.5609 43.8568C21.3275 43.9751 21.1309 44.143 20.971 44.3604C20.8143 44.5778 20.6961 44.8383 20.6161 45.142C20.5362 45.4458 20.4962 45.7831 20.4962 46.1539V46.8589C20.4962 47.201 20.5314 47.5223 20.6017 47.8228C20.6753 48.1233 20.7856 48.3871 20.9326 48.6141C21.0797 48.8411 21.2667 49.0201 21.4937 49.1512C21.7207 49.2791 21.9893 49.343 22.2994 49.343C22.6926 49.343 23.0059 49.2807 23.2393 49.156C23.4727 49.0313 23.6486 48.8522 23.7668 48.6189C23.8883 48.3855 23.9747 48.1057 24.0258 47.7796ZM27.8232 42.6339V50H26.9312V42.6339H27.8232ZM32.1864 50.0959C31.8251 50.0959 31.4974 50.0352 31.2033 49.9137C30.9124 49.789 30.6614 49.6148 30.4504 49.391C30.2426 49.1672 30.0827 48.9018 29.9708 48.5949C29.8589 48.288 29.803 47.9523 29.803 47.5878V47.3864C29.803 46.9644 29.8653 46.5887 29.99 46.2594C30.1147 45.9269 30.2842 45.6456 30.4984 45.4154C30.7126 45.1852 30.9555 45.011 31.2273 44.8927C31.499 44.7744 31.7804 44.7152 32.0713 44.7152C32.4422 44.7152 32.7619 44.7792 33.0304 44.9071C33.3022 45.0349 33.5244 45.214 33.697 45.4442C33.8697 45.6712 33.9976 45.9397 34.0807 46.2498C34.1638 46.5567 34.2054 46.8924 34.2054 47.2569V47.6549H30.3305V46.9308H33.3182V46.8637C33.3054 46.6335 33.2574 46.4097 33.1743 46.1923C33.0944 45.9749 32.9665 45.7958 32.7907 45.6552C32.6148 45.5145 32.375 45.4442 32.0713 45.4442C31.8699 45.4442 31.6845 45.4873 31.515 45.5736C31.3456 45.6568 31.2001 45.7815 31.0786 45.9477C30.9571 46.1139 30.8628 46.317 30.7957 46.5567C30.7286 46.7965 30.695 47.0731 30.695 47.3864V47.5878C30.695 47.834 30.7286 48.0658 30.7957 48.2832C30.866 48.4974 30.9667 48.686 31.0978 48.8491C31.2321 49.0121 31.3935 49.14 31.5822 49.2327C31.774 49.3254 31.9914 49.3718 32.2344 49.3718C32.5477 49.3718 32.813 49.3078 33.0304 49.1799C33.2478 49.0521 33.4381 48.881 33.6011 48.6668L34.1382 49.0936C34.0263 49.2631 33.8841 49.4245 33.7114 49.578C33.5388 49.7314 33.3262 49.8561 33.0736 49.952C32.8242 50.048 32.5285 50.0959 32.1864 50.0959ZM39.0865 49.1128V46.4417C39.0865 46.237 39.045 46.0596 38.9619 45.9093C38.8819 45.7559 38.7604 45.6376 38.5974 45.5545C38.4343 45.4713 38.2329 45.4298 37.9931 45.4298C37.7694 45.4298 37.5727 45.4681 37.4033 45.5449C37.237 45.6216 37.106 45.7223 37.01 45.847C36.9173 45.9717 36.871 46.106 36.871 46.2498H35.9838C35.9838 46.0644 36.0317 45.8806 36.1276 45.6983C36.2236 45.5161 36.361 45.3514 36.5401 45.2044C36.7223 45.0541 36.9397 44.9358 37.1923 44.8495C37.448 44.76 37.7326 44.7152 38.0459 44.7152C38.4232 44.7152 38.7556 44.7792 39.0434 44.9071C39.3343 45.0349 39.5613 45.2284 39.7244 45.4873C39.8906 45.7431 39.9737 46.0644 39.9737 46.4512V48.8682C39.9737 49.0409 39.9881 49.2247 40.0169 49.4197C40.0489 49.6148 40.0952 49.7826 40.156 49.9233V50H39.2304C39.1857 49.8977 39.1505 49.7618 39.1249 49.5924C39.0993 49.4197 39.0865 49.2599 39.0865 49.1128ZM39.24 46.8541L39.2496 47.4775H38.3528C38.1002 47.4775 37.8749 47.4983 37.6766 47.5398C37.4784 47.5782 37.3122 47.6374 37.1779 47.7173C37.0436 47.7972 36.9413 47.8979 36.871 48.0194C36.8006 48.1377 36.7655 48.2768 36.7655 48.4366C36.7655 48.5997 36.8022 48.7483 36.8758 48.8826C36.9493 49.0169 37.0596 49.124 37.2067 49.2039C37.3569 49.2807 37.5408 49.319 37.7582 49.319C38.0299 49.319 38.2697 49.2615 38.4775 49.1464C38.6853 49.0313 38.85 48.8906 38.9715 48.7244C39.0961 48.5581 39.1633 48.3967 39.1729 48.24L39.5517 48.6668C39.5293 48.8011 39.4686 48.9498 39.3695 49.1128C39.2704 49.2759 39.1377 49.4325 38.9715 49.5828C38.8084 49.7298 38.6134 49.8529 38.3864 49.952C38.1626 50.048 37.91 50.0959 37.6287 50.0959C37.277 50.0959 36.9685 50.0272 36.7031 49.8897C36.441 49.7522 36.2364 49.5684 36.0893 49.3382C35.9454 49.1048 35.8735 48.8443 35.8735 48.5565C35.8735 48.2784 35.9278 48.0338 36.0365 47.8228C36.1452 47.6086 36.3019 47.4311 36.5065 47.2905C36.7111 47.1466 36.9573 47.0379 37.245 46.9644C37.5328 46.8908 37.8541 46.8541 38.2089 46.8541H39.24ZM43.0422 45.6264V50H42.155V44.8111H43.0182L43.0422 45.6264ZM44.6631 44.7824L44.6583 45.6072C44.5848 45.5912 44.5144 45.5816 44.4473 45.5784C44.3833 45.572 44.3098 45.5688 44.2267 45.5688C44.0221 45.5688 43.8414 45.6008 43.6848 45.6648C43.5281 45.7287 43.3954 45.8182 43.2867 45.9333C43.178 46.0484 43.0917 46.1859 43.0278 46.3457C42.967 46.5024 42.9271 46.675 42.9079 46.8637L42.6585 47.0075C42.6585 46.6942 42.6889 46.4001 42.7496 46.1251C42.8136 45.8502 42.9111 45.6072 43.0422 45.3962C43.1732 45.182 43.3395 45.0158 43.5409 44.8975C43.7455 44.776 43.9885 44.7152 44.2698 44.7152C44.3338 44.7152 44.4073 44.7232 44.4904 44.7392C44.5736 44.752 44.6311 44.7664 44.6631 44.7824ZM51.5145 50H50.0566L50.0662 49.2471H51.5145C52.0132 49.2471 52.4289 49.1432 52.7614 48.9354C53.0938 48.7244 53.3432 48.4302 53.5095 48.053C53.6789 47.6725 53.7636 47.2281 53.7636 46.7198V46.293C53.7636 45.8934 53.7157 45.5385 53.6198 45.2284C53.5239 44.915 53.3832 44.6513 53.1978 44.4371C53.0123 44.2197 52.7853 44.055 52.5168 43.9431C52.2514 43.8312 51.9461 43.7753 51.6008 43.7753H50.0278V43.0176H51.6008C52.058 43.0176 52.4752 43.0943 52.8525 43.2478C53.2297 43.398 53.5542 43.617 53.826 43.9048C54.1009 44.1893 54.3119 44.5346 54.459 44.9406C54.6061 45.3435 54.6796 45.7974 54.6796 46.3026V46.7198C54.6796 47.2249 54.6061 47.6805 54.459 48.0865C54.3119 48.4894 54.0993 48.8331 53.8212 49.1176C53.5462 49.4021 53.2137 49.6211 52.8237 49.7746C52.4368 49.9249 52.0004 50 51.5145 50ZM50.5506 43.0176V50H49.625V43.0176H50.5506ZM57.609 45.6264V50H56.7218V44.8111H57.585L57.609 45.6264ZM59.2299 44.7824L59.2251 45.6072C59.1515 45.5912 59.0812 45.5816 59.0141 45.5784C58.9501 45.572 58.8766 45.5688 58.7935 45.5688C58.5889 45.5688 58.4082 45.6008 58.2516 45.6648C58.0949 45.7287 57.9622 45.8182 57.8535 45.9333C57.7448 46.0484 57.6585 46.1859 57.5946 46.3457C57.5338 46.5024 57.4939 46.675 57.4747 46.8637L57.2253 47.0075C57.2253 46.6942 57.2557 46.4001 57.3164 46.1251C57.3804 45.8502 57.4779 45.6072 57.609 45.3962C57.74 45.182 57.9063 45.0158 58.1077 44.8975C58.3123 44.776 58.5553 44.7152 58.8366 44.7152C58.9006 44.7152 58.9741 44.7232 59.0572 44.7392C59.1404 44.752 59.1979 44.7664 59.2299 44.7824ZM61.7996 44.8111V50H60.9076V44.8111H61.7996ZM60.8404 43.4348C60.8404 43.2909 60.8836 43.1694 60.9699 43.0703C61.0594 42.9712 61.1905 42.9217 61.3632 42.9217C61.5326 42.9217 61.6621 42.9712 61.7516 43.0703C61.8443 43.1694 61.8907 43.2909 61.8907 43.4348C61.8907 43.5723 61.8443 43.6906 61.7516 43.7897C61.6621 43.8856 61.5326 43.9335 61.3632 43.9335C61.1905 43.9335 61.0594 43.8856 60.9699 43.7897C60.8836 43.6906 60.8404 43.5723 60.8404 43.4348ZM64.8968 45.8086V51.995H64.0048V44.8111H64.82L64.8968 45.8086ZM68.3928 47.3624V47.4631C68.3928 47.8404 68.348 48.1905 68.2585 48.5134C68.169 48.8331 68.0379 49.1112 67.8652 49.3478C67.6958 49.5844 67.4864 49.7682 67.237 49.8993C66.9877 50.0304 66.7015 50.0959 66.3786 50.0959C66.0493 50.0959 65.7584 50.0416 65.5058 49.9329C65.2532 49.8242 65.039 49.6659 64.8632 49.4581C64.6874 49.2503 64.5467 49.0009 64.4412 48.71C64.3389 48.419 64.2685 48.0913 64.2302 47.7269V47.1898C64.2685 46.8061 64.3405 46.4624 64.446 46.1587C64.5515 45.855 64.6905 45.596 64.8632 45.3818C65.039 45.1644 65.2516 44.9998 65.501 44.8879C65.7504 44.7728 66.0381 44.7152 66.3642 44.7152C66.6903 44.7152 66.9797 44.7792 67.2322 44.9071C67.4848 45.0317 67.6974 45.2108 67.87 45.4442C68.0427 45.6775 68.1722 45.9573 68.2585 46.2834C68.348 46.6063 68.3928 46.966 68.3928 47.3624ZM67.5008 47.4631V47.3624C67.5008 47.1034 67.4736 46.8605 67.4193 46.6335C67.3649 46.4033 67.2802 46.2019 67.1651 46.0292C67.0532 45.8534 66.9093 45.7159 66.7335 45.6168C66.5576 45.5145 66.3482 45.4633 66.1053 45.4633C65.8815 45.4633 65.6864 45.5017 65.5202 45.5784C65.3571 45.6552 65.2181 45.7591 65.103 45.8902C64.9879 46.018 64.8936 46.1651 64.82 46.3314C64.7497 46.4944 64.6969 46.6638 64.6618 46.8397V48.0818C64.7257 48.3055 64.8152 48.5166 64.9303 48.7148C65.0454 48.9098 65.1989 49.0681 65.3907 49.1895C65.5825 49.3078 65.8239 49.367 66.1148 49.367C66.3546 49.367 66.5608 49.3174 66.7335 49.2183C66.9093 49.116 67.0532 48.9769 67.1651 48.8011C67.2802 48.6253 67.3649 48.4238 67.4193 48.1968C67.4736 47.9667 67.5008 47.7221 67.5008 47.4631Z" fill="white"/>
<circle cx="43.5" cy="134.5" r="11.5" fill="#EA001B"/>
<g clip-path="url(#clip0_56_139)">
<path d="M49.9162 134.312C50.0177 135.017 50.0844 135.981 49.7683 136.349C49.2459 136.96 45.9382 136.96 45.9382 135.739C45.9382 135.125 46.4825 134.722 45.9601 134.112C45.4466 133.512 44.5252 133.502 43.5007 133.502C42.4761 133.501 41.5555 133.511 41.0412 134.112C40.5188 134.722 41.0632 135.125 41.0632 135.739C41.0632 136.959 37.7555 136.959 37.233 136.349C36.917 135.981 36.9836 135.017 37.0852 134.312C37.1632 133.842 37.3606 133.335 37.9935 132.688C38.9425 131.802 40.3782 131.079 43.4503 131.062H43.5527C46.6247 131.078 48.0604 131.802 49.0094 132.688C49.6415 133.335 49.8398 133.842 49.9178 134.312H49.9162Z" fill="white"/>
</g>
<defs>
<clipPath id="clip0_56_139">
<rect width="13" height="13" fill="white" transform="translate(37 127)"/>
</clipPath>
</defs>
</svg>
