<svg width="82" height="82" viewBox="0 0 82 82" fill="none" xmlns="http://www.w3.org/2000/svg">
<path d="M37.5834 18.2222C40.0994 18.2222 42.1389 16.1826 42.1389 13.6666C42.1389 11.1507 40.0994 9.11108 37.5834 9.11108C35.0674 9.11108 33.0278 11.1507 33.0278 13.6666C33.0278 16.1826 35.0674 18.2222 37.5834 18.2222Z" fill="#92D3F5"/>
<path d="M38.7222 25.0555C40.6092 25.0555 42.1389 23.5258 42.1389 21.6388C42.1389 19.7519 40.6092 18.2222 38.7222 18.2222C36.8352 18.2222 35.3055 19.7519 35.3055 21.6388C35.3055 23.5258 36.8352 25.0555 38.7222 25.0555Z" fill="#FCEA2B"/>
<path d="M35.3054 22.7778H42.1388V47.8334H35.3054V22.7778ZM31.8888 63.7778L34.244 68.3949L40.7413 72.6452L47.9061 73.6771L55.679 71.0052L61.4486 63.9612L62.6023 58.4353L30.5392 59.6505L31.1462 63.0512L31.8888 63.7778Z" fill="#FCEA2B"/>
<path d="M31.8888 55.8055L26.2479 46.9792L23.9166 43.2778L26.298 40.9556L32.2647 41.8177L35.0561 44.8232L35.8795 48.5725L35.1472 56.2543L31.8888 55.8055Z" fill="#FCEA2B"/>
<path d="M35.3716 41.7927V46.5487H30.75V62.6389H62.6389V41.7927H35.3716Z" fill="#FCEA2B"/>
<path d="M46.2025 13.2053C46.2025 13.2053 54.4139 13.2053 62.6253 18.68ZM29.7797 13.2053C29.7797 13.2053 21.5683 13.2053 13.3569 18.68Z" fill="black"/>
<path d="M46.2025 13.2053C46.2025 13.2053 54.4139 13.2053 62.6253 18.68M29.7797 13.2053C29.7797 13.2053 21.5683 13.2053 13.3569 18.68" stroke="black" stroke-width="2.27778" stroke-miterlimit="10" stroke-linecap="round" stroke-linejoin="round"/>
<path d="M62.2107 11.3889L63.6993 19.6333L55.4548 21.1219M14.0574 11.3889L12.5688 19.6333L20.8133 21.1219M62.6617 57.5674C62.6617 66.4576 55.4548 73.6656 46.5635 73.6656C37.6722 73.6656 30.4653 66.4576 30.4653 57.5674M62.6629 56.7121V44.9725C62.6817 44.5232 62.613 44.0746 62.4585 43.6523C62.304 43.23 62.0678 42.8423 61.7634 42.5113C61.4591 42.1803 61.0925 41.9124 60.6846 41.7231C60.2767 41.5337 59.8356 41.4266 59.3863 41.4078C58.937 41.3889 58.4884 41.4587 58.0661 41.6133C57.6438 41.7678 57.2561 42.004 56.9251 42.3083C56.5941 42.6127 56.3262 42.9793 56.1369 43.3871C55.9476 43.795 55.8404 44.2362 55.8216 44.6855" stroke="black" stroke-width="2.27778" stroke-miterlimit="10" stroke-linecap="round" stroke-linejoin="round"/>
<path d="M48.9768 44.4576C48.9957 44.0083 49.1028 43.5672 49.2921 43.1593C49.4815 42.7514 49.7493 42.3848 50.0803 42.0805C50.4113 41.7761 50.7991 41.5399 51.2214 41.3854C51.6437 41.2309 52.0922 41.161 52.5415 41.1799C52.9908 41.1987 53.432 41.3059 53.8398 41.4952C54.2477 41.6846 54.6143 41.9524 54.9187 42.2834C55.223 42.6144 55.4592 43.0021 55.6137 43.4244C55.7683 43.8467 55.8381 44.2953 55.8193 44.7446" stroke="black" stroke-width="2.27778" stroke-miterlimit="10" stroke-linecap="round" stroke-linejoin="round"/>
<path d="M48.9814 44.3266C49.0542 43.4215 49.4835 42.5824 50.175 41.9939C50.8665 41.4054 51.7634 41.1156 52.6685 41.1884C53.5736 41.2612 54.4127 41.6906 55.0013 42.3821C55.5898 43.0735 55.8795 43.9705 55.8067 44.8756M42.0934 43.9907C42.1718 43.1 42.5955 42.2754 43.2738 41.693C43.9521 41.1105 44.8313 40.8164 45.7235 40.8735C46.6158 40.9306 47.4503 41.3344 48.0488 41.9986C48.6474 42.6627 48.9624 43.5346 48.9267 44.428M42.0922 43.9542V22.1035C42.0922 21.1954 41.7315 20.3245 41.0894 19.6823C40.4472 19.0402 39.5763 18.6794 38.6682 18.6794C37.7601 18.6794 36.8891 19.0402 36.247 19.6823C35.6049 20.3245 35.2441 21.1954 35.2441 22.1035V49.2911M32.3479 43.5738L30.4323 41.4077C29.8015 40.7545 28.937 40.3786 28.029 40.3628C27.1211 40.347 26.2441 40.6926 25.5909 41.3234C24.9377 41.9542 24.5619 42.8187 24.5461 43.7266C24.5302 44.6346 24.8758 45.5116 25.5066 46.1648L27.289 48.4938M27.2366 48.4346C29.1465 50.5324 30.5359 53.4901 30.4653 57.7507M40.4614 15.5093C40.8089 14.9667 40.9959 14.3369 41.0007 13.6925C41.0056 13.0482 40.8282 12.4156 40.4889 11.8678C40.1497 11.32 39.6624 10.8792 39.0834 10.5965C38.5044 10.3138 37.8572 10.2005 37.2166 10.2698C36.5759 10.3392 35.968 10.5882 35.4629 10.9883C34.9577 11.3884 34.576 11.9231 34.3618 12.5308C34.1476 13.1386 34.1096 13.7945 34.2522 14.4228C34.3948 15.0512 34.7122 15.6265 35.1678 16.0822" stroke="black" stroke-width="2.27778" stroke-miterlimit="10" stroke-linecap="round" stroke-linejoin="round"/>
</svg>
